<svg width="279" height="598" viewBox="0 0 279 598" fill="none" xmlns="http://www.w3.org/2000/svg">
<g clip-path="url(#clip0_54_138)">
<path d="M149.462 16.5457C146.638 21.4103 144.31 25.4692 144.31 25.5622C144.31 25.6551 148.997 25.7171 154.707 25.7171C160.417 25.7171 165.103 25.6551 165.103 25.5312C165.103 25.3143 155.203 8.30384 154.862 7.96301C154.738 7.80809 152.317 11.6811 149.462 16.5457ZM158.555 17.4133C160.635 20.9455 162.31 23.92 162.31 24.013C162.31 24.1059 158.866 24.1679 154.676 24.1679C150.393 24.1679 147.103 24.0439 147.166 23.889C147.352 23.3933 154.676 10.8755 154.738 10.9375C154.769 10.9685 156.476 13.881 158.555 17.4133Z" fill="black"/>
<path d="M214.945 16.6077C210.91 17.5682 206.038 21.1314 204.362 24.3228C203.772 25.4382 203.772 25.4692 204.362 25.903C205.293 26.5847 205.883 26.4297 206.503 25.2523C207.341 23.7031 210.321 20.9765 212.214 20.0159C217.086 17.5372 222.735 17.909 227.328 20.9455C232.603 24.4157 234.962 31.1704 233.069 37.2433C232.728 38.2968 232.448 39.2883 232.448 39.3812C232.448 39.5362 233.845 40.2798 234.186 40.2798C234.59 40.2798 235.521 37.4292 235.862 35.2293C237.103 26.8015 231.579 18.7766 222.983 16.5767C220.748 16.019 217.397 16.019 214.945 16.6077Z" fill="black"/>
<path d="M14.8655 22.5257C15.2069 23.3313 17.069 27.9479 19.0241 32.7505C20.9793 37.5841 22.531 41.5191 22.4379 41.5191C22.2828 41.5191 11.4828 38.6686 5.30689 36.9954C3.16551 36.4377 1.36551 36.0039 1.30344 36.0969C1.14827 36.2208 1.70689 37.6461 6.51723 49.5751C10.5828 59.738 10.1172 58.9014 11.5448 58.3437L12.6621 57.9099L8.99999 48.8624C6.98275 43.8739 5.36896 39.784 5.39999 39.753C5.43103 39.691 13.8724 41.86 21.6931 43.9669C24.331 44.6795 26.5345 45.2063 26.5965 45.1133C26.6586 45.0514 24.9207 40.4966 22.6862 34.9814C20.4517 29.4662 18.6828 24.9424 18.7138 24.8805C18.7759 24.8495 20.2655 25.1903 22.0655 25.6861C31.7793 28.3507 37.5828 29.807 37.7379 29.6831C37.8 29.5901 37.9552 29.0324 38.0483 28.4437L38.2345 27.3902L26.7828 24.3537C20.5138 22.7116 15.1138 21.2553 14.8034 21.1933C14.3069 21.0384 14.3069 21.1314 14.8655 22.5257Z" fill="black"/>
<path d="M78.3 41.2093C73.4276 42.4797 69.0517 45.6401 66.4138 49.792C65.8862 50.5976 65.4828 51.4032 65.4828 51.5891C65.4828 51.899 67.5931 52.8595 67.7793 52.6116C67.8414 52.5806 68.2448 51.93 68.6793 51.2173C70.5414 48.2428 73.4586 45.857 76.9655 44.4317C87.0828 40.3418 98.5345 46.5387 100.707 57.2903C101.359 60.4817 101.172 63.2393 100.086 66.2138C99.6828 67.3602 99.3724 68.3207 99.4034 68.3517C99.9931 68.8165 101.607 69.4052 101.793 69.1883C101.917 69.0644 102.352 68.0419 102.755 66.9264C103.407 65.1913 103.5 64.3547 103.5 60.7295C103.5 55.7101 102.848 53.2623 100.552 49.761C95.7724 42.4797 86.7414 39.0094 78.3 41.2093Z" fill="black"/>
<path d="M216.776 75.1373C213.021 77.2442 209.917 79.1033 209.886 79.2272C209.793 79.4441 223.417 87.3762 223.883 87.3762C223.976 87.3762 224.069 83.751 224.069 79.3202C224.069 74.8894 223.945 71.2642 223.821 71.2642C223.697 71.2642 220.5 72.9994 216.776 75.1373ZM222.828 79.3202C222.828 82.5426 222.734 85.2072 222.641 85.2072C222.393 85.2072 213.114 79.9089 212.679 79.5061C212.4 79.2582 213.548 78.4526 217.334 76.3147C220.097 74.7345 222.455 73.4332 222.61 73.4332C222.734 73.4332 222.828 76.0668 222.828 79.3202Z" fill="black"/>
<path d="M162.155 79.4132C160.666 80.6835 160.603 83.2243 161.845 90.9394C162.372 94.0688 162.434 96.9194 162.031 97.5701C161.348 98.6235 159.424 96.9194 155.11 91.4661C150.983 86.3227 148.531 84.7115 146.607 85.9819C144.714 87.2213 144.559 89.8549 145.862 97.756C147.414 107.051 146.017 107.082 138.662 97.9109C135.683 94.1928 134.131 92.9224 132.331 92.7055C131.586 92.6435 130.966 92.6435 130.966 92.7055C130.966 93.4801 131.741 94.8125 132.176 94.8125C132.859 94.8125 135.093 96.9814 137.576 100.049C142.076 105.657 143.503 106.865 145.49 106.896C146.545 106.896 146.979 106.71 147.569 106.091C148.779 104.758 148.872 103.085 147.91 96.5166C146.979 89.8859 146.917 88.9564 147.507 88.1818C147.91 87.655 147.972 87.655 148.903 88.1198C149.431 88.3987 151.169 90.1958 152.721 92.1168C157.717 98.2827 159.734 100.08 161.534 100.08C164.483 100.08 165.103 97.1983 163.831 89.5451C163.086 84.9904 162.931 81.675 163.428 81.1793C164.328 80.2807 165.6 81.3652 170.069 86.9114C171.714 88.9564 173.576 91.0943 174.197 91.6211C175.5 92.7675 177.672 93.5421 178.169 93.0463C178.572 92.6435 177.89 91.0943 177.331 91.0943C176.586 91.0943 174.662 89.1423 171.652 85.3622C170.038 83.3172 168.269 81.2413 167.772 80.7455C165.476 78.6076 163.614 78.1428 162.155 79.4132Z" fill="black"/>
<path d="M261.714 81.644C261.497 81.8919 261.31 82.2637 261.341 82.4806C261.341 82.6975 263.638 84.8974 266.462 87.3761C269.255 89.8549 271.366 91.8999 271.148 91.9618C270.962 92.0238 267.486 92.7365 263.483 93.5421C259.479 94.3476 256.221 95.0913 256.252 95.2152C256.314 95.3391 258.859 97.694 261.931 100.421C265.034 103.178 267.486 105.502 267.393 105.564C267.3 105.657 264.259 106.339 260.628 107.051C254.234 108.322 254.017 108.384 254.11 109.096C254.141 109.468 254.266 109.871 254.328 109.964C254.545 110.15 271.552 106.834 271.552 106.587C271.552 106.494 268.976 104.139 265.81 101.35C262.645 98.5615 260.1 96.2067 260.162 96.1447C260.224 96.0828 263.483 95.4011 267.393 94.6265C271.303 93.8519 274.717 93.1702 274.966 93.0773C275.462 92.8914 275.555 93.0153 269.814 87.8409C265.128 83.596 262.334 81.1793 262.21 81.1793C262.148 81.2102 261.9 81.3961 261.714 81.644Z" fill="black"/>
<path d="M43.7586 91.0943C43.7586 95.5251 43.8517 99.1503 43.9758 99.1503C44.4724 99.1503 57.9724 91.2492 57.7862 91.0633C57.5379 90.8154 46.0241 84.1848 44.6276 83.4721L43.7586 83.0074V91.0943ZM50.9896 88.6156C53.1621 89.8549 55.0241 90.9704 55.0862 91.0943C55.2103 91.3112 45.6517 96.9814 45.1862 96.9814C45.0931 96.9814 45 94.3167 45 91.0633V85.1453L46.0241 85.765C46.5517 86.0748 48.8172 87.3762 50.9896 88.6156Z" fill="black"/>
<path d="M11.9483 113.496C6.73448 115.231 2.73103 119.228 0.962066 124.465C0.0931003 127.098 0.0620658 131.746 0.931031 134.504C2.7 140.298 7.69655 144.852 13.6241 146.123C23.369 148.168 32.7414 141.692 34.1379 131.932C35.2552 124 30.6621 116.409 23.1207 113.651C20.2345 112.597 14.8655 112.536 11.9483 113.496ZM21.1345 115.448C26.131 116.935 29.7 120.344 31.3448 125.208C31.9345 126.881 31.9965 127.687 31.9034 130.29C31.7793 133.109 31.6552 133.636 30.631 135.743C27 143.334 18.0621 146.402 10.6138 142.652C1.95517 138.315 -0.248279 127.129 6.17586 119.879C9.74482 115.82 16.0759 113.961 21.1345 115.448Z" fill="black"/>
<path d="M194.276 122.915C191.824 127.16 187.945 133.791 185.679 137.664C183.414 141.537 181.552 144.79 181.552 144.852C181.552 144.945 189.372 145.007 198.9 145.007H216.279L213.61 140.422C212.152 137.912 208.366 131.405 205.2 125.952C202.034 120.498 199.303 115.851 199.117 115.634C198.838 115.355 197.721 117.028 194.276 122.915ZM202.717 127.036C210.134 139.678 211.345 141.816 211.345 142.157C211.345 142.435 208.086 142.528 198.745 142.528C187.231 142.528 186.145 142.497 186.331 142.033C186.89 140.607 198.776 120.56 198.962 120.777C199.086 120.901 200.793 123.721 202.717 127.036Z" fill="black"/>
<path d="M252.652 167.75L251.969 168.462L257.09 173.544C259.914 176.332 262.241 178.718 262.241 178.811C262.241 178.935 259.914 181.321 257.059 184.141L251.845 189.284L252.559 189.997L253.241 190.678L255.662 188.354C256.966 187.084 259.386 184.729 261 183.18L263.917 180.298L269.1 185.473C272.824 189.191 274.438 190.585 274.779 190.461C276.145 189.935 275.679 189.284 270.497 184.079L265.314 178.873L270.528 173.73C275.028 169.268 275.679 168.493 275.4 168.029C275.214 167.719 274.841 167.471 274.593 167.471C274.345 167.471 271.831 169.671 269.069 172.366C266.276 175.031 263.855 177.2 263.731 177.169C263.576 177.107 261.186 174.814 258.393 172.026L253.335 167.006L252.652 167.75Z" fill="black"/>
<path d="M95.9276 191.515L88.0448 199.261L95.8966 206.914C100.21 211.128 103.841 214.567 103.966 214.567C104.121 214.567 107.721 211.128 111.972 206.914L119.762 199.261L112.003 191.577C107.721 187.363 104.152 183.862 104.028 183.831C103.903 183.8 100.272 187.27 95.9276 191.515ZM110.39 193.219L116.534 199.261L110.328 205.272C106.914 208.587 104.028 211.283 103.903 211.314C103.81 211.314 100.924 208.587 97.5414 205.272L91.3966 199.261L97.4483 193.219C100.769 189.935 103.655 187.208 103.872 187.177C104.059 187.177 107.007 189.873 110.39 193.219Z" fill="black"/>
<path d="M12.1035 196.906V206.976H22.3448H32.5862V196.906V186.836H22.3448H12.1035V196.906ZM30.4138 196.906V204.807H22.3448H14.2759V196.906V189.005H22.3448H30.4138V196.906Z" fill="black"/>
<path d="M159.46 179.359C159.398 179.576 159.181 180.32 158.964 181.001C158.778 181.683 158.064 183.294 157.443 184.565C156.047 187.384 155.736 188.624 156.202 189.553C156.854 190.761 158.716 190.235 162.254 187.849C163.96 186.734 165.605 185.804 165.947 185.804C166.754 185.804 166.474 186.95 164.86 190.297C163.464 193.271 163.029 195.13 163.65 195.874C164.302 196.649 165.885 196.432 167.716 195.316C173.86 191.536 173.488 191.691 173.767 192.466C173.86 192.683 173.271 194.325 172.464 196.091C170.943 199.437 170.416 201.668 171.098 202.071C171.564 202.35 172.029 201.699 172.029 200.8C172.029 200.429 172.65 198.817 173.426 197.175C174.171 195.533 174.885 193.643 175.009 192.992C175.195 191.877 175.102 191.691 174.388 191.226C173.302 190.514 172.371 190.792 169.64 192.621C164.147 196.339 163.557 196.029 166.009 190.854C167.716 187.291 167.995 185.866 167.188 185.06C166.319 184.162 164.829 184.627 161.726 186.734C156.729 190.142 156.326 189.894 158.622 184.967C160.298 181.311 160.64 180.227 160.36 179.483C160.143 178.894 159.647 178.832 159.46 179.359Z" fill="black"/>
<path d="M231.455 245.304C231.207 245.614 230.897 246.048 230.741 246.295C230.586 246.574 232.51 248.712 237.29 253.484L244.086 260.269L237.259 267.086L230.462 273.872L231.207 274.677C231.61 275.111 232.076 275.452 232.262 275.452C232.417 275.452 235.583 272.446 239.276 268.79L245.948 262.128L252.776 268.79C256.5 272.446 259.666 275.452 259.79 275.452C259.945 275.452 260.41 275.142 260.876 274.739L261.714 274.026L254.762 267.148L247.81 260.3L254.731 253.391L261.652 246.45L260.721 245.552L259.759 244.684L252.869 251.532L245.948 258.41L239.121 251.594C235.366 247.845 232.2 244.777 232.107 244.777C232.014 244.777 231.703 245.025 231.455 245.304Z" fill="black"/>
<path d="M146.048 256.613C144.869 257.822 144.031 259.898 142.572 265.351C141.393 269.72 140.648 271.672 139.872 272.322C139.562 272.57 139.345 273.19 139.345 273.81C139.345 274.77 139.407 274.863 140.059 274.677C142.014 274.058 142.945 272.229 144.838 265.444C147.724 254.94 148.686 255.188 151.914 267.241C153 271.3 154.055 273.5 155.297 274.243C158.183 276.01 160.076 273.748 162.124 266.002C165.01 255.126 166.035 255.095 168.89 265.692C170.348 271.083 171.528 273.686 172.862 274.367C175.717 275.824 177.486 273.593 179.503 266.002C180.745 261.261 181.707 258.627 182.328 258.101C182.576 257.884 182.793 257.233 182.793 256.644C182.793 255.684 182.731 255.591 182.11 255.808C180.31 256.334 179.224 258.41 177.672 264.297C174.755 275.297 173.7 275.235 170.69 263.988C168.952 257.512 167.4 255.281 164.917 255.777C163.024 256.118 162 257.977 160.293 264.421C159.021 269.162 158.121 271.486 157.345 272.198C156.817 272.663 156.755 272.663 156.135 272.013C155.421 271.238 154.707 269.255 153.155 263.616C151.914 259.061 151.231 257.574 149.897 256.427C148.531 255.312 147.29 255.374 146.048 256.613Z" fill="black"/>
<path d="M119.576 310.991C116.566 316.289 111.352 325.182 111.072 325.461C110.917 325.647 110.793 325.956 110.793 326.173C110.793 326.483 112.872 326.576 121.19 326.576C127.397 326.576 131.586 326.452 131.586 326.297C131.586 326.018 121.81 309.008 121.345 308.512C121.221 308.388 120.445 309.504 119.576 310.991ZM125.193 318.334C127.179 321.712 128.793 324.624 128.793 324.748C128.793 324.903 125.348 325.027 121.159 325.027C114.021 325.027 113.524 324.996 113.741 324.469C114.3 322.951 121.159 311.704 121.376 311.92C121.5 312.044 123.238 314.926 125.193 318.334Z" fill="black"/>
<path d="M55.0862 316.847C54.7448 316.909 53.6897 317.126 52.7586 317.312C47.2965 318.396 42.1759 323.323 40.5 329.148C39.7552 331.782 39.8172 336.15 40.6862 338.753C41.4 340.922 41.8345 341.232 42.9517 340.426C43.4793 340.023 43.4793 339.931 42.8586 337.917C42.0207 335.19 41.9896 331.937 42.8276 329.334C45.7138 320.069 56.7621 316.165 64.9862 321.433C66.7552 322.579 68.8965 324.779 69.6414 326.235C70.1379 327.196 70.169 327.196 71.069 326.731C71.5965 326.452 72 326.08 72 325.864C72 325.275 69.4552 322.052 68.0897 320.875C66.4448 319.481 63.8069 318.055 61.8207 317.467C60.0828 316.971 56.1414 316.599 55.0862 316.847Z" fill="black"/>
<path d="M249.052 324.965C242.907 326.607 237.848 327.97 237.786 328.001C237.724 328.032 237.786 328.559 237.879 329.179C238.034 329.922 238.283 330.294 238.624 330.294C238.903 330.294 243.186 329.179 248.121 327.878C253.086 326.545 257.152 325.492 257.214 325.523C257.307 325.554 255.476 330.108 250.634 342.037C249.828 343.958 249.238 345.632 249.331 345.694C249.424 345.787 251.969 345.198 255.01 344.392C267.672 341.046 270.621 340.271 270.621 340.364C270.621 340.395 269.007 344.361 267.052 349.195C265.097 354.028 263.483 358.118 263.483 358.304C263.483 358.738 265.407 359.513 265.686 359.172C265.966 358.893 274.655 337.266 274.655 336.894C274.655 336.739 270 337.824 264.352 339.342C258.672 340.829 253.893 342.068 253.738 342.068C253.366 342.068 253.428 341.913 257.679 331.441C261.217 322.765 261.497 321.929 260.907 321.959C260.534 321.99 255.197 323.323 249.052 324.965Z" fill="black"/>
<path d="M188.224 341.573C180.962 343.246 175.5 348.11 173.11 355.051C172.49 356.786 172.397 357.716 172.397 361.279C172.397 364.842 172.49 365.771 173.11 367.538C173.514 368.684 173.948 369.707 174.103 369.799C174.259 369.892 174.879 369.738 175.5 369.428C176.276 369.056 176.555 368.777 176.4 368.436C175.19 365.493 174.941 364.346 174.91 361.434C174.879 357.747 175.686 354.865 177.548 351.983C180.869 346.84 186.238 343.927 192.352 343.927C198.497 343.927 203.99 346.871 207.186 351.859L208.241 353.533L209.328 353.006C209.917 352.727 210.414 352.324 210.414 352.138C210.414 351.488 207.372 347.46 206.007 346.282C202.376 343.153 198.124 341.48 193.221 341.263C191.203 341.201 189.434 341.294 188.224 341.573Z" fill="black"/>
<path d="M110.328 379.776C108.962 380.489 107.907 381.543 105.269 384.827C102.072 388.824 99.3414 391.644 98.6586 391.644C98.2552 391.644 97.4483 392.976 97.4483 393.688C97.4483 393.75 97.9138 393.812 98.4724 393.812C100.366 393.781 101.545 392.759 106.107 387.213C109.459 383.123 111.197 381.419 112.003 381.419C112.19 381.419 112.5 381.79 112.686 382.255C113.059 383.247 112.872 385.509 112.003 390.559C110.762 397.809 111.476 400.629 114.61 400.629C116.1 400.629 117.931 399.142 120.879 395.486C124.634 390.869 126.931 388.545 127.738 388.545C129.041 388.545 129.103 389.784 127.986 397.252C126.9 404.688 127.272 407.074 129.693 407.601C131.71 408.034 133.728 406.485 137.762 401.435C140.493 397.995 143.131 395.362 143.845 395.362C144.186 395.362 144.931 394.091 144.931 393.503C144.931 393.038 143.162 393.131 142.2 393.627C141.052 394.246 138.414 397.035 135.341 400.877C132.548 404.316 130.593 405.958 129.941 405.308C129.383 404.75 129.569 400.815 130.314 396.291C131.555 388.917 130.934 386.376 127.862 386.376C125.938 386.376 124.169 387.925 119.545 393.688C116.007 398.119 114.3 399.359 113.772 397.964C113.431 397.066 113.586 394.215 114.176 390.683C115.107 385.137 115.231 383.681 114.828 382.007C114.207 379.529 112.469 378.63 110.328 379.776Z" fill="black"/>
<path d="M6.98274 387.647C3.56894 390.714 0.744806 393.317 0.682737 393.441C0.651703 393.565 4.03446 394.339 8.22412 395.176C12.4138 396.012 15.8276 396.756 15.7965 396.88C15.7965 396.973 13.6241 398.956 10.9862 401.249C5.80343 405.772 4.0655 407.446 4.53101 407.446C4.68619 407.446 8.59653 408.189 13.1896 409.119C17.8138 410.048 21.5689 410.761 21.6 410.761C21.631 410.73 21.7241 410.327 21.8483 409.862C22.0655 408.933 22.6241 409.088 13.8103 407.415C10.9241 406.857 8.47239 406.361 8.37929 406.268C8.22412 406.144 8.72067 405.679 15.6103 399.607C19.1172 396.539 19.8 395.795 19.3345 395.61C19.0241 395.486 15.8586 394.804 12.2586 394.122C3.72412 392.449 4.40688 392.697 5.49308 391.582C5.9586 391.086 8.28619 388.979 10.6138 386.903C14.6793 383.371 14.8655 383.154 14.3689 382.596C14.0896 382.286 13.7172 382.038 13.531 382.069C13.3448 382.069 10.3965 384.579 6.98274 387.647Z" fill="black"/>
<path d="M254.359 413.828C251.535 414.51 248.959 416.028 246.569 418.445C243.093 421.915 241.603 425.695 241.666 430.684C241.79 439.793 249.362 447.106 258.672 447.106C263.452 447.106 267.362 445.464 270.807 442.024C274.159 438.678 275.617 435.146 275.679 430.374C275.71 425.633 274.159 421.853 270.776 418.414C268.417 415.997 265.376 414.293 262.303 413.673C260.1 413.209 256.593 413.271 254.359 413.828ZM262.086 415.966C264.879 416.679 267.114 417.949 269.1 419.901C272.266 423 273.6 426.656 273.352 431.366C273.228 433.566 273.041 434.371 272.079 436.385C267.641 445.711 255.631 447.818 248.245 440.599C243.248 435.703 242.503 427.926 246.445 422.039C249.797 417.02 256.314 414.479 262.086 415.966Z" fill="black"/>
<path d="M70.1379 427.647C66.3207 434.185 62.4724 440.816 61.5414 442.427C60.6103 444.007 59.9276 445.371 59.9896 445.433C60.1758 445.618 94.3448 445.742 94.3448 445.525C94.3448 445.433 93.2586 443.48 91.9241 441.188C90.5896 438.895 86.8655 432.512 83.6379 426.966C80.4103 421.42 77.6172 416.648 77.431 416.338C77.0896 415.873 76.1276 417.361 70.1379 427.647ZM83.2965 431.706C86.6483 437.439 89.4724 442.365 89.5655 442.613C89.7207 443.016 88.1689 443.078 77.1517 443.078C69.6724 443.078 64.5517 442.954 64.5517 442.799C64.5517 442.458 77.0276 421.017 77.1517 421.141C77.1827 421.203 79.9448 425.943 83.2965 431.706Z" fill="black"/>
<path d="M0.775851 468.485C0.186195 469.136 0.248264 469.198 5.43102 474.372L10.6759 479.608L5.49309 484.721C2.63792 487.54 0.310333 489.957 0.310333 490.112C0.310333 490.267 0.589644 490.639 0.931023 490.949C1.52068 491.475 1.64482 491.382 6.82757 486.301L12.1034 481.065L14.4931 483.419C15.8276 484.721 18.1552 487.014 19.6759 488.563C22.3759 491.259 22.5 491.321 23.1827 490.887C23.5862 490.608 23.8965 490.267 23.8965 490.05C23.8965 489.864 21.569 487.447 18.7138 484.69L13.5 479.67L18.7759 474.403L24.0517 469.105L23.3379 468.423L22.6552 467.71L17.3793 472.978L12.1034 478.245L6.88964 473.04C4.03447 470.189 1.61378 467.865 1.52068 467.865C1.42757 467.865 1.0862 468.144 0.775851 468.485Z" fill="black"/>
<path d="M163.955 492.095L156.103 499.934L163.8 507.587C168.052 511.832 171.683 515.271 171.869 515.271C172.055 515.271 175.717 511.832 180 507.618L187.79 499.965L179.938 492.126C175.624 487.819 172.024 484.287 171.931 484.287C171.838 484.287 168.238 487.819 163.955 492.095ZM178.324 493.861L184.438 499.841L178.2 506.069L171.962 512.297L165.724 506.131L159.486 499.965L165.631 493.83C169.014 490.453 171.869 487.726 171.993 487.757C172.086 487.819 174.941 490.546 178.324 493.861Z" fill="black"/>
<path d="M243.31 497.455V507.525H253.552H263.793V497.455V487.385H253.552H243.31V497.455ZM261.621 497.455V505.356H253.552H245.483V497.455V489.554H253.552H261.621V497.455Z" fill="black"/>
<path d="M119.789 480.316C119.789 481.245 120.224 482.547 121.341 484.871C122.21 486.668 122.893 488.279 122.893 488.496C122.893 489.611 121.62 489.146 118.144 486.699C115.32 484.716 114.141 484.344 113.055 485.025C112.372 485.49 112.279 485.707 112.434 486.73C112.527 487.38 113.241 489.27 114.017 490.913C115.475 493.98 115.786 495.405 115.041 495.405C114.793 495.405 113.086 494.414 111.255 493.236C107.469 490.789 106.196 490.448 105.265 491.625C104.675 492.4 105.048 493.887 106.6 497.14C107.344 498.69 107.996 500.394 108.089 500.921C108.275 502.098 108.586 502.594 108.958 502.377C109.548 501.974 109.238 499.712 108.306 497.884C106.941 495.157 106.072 492.896 106.258 492.431C106.506 491.811 107.531 492.276 110.789 494.445C113.769 496.428 115.041 496.893 116.034 496.335C117.089 495.808 116.872 494.135 115.32 490.758C112.682 485.025 113.055 484.654 118.051 488.124C121.465 490.51 123.079 490.913 123.855 489.487C124.32 488.62 123.979 487.411 122.365 484.096C121.62 482.547 120.969 480.905 120.906 480.502C120.72 478.612 119.789 478.457 119.789 480.316Z" fill="black"/>
<path d="M15.2689 545.11C14.8965 545.512 14.5862 545.946 14.5862 546.07C14.5862 546.194 17.6276 549.261 21.3517 552.918L28.0862 559.579L21.3517 566.303C17.6276 570.021 14.5862 573.212 14.5862 573.398C14.5862 573.584 14.9276 574.049 15.362 574.452L16.1689 575.195L23.0586 568.317L29.9483 561.438L36.8379 568.317L43.7276 575.195L44.5345 574.452C44.9689 574.049 45.3103 573.584 45.3103 573.398C45.3103 573.181 42.3 570.083 38.6379 566.489C34.9758 562.864 31.9655 559.796 31.9655 559.641C31.9655 559.455 34.9758 556.45 38.6379 552.887C42.3 549.354 45.3103 546.287 45.3103 546.101C45.3103 545.915 44.9689 545.419 44.5345 545.017L43.7276 544.273L36.9931 550.997C33.3 554.684 30.1034 557.72 29.9483 557.72C29.762 557.72 26.6276 554.715 22.9655 551.059C19.3034 547.402 16.231 544.397 16.1069 544.397C16.0138 544.397 15.6414 544.707 15.2689 545.11Z" fill="black"/>
<path d="M93.1035 556.295C93.1035 556.915 93.2897 557.41 93.5379 557.503C94.1276 557.72 95.0897 560.385 96.3931 565.311C98.1621 571.88 99.4655 574.142 101.607 574.142C103.966 574.142 105.052 572.314 107.1 564.94C108.403 560.199 109.241 557.968 109.831 557.596C111.103 556.791 111.941 558.464 113.772 565.311C115.51 571.818 116.876 574.142 119.017 574.142C121.128 574.142 122.524 572.097 123.952 566.861C126.062 559.177 126.776 557.41 127.862 557.41C128.762 557.41 129.538 559.208 130.966 564.382C132.61 570.3 133.293 572.097 134.41 573.212C135.714 574.514 136.552 574.452 136.552 573.058C136.552 572.5 136.366 571.88 136.117 571.756C135.403 571.322 134.721 569.618 133.448 565.002C131.834 559.177 131.121 557.348 130.034 556.171C129.321 555.396 128.917 555.241 127.769 555.241C126.59 555.241 126.248 555.396 125.566 556.202C124.448 557.534 124.014 558.619 122.4 564.382C120.91 569.587 119.979 571.756 119.11 571.911C118.303 572.066 117.217 569.587 115.759 564.227C113.772 556.884 112.779 555.241 110.328 555.241C109.21 555.241 108.838 555.396 108.124 556.233C106.976 557.627 106.448 559.022 104.928 564.537C103.562 569.556 102.6 571.756 101.731 571.911C100.924 572.066 99.8069 569.525 98.4104 564.351C97.7276 561.81 96.9207 559.115 96.5793 558.34C95.8345 556.605 94.5621 555.241 93.7241 555.241C93.2276 555.241 93.1035 555.427 93.1035 556.295Z" fill="black"/>
<path d="M31.4205 528.864V527.5L42.3977 521.909V524.091L33.9773 528.148L34.0455 528.011V528.352L33.9773 528.216L42.3977 532.273V534.455L31.4205 528.864ZM55.9339 524.841L54.1271 525.352C54.0135 525.051 53.8459 524.759 53.6243 524.474C53.4084 524.185 53.1129 523.946 52.7379 523.759C52.3629 523.571 51.8828 523.477 51.2976 523.477C50.4964 523.477 49.8288 523.662 49.2947 524.031C48.7663 524.395 48.5021 524.858 48.5021 525.42C48.5021 525.92 48.6839 526.315 49.0476 526.605C49.4112 526.895 49.9794 527.136 50.7521 527.33L52.6953 527.807C53.8658 528.091 54.7379 528.526 55.3118 529.111C55.8857 529.69 56.1726 530.437 56.1726 531.352C56.1726 532.102 55.9567 532.773 55.5249 533.364C55.0987 533.955 54.5021 534.42 53.7351 534.761C52.968 535.102 52.076 535.273 51.0589 535.273C49.7237 535.273 48.6186 534.983 47.7436 534.403C46.8686 533.824 46.3146 532.977 46.0817 531.864L47.9908 531.386C48.1726 532.091 48.5163 532.619 49.022 532.972C49.5334 533.324 50.201 533.5 51.0249 533.5C51.9624 533.5 52.7067 533.301 53.2578 532.903C53.8146 532.5 54.093 532.017 54.093 531.455C54.093 531 53.9339 530.619 53.6158 530.312C53.2976 530 52.8089 529.767 52.1499 529.614L49.968 529.102C48.7692 528.818 47.8885 528.378 47.326 527.781C46.7692 527.179 46.4908 526.426 46.4908 525.523C46.4908 524.784 46.6982 524.131 47.1129 523.562C47.5334 522.994 48.1044 522.548 48.826 522.224C49.5533 521.901 50.3771 521.739 51.2976 521.739C52.593 521.739 53.6101 522.023 54.3487 522.591C55.093 523.159 55.6214 523.909 55.9339 524.841ZM64.8935 521.909V523.614H58.1094V521.909H64.8935ZM60.0866 518.773H62.098V531.25C62.098 531.818 62.1804 532.244 62.3452 532.528C62.5156 532.807 62.7315 532.994 62.9929 533.091C63.2599 533.182 63.5412 533.227 63.8366 533.227C64.0582 533.227 64.2401 533.216 64.3821 533.193C64.5241 533.165 64.6378 533.142 64.723 533.125L65.1321 534.932C64.9957 534.983 64.8054 535.034 64.5611 535.085C64.3168 535.142 64.0071 535.17 63.6321 535.17C63.0639 535.17 62.5071 535.048 61.9616 534.804C61.4219 534.56 60.973 534.188 60.6151 533.688C60.2628 533.188 60.0866 532.557 60.0866 531.795V518.773ZM69.2145 539.909C68.8736 539.909 68.5696 539.881 68.3026 539.824C68.0355 539.773 67.8509 539.722 67.7486 539.67L68.2599 537.898C68.7486 538.023 69.1804 538.068 69.5554 538.034C69.9304 538 70.2628 537.832 70.5526 537.531C70.848 537.236 71.1179 536.756 71.3622 536.091L71.7372 535.068L66.8963 521.909H69.0781L72.6918 532.341H72.8281L76.4418 521.909H78.6236L73.0668 536.909C72.8168 537.585 72.5071 538.145 72.1378 538.588C71.7685 539.037 71.3395 539.369 70.8509 539.585C70.3679 539.801 69.8224 539.909 69.2145 539.909ZM83.2898 517.545V535H81.2784V517.545H83.2898ZM92.4624 535.273C91.201 535.273 90.1129 534.994 89.1982 534.438C88.2891 533.875 87.5874 533.091 87.093 532.085C86.6044 531.074 86.3601 529.898 86.3601 528.557C86.3601 527.216 86.6044 526.034 87.093 525.011C87.5874 523.983 88.2749 523.182 89.1555 522.608C90.0419 522.028 91.076 521.739 92.2578 521.739C92.9396 521.739 93.6129 521.852 94.2777 522.08C94.9425 522.307 95.5476 522.676 96.093 523.188C96.6385 523.693 97.0732 524.364 97.397 525.199C97.7209 526.034 97.8828 527.062 97.8828 528.284V529.136H87.7919V527.398H95.8374C95.8374 526.659 95.6896 526 95.3942 525.42C95.1044 524.841 94.6896 524.384 94.1499 524.048C93.6158 523.713 92.9851 523.545 92.2578 523.545C91.4567 523.545 90.7635 523.744 90.1783 524.142C89.5987 524.534 89.1527 525.045 88.8402 525.676C88.5277 526.307 88.3714 526.983 88.3714 527.705V528.864C88.3714 529.852 88.5419 530.69 88.8828 531.378C89.2294 532.06 89.7095 532.58 90.3232 532.938C90.9368 533.29 91.6499 533.466 92.4624 533.466C92.9908 533.466 93.468 533.392 93.8942 533.244C94.326 533.091 94.6982 532.864 95.0107 532.562C95.3232 532.256 95.5646 531.875 95.7351 531.42L97.6783 531.966C97.4737 532.625 97.13 533.205 96.647 533.705C96.1641 534.199 95.5675 534.585 94.8572 534.864C94.147 535.136 93.3487 535.273 92.4624 535.273ZM112.499 528.864L101.522 534.455V532.273L109.942 528.216L109.874 528.352V528.011L109.942 528.148L101.522 524.091V521.909L112.499 527.5V528.864Z" fill="black"/>
<path d="M38.8128 5.0201L39.0655 3.68008L50.8887 0.220177L50.4844 2.36421L41.458 4.79039L41.5503 4.66902L41.4871 5.00402L41.4454 4.85739L48.9682 10.4043L48.5639 12.5484L38.8128 5.0201ZM63.6472 5.60959L61.7769 5.77728C61.721 5.4603 61.6105 5.14169 61.4454 4.82146C61.287 4.4967 61.0408 4.20744 60.7071 3.9537C60.3733 3.69996 59.9189 3.51886 59.3438 3.41041C58.5565 3.26196 57.8663 3.3197 57.273 3.58366C56.6864 3.84307 56.3409 4.24916 56.2367 4.80192C56.144 5.29326 56.2495 5.715 56.5532 6.06714C56.8568 6.41928 57.3704 6.76186 58.0939 7.09489L59.915 7.92399C61.0126 8.42005 61.7891 9.0088 62.2445 9.69023C62.7011 10.3661 62.8446 11.1535 62.6751 12.0524C62.5361 12.7894 62.1997 13.4082 61.6658 13.9089C61.1376 14.4106 60.465 14.7579 59.6481 14.9508C58.8311 15.1436 57.9229 15.1458 56.9235 14.9574C55.6114 14.7099 54.5791 14.2204 53.8267 13.4887C53.0742 12.7571 52.6867 11.8225 52.6642 10.685L54.6286 10.5697C54.6768 11.2958 54.9166 11.8787 55.3483 12.3186C55.7855 12.7595 56.4089 13.0563 57.2185 13.209C58.1398 13.3827 58.9081 13.3253 59.5233 13.0365C60.1453 12.7433 60.5084 12.3203 60.6126 11.7675C60.6968 11.3209 60.611 10.9173 60.3552 10.5568C60.1005 10.1908 59.6634 9.87132 59.0442 9.59843L56.9949 8.69162C55.8695 8.19029 55.0856 7.59438 54.6434 6.90388C54.2079 6.20886 54.0738 5.41746 54.2412 4.5297C54.3781 3.80386 54.703 3.2002 55.2158 2.71872C55.7343 2.23829 56.3781 1.9058 57.1472 1.72127C57.9219 1.53778 58.7615 1.53132 59.666 1.70189C60.939 1.94195 61.8858 2.40959 62.5063 3.1048C63.1325 3.80107 63.5128 4.636 63.6472 5.60959ZM72.9948 4.38882L72.6789 6.06384L66.0123 4.8067L66.3282 3.13167L72.9948 4.38882ZM68.8524 0.416034L70.829 0.788756L68.5168 13.0499C68.4115 13.6083 68.4135 14.0423 68.5228 14.352C68.6387 14.6572 68.8161 14.8814 69.0551 15.0248C69.3007 15.1636 69.5686 15.2604 69.8589 15.3151C70.0767 15.3562 70.2575 15.3787 70.4013 15.3827C70.5461 15.3811 70.662 15.3798 70.7489 15.3789L70.8161 17.2302C70.6726 17.2552 70.4761 17.2702 70.2265 17.2752C69.9759 17.2857 69.6664 17.2563 69.2979 17.1868C68.7395 17.0815 68.215 16.8582 67.7242 16.5171C67.2391 16.177 66.867 15.7281 66.6079 15.1704C66.3543 14.6138 66.2981 13.9614 66.4392 13.2132L68.8524 0.416034ZM73.9054 22.8778C73.5704 22.8146 73.277 22.7304 73.0251 22.6251C72.7722 22.5253 72.6002 22.4408 72.5091 22.3716L73.3402 20.7244C73.7972 20.9378 74.2131 21.0624 74.5879 21.0984C74.9627 21.1344 75.3204 21.0313 75.661 20.7891C76.0061 20.5535 76.3602 20.1317 76.7235 19.5237L77.2815 18.5882L74.963 4.75996L77.107 5.16427L78.7249 16.0851L78.8589 16.1103L84.3431 6.52881L86.4871 6.93312L78.2469 20.6436C77.876 21.2617 77.468 21.7543 77.0229 22.1214C76.5768 22.494 76.0937 22.7411 75.5735 22.8628C75.0589 22.9854 74.5029 22.9904 73.9054 22.8778ZM91.8811 3.50974L88.6466 20.662L86.6701 20.2893L89.9046 3.13702L91.8811 3.50974ZM97.6098 22.6297C96.3703 22.396 95.3527 21.9208 94.5569 21.2041C93.7678 20.4829 93.2236 19.5823 92.9242 18.5025C92.6314 17.4181 92.6093 16.217 92.8578 14.8994C93.1062 13.5817 93.5653 12.4656 94.235 11.5511C94.9114 10.6321 95.7354 9.97227 96.7072 9.57154C97.6856 9.16628 98.7555 9.07315 99.9168 9.29215C100.587 9.4185 101.227 9.65493 101.839 10.0015C102.45 10.348 102.976 10.823 103.417 11.4266C103.859 12.0246 104.162 12.764 104.326 13.6448C104.489 14.5256 104.458 15.5662 104.231 16.7666L104.074 17.6041L94.1574 15.7342L94.4796 14.0257L102.386 15.5165C102.523 14.7907 102.5 14.1157 102.317 13.4914C102.139 12.8682 101.816 12.3419 101.348 11.9124C100.885 11.484 100.297 11.2024 99.582 11.0677C98.7947 10.9192 98.0767 10.9862 97.4279 11.2686C96.7857 11.5464 96.2527 11.9663 95.8287 12.5281C95.4048 13.09 95.1259 13.7255 94.9922 14.4346L94.7774 15.5736C94.5942 16.5451 94.6064 17.4002 94.814 18.139C95.0283 18.8732 95.4037 19.4731 95.9404 19.9385C96.4781 20.3984 97.1462 20.7037 97.9446 20.8542C98.4639 20.9521 98.9466 20.968 99.3927 20.9018C99.8455 20.8311 100.253 20.6767 100.616 20.4387C100.98 20.1951 101.288 19.8657 101.54 19.4507L103.348 20.3467C103.025 20.9565 102.58 21.4623 102.013 21.8642C101.446 22.2604 100.789 22.5296 100.039 22.6715C99.2906 22.8079 98.4808 22.794 97.6098 22.6297ZM118.487 20.0447L106.664 23.5046L107.069 21.3605L116.095 18.9344L116.003 19.0557L116.066 18.7207L116.108 18.8674L108.585 13.3204L108.989 11.1764L118.74 18.7046L118.487 20.0447Z" fill="black"/>
<path d="M158.161 316.202L157.937 314.857L167.845 307.537L168.204 309.689L160.565 315.076L160.61 314.93L160.666 315.266L160.576 315.143L169.549 317.76L169.908 319.912L158.161 316.202ZM181.679 308.203L179.981 309.004C179.819 308.726 179.606 308.465 179.341 308.221C179.08 307.971 178.749 307.784 178.349 307.661C177.948 307.538 177.459 307.524 176.882 307.62C176.091 307.752 175.463 308.044 174.997 308.496C174.536 308.942 174.351 309.442 174.444 309.997C174.526 310.49 174.77 310.85 175.177 311.076C175.583 311.302 176.183 311.446 176.977 311.51L178.972 311.661C180.174 311.749 181.105 312.034 181.768 312.517C182.429 312.994 182.835 313.684 182.985 314.586C183.109 315.326 183.006 316.023 182.677 316.677C182.354 317.33 181.842 317.887 181.142 318.35C180.441 318.812 179.589 319.127 178.586 319.294C177.269 319.514 176.131 319.41 175.173 318.982C174.215 318.554 173.529 317.81 173.116 316.75L174.921 315.966C175.216 316.631 175.642 317.095 176.199 317.36C176.761 317.623 177.448 317.687 178.261 317.551C179.186 317.397 179.887 317.079 180.365 316.596C180.848 316.106 181.043 315.584 180.951 315.029C180.876 314.581 180.657 314.231 180.292 313.981C179.927 313.725 179.407 313.576 178.731 313.533L176.495 313.387C175.266 313.304 174.325 313.015 173.672 312.519C173.024 312.016 172.625 311.32 172.477 310.428C172.355 309.7 172.452 309.021 172.768 308.393C173.089 307.763 173.579 307.229 174.238 306.791C174.902 306.352 175.688 306.057 176.596 305.905C177.873 305.692 178.923 305.805 179.745 306.244C180.573 306.682 181.218 307.335 181.679 308.203ZM190.034 303.837L190.315 305.519L183.623 306.634L183.343 304.953L190.034 303.837ZM184.777 301.534L186.761 301.203L188.813 313.511C188.907 314.071 189.058 314.478 189.267 314.731C189.481 314.978 189.725 315.127 189.999 315.179C190.277 315.225 190.562 315.224 190.853 315.175C191.072 315.139 191.249 315.098 191.386 315.052C191.521 315.001 191.63 314.959 191.711 314.929L192.412 316.644C192.286 316.716 192.106 316.798 191.874 316.889C191.642 316.985 191.341 317.064 190.971 317.126C190.411 317.219 189.842 317.19 189.263 317.039C188.691 316.887 188.187 316.593 187.751 316.159C187.322 315.724 187.044 315.131 186.919 314.38L184.777 301.534ZM197.257 320.882C196.921 320.938 196.616 320.96 196.343 320.948C196.072 320.941 195.881 320.921 195.772 320.887L195.985 319.055C196.487 319.098 196.921 319.071 197.285 318.976C197.649 318.881 197.949 318.661 198.186 318.316C198.429 317.976 198.616 317.458 198.748 316.762L198.949 315.692L192.01 303.508L194.162 303.149L199.442 312.845L199.577 312.822L201.425 301.938L203.578 301.579L200.563 317.289C200.428 317.997 200.215 318.6 199.923 319.098C199.633 319.601 199.264 320 198.818 320.293C198.377 320.585 197.857 320.782 197.257 320.882ZM207.463 296.508L210.333 313.724L208.349 314.055L205.479 296.838L207.463 296.508ZM219.426 312.485C218.182 312.692 217.063 312.597 216.069 312.198C215.079 311.793 214.258 311.135 213.605 310.224C212.957 309.307 212.523 308.187 212.302 306.864C212.082 305.541 212.128 304.335 212.442 303.246C212.76 302.151 213.307 301.247 214.081 300.536C214.86 299.819 215.832 299.363 216.998 299.169C217.671 299.057 218.353 299.058 219.047 299.173C219.74 299.288 220.397 299.552 221.019 299.967C221.641 300.376 222.18 300.966 222.636 301.737C223.093 302.507 223.422 303.495 223.623 304.7L223.763 305.541L213.81 307.2L213.524 305.485L221.46 304.162C221.338 303.433 221.084 302.808 220.697 302.285C220.316 301.761 219.832 301.378 219.244 301.136C218.662 300.893 218.013 300.831 217.295 300.951C216.505 301.083 215.854 301.393 215.342 301.881C214.835 302.363 214.479 302.941 214.275 303.615C214.07 304.288 214.027 304.981 214.146 305.693L214.336 306.836C214.499 307.811 214.805 308.61 215.254 309.232C215.708 309.847 216.267 310.281 216.932 310.533C217.595 310.78 218.327 310.836 219.129 310.703C219.65 310.616 220.108 310.464 220.504 310.249C220.905 310.026 221.235 309.741 221.494 309.392C221.751 309.038 221.927 308.623 222.02 308.147L224.027 308.365C223.933 309.049 223.69 309.677 223.296 310.25C222.9 310.817 222.376 311.296 221.721 311.687C221.065 312.073 220.3 312.339 219.426 312.485ZM238.136 302.868L228.227 310.188L227.869 308.036L235.507 302.649L235.462 302.795L235.406 302.459L235.496 302.582L226.523 299.965L226.164 297.813L237.911 301.523L238.136 302.868Z" fill="black"/>
<path d="M251.021 10.8057L252.047 9.90843L263.481 14.4955L261.838 15.9312L253.242 12.26L253.39 12.2216L253.133 12.4459L253.191 12.3048L255.677 21.3149L254.034 22.7506L251.021 10.8057ZM258.732 29.4226C258.186 28.798 257.809 28.1283 257.599 27.4135C257.394 26.695 257.385 25.9897 257.572 25.2977C257.764 24.6019 258.181 23.9736 258.823 23.4128C259.388 22.9193 259.943 22.6305 260.488 22.5464C261.037 22.4585 261.575 22.5129 262.102 22.7094C262.628 22.9059 263.137 23.1858 263.628 23.549C264.127 23.9128 264.606 24.2974 265.066 24.7029C265.666 25.2346 266.148 25.6697 266.512 26.0083C266.884 26.3474 267.194 26.5595 267.442 26.6447C267.694 26.7341 267.941 26.6723 268.185 26.4592L268.237 26.4143C268.87 25.861 269.21 25.2577 269.258 24.6046C269.31 23.9558 269.031 23.2826 268.422 22.5853C267.79 21.8622 267.136 21.4336 266.461 21.2996C265.785 21.1655 265.195 21.1721 264.69 21.3192L263.947 19.433C264.77 19.1663 265.536 19.1011 266.243 19.2373C266.959 19.3741 267.605 19.6391 268.183 20.0323C268.769 20.4261 269.278 20.8711 269.712 21.3674C269.989 21.6841 270.268 22.0814 270.55 22.5594C270.84 23.038 271.037 23.5707 271.143 24.1577C271.252 24.7489 271.186 25.3766 270.944 26.0409C270.701 26.7051 270.189 27.3793 269.406 28.0635L262.911 33.7388L261.588 32.2242L262.923 31.0578L262.855 30.9807C262.552 31.065 262.173 31.0939 261.72 31.0674C261.267 31.0409 260.781 30.9035 260.262 30.6551C259.743 30.4068 259.233 29.9959 258.732 29.4226ZM260.295 28.4648C260.818 29.0638 261.377 29.4658 261.971 29.6709C262.569 29.8803 263.146 29.9272 263.701 29.8115C264.26 29.7002 264.745 29.4651 265.156 29.1062L266.542 27.8948C266.409 27.8979 266.215 27.8184 265.96 27.6563C265.714 27.4947 265.443 27.2933 265.149 27.0521C264.864 26.8114 264.588 26.5733 264.322 26.338C264.064 26.1031 263.853 25.9138 263.689 25.7699C263.294 25.4212 262.889 25.1261 262.475 24.8848C262.068 24.644 261.66 24.5178 261.25 24.5063C260.848 24.4954 260.454 24.6582 260.069 24.9946C259.543 25.4545 259.315 25.9969 259.386 26.6217C259.465 27.2472 259.768 27.8615 260.295 28.4648ZM277.552 41.1678L266.119 36.5807L267.762 35.1451L276.358 38.8163L276.21 38.8547L276.467 38.6304L276.409 38.7714L273.923 29.7613L275.566 28.3257L278.579 40.2705L277.552 41.1678Z" fill="black"/>
<path d="M209.687 400.761L208.991 399.588L215.579 389.179L216.692 391.055L211.52 398.841L211.509 398.689L211.683 398.982L211.555 398.899L220.867 398.092L221.98 399.968L209.687 400.761ZM229.395 396.56C228.681 396.983 227.954 397.233 227.213 397.309C226.469 397.38 225.774 397.261 225.128 396.951C224.478 396.636 223.936 396.112 223.501 395.379C223.119 394.734 222.935 394.136 222.952 393.584C222.965 393.028 223.116 392.509 223.405 392.027C223.694 391.545 224.062 391.096 224.508 390.679C224.956 390.254 225.422 389.853 225.904 389.474C226.536 388.98 227.051 388.585 227.45 388.289C227.851 387.985 228.116 387.719 228.245 387.49C228.379 387.259 228.363 387.004 228.198 386.726L228.163 386.667C227.734 385.944 227.203 385.499 226.569 385.333C225.94 385.165 225.228 385.317 224.431 385.789C223.605 386.279 223.065 386.844 222.811 387.484C222.556 388.124 222.455 388.706 222.508 389.229L220.519 389.617C220.406 388.759 220.481 387.994 220.743 387.323C221.008 386.644 221.386 386.057 221.877 385.56C222.371 385.056 222.901 384.636 223.468 384.299C223.83 384.085 224.271 383.882 224.792 383.692C225.316 383.494 225.875 383.396 226.472 383.399C227.073 383.399 227.678 383.579 228.287 383.937C228.897 384.296 229.467 384.922 229.997 385.816L234.398 393.234L232.668 394.26L231.764 392.736L231.676 392.788C231.704 393.102 231.663 393.479 231.555 393.92C231.447 394.361 231.223 394.814 230.885 395.279C230.546 395.744 230.05 396.171 229.395 396.56ZM228.737 394.849C229.421 394.443 229.918 393.967 230.227 393.42C230.542 392.87 230.693 392.311 230.68 391.744C230.672 391.174 230.529 390.654 230.25 390.185L229.311 388.602C229.29 388.733 229.177 388.91 228.971 389.131C228.767 389.344 228.52 389.573 228.229 389.819C227.941 390.056 227.657 390.284 227.377 390.503C227.099 390.714 226.874 390.887 226.703 391.021C226.289 391.347 225.925 391.691 225.612 392.055C225.302 392.411 225.103 392.79 225.018 393.191C224.934 393.584 225.022 394.001 225.283 394.44C225.64 395.042 226.132 395.364 226.759 395.408C227.389 395.444 228.048 395.258 228.737 394.849ZM244.363 380.186L237.776 390.596L236.662 388.72L241.834 380.934L241.845 381.086L241.671 380.793L241.799 380.875L232.487 381.683L231.374 379.807L243.667 379.013L244.363 380.186Z" fill="black"/>
<path d="M0.164946 311.461L1.2174 310.594L12.5125 315.511L10.8286 316.899L2.34328 312.979L2.49188 312.945L2.22876 313.162L2.29065 313.023L4.51386 322.101L2.82993 323.489L0.164946 311.461ZM7.33267 330.294C6.8052 329.654 6.44708 328.974 6.25834 328.253C6.07398 327.529 6.08558 326.824 6.29313 326.137C6.50506 325.447 6.93992 324.831 7.59771 324.29C8.17656 323.813 8.73971 323.54 9.28717 323.472C9.83901 323.4 10.3751 323.47 10.8956 323.682C11.416 323.893 11.9163 324.188 12.3965 324.565C12.8847 324.943 13.3528 325.342 13.8008 325.76C14.3855 326.309 14.8548 326.758 15.2086 327.107C15.5704 327.457 15.8739 327.678 16.1193 327.77C16.3683 327.867 16.6178 327.812 16.8677 327.607L16.9204 327.563C17.5694 327.028 17.9274 326.435 17.9943 325.784C18.0649 325.137 17.8057 324.456 17.2168 323.741C16.6062 323 15.9653 322.553 15.2939 322.399C14.6226 322.245 14.0323 322.235 13.523 322.367L12.8353 320.46C13.666 320.218 14.433 320.175 15.1364 320.331C15.8477 320.489 16.4863 320.772 17.0522 321.182C17.6261 321.593 18.1225 322.053 18.5416 322.561C18.809 322.886 19.0766 323.291 19.3445 323.777C19.6204 324.264 19.8025 324.802 19.8909 325.392C19.9829 325.986 19.8982 326.612 19.637 327.268C19.3758 327.925 18.8439 328.584 18.0414 329.246L11.3847 334.73L10.1057 333.178L11.4739 332.05L11.4089 331.971C11.1029 332.047 10.7238 332.065 10.2715 332.025C9.81922 331.985 9.33737 331.834 8.82597 331.571C8.31456 331.307 7.8168 330.882 7.33267 330.294ZM8.92227 329.382C9.42807 329.996 9.97499 330.414 10.563 330.636C11.1546 330.863 11.7297 330.927 12.2883 330.827C12.8504 330.732 13.342 330.511 13.763 330.164L15.1838 328.994C15.0507 328.993 14.8591 328.908 14.6091 328.739C14.367 328.57 14.1027 328.361 13.816 328.111C13.5373 327.862 13.2684 327.616 13.0093 327.373C12.7582 327.131 12.5531 326.936 12.3939 326.787C12.0089 326.427 11.6127 326.12 11.2052 325.867C10.8058 325.614 10.4014 325.477 9.99191 325.453C9.59046 325.43 9.1924 325.582 8.79773 325.907C8.25834 326.351 8.0149 326.887 8.0674 327.513C8.1279 328.141 8.41286 328.764 8.92227 329.382ZM25.8036 342.581L14.5085 337.664L16.1924 336.276L24.6778 340.196L24.5292 340.23L24.7923 340.013L24.7304 340.152L22.5072 331.074L24.1911 329.687L26.8561 341.714L25.8036 342.581Z" fill="black"/>
<path d="M193.003 49.4835L193.214 48.4829L202.136 46.083L201.798 47.684L194.99 49.3548L195.061 49.2653L195.008 49.5154L194.979 49.4048L200.529 53.6877L200.191 55.2887L193.003 49.4835ZM203.234 56.3502L205.265 46.7443L206.741 47.0562L204.71 56.6622L203.234 56.3502ZM206.354 45.3019C206.066 45.2411 205.839 45.0907 205.672 44.8507C205.509 44.6115 205.456 44.3544 205.515 44.0792C205.573 43.804 205.725 43.5901 205.97 43.4373C206.22 43.2854 206.489 43.2399 206.777 43.3007C207.064 43.3615 207.29 43.5114 207.453 43.7506C207.62 43.9906 207.674 44.2482 207.616 44.5234C207.558 44.7985 207.404 45.0121 207.154 45.164C206.908 45.3167 206.641 45.3627 206.354 45.3019ZM210.111 51.767L208.889 57.5455L207.414 57.2336L209.444 47.6276L210.87 47.929L210.553 49.4299L210.678 49.4564C211.006 49.0162 211.431 48.6965 211.952 48.4975C212.474 48.2942 213.098 48.2693 213.823 48.4226C214.474 48.5601 215.014 48.8138 215.446 49.1837C215.878 49.5495 216.173 50.0299 216.33 50.6251C216.488 51.216 216.481 51.9201 216.308 52.7372L215.018 58.841L213.542 58.529L214.811 52.5253C214.971 51.7707 214.899 51.1414 214.596 50.6375C214.294 50.1294 213.801 49.8031 213.118 49.6585C212.647 49.5589 212.204 49.5721 211.79 49.6979C211.38 49.8247 211.027 50.0615 210.731 50.4085C210.436 50.7555 210.229 51.2083 210.111 51.767ZM216.954 63.0133L219.746 49.8051L221.172 50.1065L220.849 51.6325L221.024 51.6695C221.168 51.5256 221.363 51.3447 221.609 51.1268C221.861 50.9055 222.189 50.7311 222.595 50.6035C223.006 50.4726 223.524 50.4732 224.15 50.6054C224.959 50.7764 225.629 51.1293 226.16 51.6641C226.692 52.199 227.052 52.874 227.242 53.6893C227.431 54.5046 227.419 55.4167 227.205 56.4256C226.99 57.4429 226.631 58.2881 226.127 58.9613C225.624 59.6303 225.023 60.1043 224.324 60.3833C223.626 60.6582 222.876 60.711 222.076 60.5418C221.459 60.4114 220.986 60.2048 220.658 59.9221C220.331 59.6352 220.095 59.3393 219.951 59.0343C219.807 58.7252 219.7 58.4716 219.628 58.2736L219.503 58.2471L218.43 63.3253L216.954 63.0133ZM220.181 54.9148C220.028 55.6402 219.999 56.3027 220.094 56.9021C220.191 57.4974 220.41 57.9946 220.753 58.3937C221.096 58.7885 221.564 59.0486 222.156 59.1737C222.773 59.3041 223.322 59.2504 223.804 59.0124C224.29 58.7712 224.696 58.3953 225.022 57.8849C225.353 57.3711 225.59 56.7724 225.735 56.0886C225.878 55.4132 225.902 54.7825 225.808 54.1964C225.719 53.6071 225.5 53.1099 225.15 52.7049C224.805 52.2966 224.32 52.0264 223.694 51.8942C223.094 51.7673 222.557 51.8128 222.085 52.0308C221.613 52.2446 221.215 52.6005 220.892 53.0985C220.57 53.5922 220.333 54.1977 220.181 54.9148ZM235.331 59.0316L236.531 53.3531L238.007 53.6651L235.977 63.271L234.501 62.9591L234.844 61.3331L234.744 61.3119C234.416 61.7521 233.978 62.0929 233.431 62.3343C232.884 62.5716 232.248 62.6135 231.522 62.4602C230.922 62.3333 230.416 62.0892 230.005 61.7278C229.594 61.3623 229.312 60.8845 229.158 60.2944C229.005 59.7002 229.014 58.9945 229.187 58.1773L230.477 52.0735L231.953 52.3855L230.684 58.3892C230.536 59.0896 230.614 59.6897 230.918 60.1895C231.226 60.6901 231.686 61.0052 232.299 61.1348C232.666 61.2123 233.059 61.1974 233.478 61.09C233.901 60.9834 234.283 60.7636 234.623 60.4305C234.968 60.0983 235.204 59.632 235.331 59.0316ZM244.888 55.1195L244.623 56.3703L239.645 55.3181L239.91 54.0673L244.888 55.1195ZM241.847 52.0725L243.323 52.3845L241.388 61.5402C241.3 61.9571 241.294 62.2826 241.371 62.5166C241.453 62.7473 241.582 62.9184 241.759 63.0298C241.941 63.1379 242.14 63.2149 242.357 63.2607C242.519 63.2951 242.655 63.315 242.762 63.3203C242.871 63.3215 242.958 63.3225 243.023 63.3232L243.043 64.7124C242.935 64.7288 242.787 64.7368 242.6 64.7364C242.412 64.7402 242.181 64.7131 241.905 64.6549C241.488 64.5668 241.099 64.3908 240.736 64.1269C240.378 63.8639 240.107 63.5212 239.921 63.0988C239.741 62.6772 239.709 62.1871 239.827 61.6285L241.847 52.0725ZM254.509 62.4845L245.587 64.8844L245.926 63.2834L252.734 61.6126L252.663 61.7021L252.715 61.4519L252.744 61.5626L247.195 57.2797L247.533 55.6787L254.721 61.4838L254.509 62.4845Z" fill="black"/>
<path d="M29.3578 370.529L29.2107 369.632L35.8292 364.769L36.0646 366.205L30.9626 369.782L30.9928 369.685L31.0295 369.909L30.97 369.827L36.9473 371.587L37.1827 373.023L29.3578 370.529ZM40.0464 372.921L38.6341 364.309L39.9573 364.092L41.3696 372.704L40.0464 372.921ZM39.0715 362.763C38.8136 362.806 38.5768 362.754 38.3611 362.609C38.1491 362.464 38.0229 362.268 37.9824 362.021C37.942 361.774 37.9989 361.548 38.1533 361.342C38.3113 361.136 38.5193 361.012 38.7773 360.969C39.0352 360.927 39.2701 360.979 39.4821 361.124C39.6978 361.269 39.8259 361.465 39.8663 361.712C39.9068 361.959 39.848 362.185 39.6899 362.391C39.5356 362.597 39.3294 362.721 39.0715 362.763ZM44.2668 366.909L45.1164 372.09L43.7932 372.307L42.3809 363.695L43.6593 363.485L43.8799 364.831L43.9921 364.812C44.1222 364.342 44.3711 363.94 44.7388 363.607C45.1058 363.271 45.6145 363.049 46.2649 362.943C46.848 362.847 47.3779 362.883 47.8545 363.05C48.3304 363.214 48.7294 363.517 49.0515 363.96C49.3729 364.398 49.5937 364.984 49.7138 365.717L50.6112 371.189L49.288 371.406L48.4053 366.023C48.2943 365.347 48.0322 364.848 47.6189 364.529C47.2051 364.205 46.6916 364.093 46.0786 364.194C45.6562 364.263 45.2937 364.417 44.991 364.654C44.6921 364.891 44.4762 365.201 44.3432 365.584C44.2101 365.967 44.1847 366.408 44.2668 366.909ZM53.5588 374.022L51.6169 362.18L52.8953 361.97L53.1196 363.339L53.2766 363.313C53.3493 363.147 53.4526 362.935 53.5865 362.675C53.7236 362.41 53.9397 362.16 54.2349 361.924C54.5332 361.683 54.9627 361.516 55.5234 361.424C56.2485 361.305 56.9174 361.382 57.5301 361.654C58.1428 361.926 58.6588 362.369 59.0782 362.983C59.4975 363.598 59.7814 364.357 59.9297 365.262C60.0793 366.174 60.0538 366.99 59.8533 367.71C59.6522 368.426 59.3069 369.012 58.8175 369.469C58.3275 369.922 57.7236 370.207 57.0059 370.324C56.4527 370.415 55.9947 370.396 55.632 370.268C55.2687 370.135 54.978 369.966 54.76 369.76C54.5413 369.55 54.3705 369.375 54.2476 369.234L54.1355 369.252L54.8821 373.805L53.5588 374.022ZM53.6239 366.273C53.7305 366.923 53.9199 367.481 54.1921 367.947C54.4636 368.41 54.8056 368.751 55.2179 368.971C55.6295 369.188 56.1008 369.252 56.6316 369.165C57.1848 369.075 57.6225 368.853 57.9448 368.501C58.2701 368.144 58.4855 367.702 58.5909 367.174C58.6994 366.642 58.7033 366.069 58.6028 365.456C58.5035 364.851 58.3206 364.32 58.054 363.865C57.7905 363.406 57.4486 363.064 57.0282 362.842C56.611 362.614 56.122 362.547 55.5613 362.639C55.023 362.727 54.5931 362.938 54.2715 363.271C53.9493 363.6 53.7347 364.023 53.6274 364.539C53.5196 365.052 53.5184 365.63 53.6239 366.273ZM67.5008 364.803L66.6659 359.712L67.9891 359.495L69.4014 368.107L68.0782 368.324L67.8391 366.867L67.7494 366.881C67.6193 367.352 67.3663 367.775 66.9904 368.152C66.614 368.524 66.1005 368.764 65.4501 368.871C64.9119 368.959 64.4141 368.92 63.9568 368.753C63.4989 368.582 63.1112 368.277 62.7935 367.838C62.4752 367.395 62.2559 366.807 62.1358 366.075L61.2384 360.602L62.5616 360.385L63.4443 365.768C63.5473 366.396 63.8051 366.868 64.2178 367.184C64.6342 367.5 65.1171 367.612 65.6666 367.522C65.9955 367.468 66.3163 367.329 66.6289 367.105C66.9452 366.881 67.1907 366.576 67.3655 366.19C67.5439 365.804 67.589 365.342 67.5008 364.803ZM74.1581 358.484L74.342 359.605L69.8789 360.337L69.695 359.215L74.1581 358.484ZM70.6575 356.939L71.9807 356.722L73.3268 364.93C73.3881 365.304 73.4883 365.576 73.6273 365.745C73.7695 365.91 73.9318 366.01 74.1141 366.045C74.2996 366.076 74.4896 366.075 74.6839 366.044C74.8297 366.02 74.9481 365.993 75.0391 365.962C75.1295 365.928 75.2018 365.901 75.256 365.881L75.7201 367.025C75.6359 367.074 75.5162 367.128 75.361 367.188C75.2064 367.251 75.0057 367.304 74.759 367.344C74.3852 367.405 74.0057 367.385 73.6205 367.283C73.2391 367.181 72.9036 366.984 72.6142 366.694C72.3285 366.403 72.1446 366.007 72.0624 365.506L70.6575 356.939ZM84.5019 361.486L77.8833 366.348L77.648 364.913L82.7499 361.335L82.7198 361.432L82.683 361.208L82.7426 361.29L76.7653 359.53L76.5299 358.095L84.3548 360.588L84.5019 361.486Z" fill="black"/>
<path d="M159.416 396.478L160.076 395.552L170.229 397.069L169.174 398.55L161.498 397.229L161.61 397.169L161.445 397.401L161.465 397.275L165.216 404.101L164.16 405.582L159.416 396.478ZM166.789 408.015L173.122 399.132L174.487 400.105L168.154 408.988L166.789 408.015ZM174.872 398.146C174.606 397.957 174.441 397.703 174.377 397.384C174.318 397.068 174.378 396.783 174.56 396.528C174.741 396.274 174.991 396.124 175.309 396.077C175.631 396.033 175.925 396.106 176.191 396.296C176.457 396.486 176.62 396.738 176.68 397.054C176.743 397.373 176.684 397.659 176.503 397.914C176.321 398.168 176.07 398.317 175.748 398.361C175.43 398.408 175.138 398.336 174.872 398.146ZM175.828 406.4L172.018 411.743L170.653 410.77L176.987 401.887L178.305 402.827L177.316 404.215L177.431 404.298C177.961 403.995 178.536 403.858 179.155 403.887C179.777 403.912 180.423 404.163 181.094 404.641C181.695 405.07 182.134 405.569 182.409 406.137C182.687 406.702 182.774 407.322 182.67 407.998C182.568 408.67 182.248 409.384 181.71 410.14L177.685 415.784L176.321 414.811L180.279 409.259C180.776 408.561 180.983 407.888 180.898 407.241C180.816 406.589 180.459 406.038 179.827 405.587C179.391 405.276 178.934 405.093 178.456 405.038C177.982 404.985 177.518 405.069 177.063 405.291C176.608 405.514 176.196 405.883 175.828 406.4ZM177.804 420.893L186.512 408.679L187.831 409.619L186.825 411.03L186.987 411.146C187.197 411.063 187.476 410.965 187.824 410.853C188.178 410.739 188.59 410.707 189.06 410.758C189.537 410.807 190.065 411.037 190.643 411.45C191.391 411.983 191.917 412.64 192.221 413.421C192.525 414.202 192.592 415.049 192.423 415.964C192.253 416.878 191.836 417.802 191.171 418.735C190.5 419.675 189.759 420.377 188.947 420.839C188.138 421.297 187.315 421.513 186.479 421.486C185.646 421.456 184.859 421.177 184.119 420.65C183.548 420.243 183.158 419.823 182.95 419.389C182.744 418.952 182.636 418.545 182.624 418.171C182.615 417.792 182.618 417.486 182.633 417.253L182.517 417.17L179.169 421.866L177.804 420.893ZM184.688 414.077C184.209 414.748 183.886 415.41 183.717 416.063C183.55 416.712 183.553 417.316 183.725 417.874C183.899 418.429 184.26 418.901 184.808 419.292C185.378 419.698 185.961 419.888 186.558 419.859C187.16 419.829 187.741 419.627 188.299 419.251C188.864 418.875 189.372 418.371 189.823 417.738C190.268 417.114 190.573 416.482 190.738 415.844C190.909 415.204 190.906 414.6 190.729 414.032C190.559 413.463 190.185 412.973 189.607 412.56C189.052 412.164 188.485 411.973 187.906 411.985C187.331 411.993 186.768 412.179 186.218 412.543C185.67 412.902 185.16 413.414 184.688 414.077ZM198.29 424.997L202.034 419.746L203.399 420.719L197.065 429.601L195.701 428.628L196.773 427.125L196.68 427.059C196.15 427.361 195.553 427.514 194.888 427.517C194.226 427.516 193.559 427.276 192.889 426.798C192.333 426.402 191.927 425.929 191.668 425.378C191.412 424.823 191.337 424.211 191.442 423.542C191.55 422.869 191.873 422.154 192.412 421.399L196.436 415.755L197.801 416.728L193.842 422.279C193.381 422.927 193.194 423.573 193.281 424.217C193.372 424.863 193.701 425.389 194.268 425.793C194.607 426.035 195.014 426.194 195.489 426.271C195.967 426.35 196.454 426.296 196.948 426.107C197.447 425.922 197.894 425.552 198.29 424.997ZM209.761 425.255L208.937 426.412L204.333 423.13L205.158 421.973L209.761 425.255ZM208.017 420.802L209.382 421.775L203.345 430.241C203.071 430.627 202.92 430.956 202.895 431.228C202.876 431.499 202.931 431.731 203.062 431.923C203.199 432.114 203.368 432.281 203.569 432.424C203.719 432.531 203.848 432.611 203.955 432.665C204.065 432.714 204.153 432.754 204.219 432.783L203.623 434.207C203.506 434.176 203.352 434.118 203.161 434.035C202.968 433.955 202.744 433.825 202.49 433.643C202.104 433.368 201.785 433.016 201.534 432.587C201.285 432.16 201.161 431.69 201.16 431.177C201.163 430.668 201.348 430.155 201.717 429.638L208.017 420.802ZM216.291 437.029L206.138 435.512L207.194 434.031L214.87 435.352L214.757 435.412L214.922 435.181L214.903 435.306L211.152 428.48L212.207 426.999L216.951 436.104L216.291 437.029Z" fill="black"/>
<path d="M109.235 139.03L109.419 137.908L119.2 134.79L118.906 136.584L111.434 138.786L111.509 138.683L111.463 138.963L111.425 138.842L117.803 143.313L117.509 145.107L109.235 139.03ZM120.941 146.13L122.706 135.365L124.36 135.636L122.595 146.401L120.941 146.13ZM123.841 133.709C123.519 133.656 123.259 133.5 123.061 133.242C122.868 132.985 122.797 132.702 122.847 132.394C122.898 132.086 123.056 131.84 123.321 131.658C123.59 131.477 123.886 131.413 124.209 131.466C124.531 131.519 124.789 131.674 124.982 131.931C125.179 132.189 125.253 132.472 125.202 132.78C125.152 133.088 124.992 133.333 124.722 133.515C124.457 133.697 124.163 133.761 123.841 133.709ZM135.956 143.409L126.175 146.528L126.469 144.733L133.941 142.532L133.866 142.635L133.912 142.355L133.95 142.476L127.572 138.005L127.866 136.211L136.14 142.288L135.956 143.409Z" fill="black"/>
<path d="M140.456 446.652L139.997 445.612L146.482 437.654L147.217 439.317L142.164 445.245L142.17 445.118L142.285 445.378L142.187 445.297L149.972 445.554L150.706 447.217L140.456 446.652ZM154.14 446.198L149.732 436.219L151.265 435.541L155.673 445.52L154.14 446.198ZM149.777 434.211C149.478 434.343 149.175 434.355 148.869 434.247C148.567 434.138 148.353 433.94 148.226 433.654C148.1 433.368 148.098 433.076 148.22 432.779C148.347 432.48 148.56 432.264 148.859 432.132C149.157 432 149.458 431.989 149.76 432.099C150.067 432.207 150.283 432.404 150.409 432.69C150.535 432.975 150.535 433.268 150.409 433.567C150.286 433.865 150.076 434.079 149.777 434.211ZM165.225 435.711L158.739 443.669L158.005 442.006L163.057 436.078L163.051 436.205L162.937 435.945L163.035 436.026L155.25 435.769L154.515 434.106L164.765 434.671L165.225 435.711Z" fill="black"/>
<path d="M54.7641 502.255L53.9335 501.886L53.5024 493.684L54.8313 494.275L55.0208 500.504L54.9562 500.425L55.1639 500.518L55.0624 500.522L59.815 496.492L61.144 497.083L54.7641 502.255ZM62.7054 494.468L52.0735 489.739L52.6185 488.514L56.5432 490.259L56.5894 490.156C56.4909 490.004 56.3699 489.801 56.2261 489.546C56.0804 489.287 55.9898 488.969 55.9541 488.592C55.9166 488.21 56.0132 487.76 56.2442 487.241C56.5428 486.57 56.9739 486.052 57.5375 485.69C58.1011 485.327 58.7548 485.139 59.4986 485.125C60.2424 485.112 61.0331 485.292 61.8706 485.664C62.7151 486.04 63.3832 486.509 63.8749 487.072C64.3632 487.633 64.6637 488.244 64.7766 488.903C64.886 489.562 64.7929 490.223 64.4973 490.887C64.2694 491.4 64.0022 491.772 63.6956 492.005C63.3855 492.236 63.0845 492.386 62.7926 492.455C62.4972 492.522 62.2568 492.569 62.0714 492.594L62.0068 492.74L63.2319 493.285L62.7054 494.468ZM59.2542 491.49C59.8564 491.758 60.4269 491.906 60.9657 491.934C61.5011 491.961 61.974 491.863 62.3844 491.639C62.7914 491.414 63.1042 491.055 63.3228 490.564C63.5507 490.052 63.6058 489.564 63.4883 489.102C63.3688 488.634 63.1174 488.211 62.7341 487.833C62.3489 487.45 61.8724 487.133 61.3049 486.88C60.7442 486.631 60.2004 486.493 59.6735 486.466C59.1447 486.433 58.6718 486.532 58.2548 486.761C57.8359 486.985 57.511 487.357 57.2801 487.876C57.0584 488.374 56.9984 488.849 57.1002 489.301C57.1985 489.751 57.4341 490.162 57.8071 490.536C58.1765 490.907 58.6589 491.225 59.2542 491.49ZM66.6705 485.555L58.6966 482.008L59.2231 480.824L60.4275 481.36L60.4644 481.277C60.1345 480.956 59.9314 480.55 59.855 480.06C59.7787 479.57 59.8467 479.086 60.0592 478.609C60.0992 478.519 60.1509 478.407 60.2144 478.274C60.278 478.14 60.3286 478.041 60.3663 477.974L61.6122 478.529C61.5833 478.566 61.5254 478.654 61.4385 478.793C61.3496 478.928 61.269 479.077 61.1966 479.239C61.0242 479.627 60.9515 480.009 60.9787 480.386C61.004 480.758 61.1193 481.095 61.3245 481.398C61.5279 481.696 61.8095 481.925 62.1695 482.085L67.2155 484.329L66.6705 485.555ZM68.4837 471.413L68.9148 479.615L67.5858 479.023L67.3964 472.795L67.4609 472.874L67.2533 472.781L67.3548 472.777L62.6021 476.806L61.2732 476.215L67.6531 471.044L68.4837 471.413Z" fill="black"/>
<path d="M199.614 184.909V184L206.932 180.273V181.727L201.318 184.432L201.364 184.341V184.568L201.318 184.477L206.932 187.182V188.636L199.614 184.909ZM209.956 189V177.364H211.297V181.659H211.411C211.509 181.508 211.645 181.314 211.82 181.08C211.998 180.841 212.251 180.629 212.581 180.443C212.914 180.254 213.365 180.159 213.933 180.159C214.668 180.159 215.316 180.343 215.876 180.71C216.437 181.078 216.875 181.598 217.189 182.273C217.503 182.947 217.661 183.742 217.661 184.659C217.661 185.583 217.503 186.384 217.189 187.062C216.875 187.737 216.439 188.259 215.882 188.631C215.325 188.998 214.683 189.182 213.956 189.182C213.395 189.182 212.946 189.089 212.609 188.903C212.272 188.714 212.013 188.5 211.831 188.261C211.649 188.019 211.509 187.818 211.411 187.659H211.251V189H209.956ZM211.274 184.636C211.274 185.295 211.371 185.877 211.564 186.381C211.757 186.881 212.039 187.273 212.411 187.557C212.782 187.837 213.236 187.977 213.774 187.977C214.335 187.977 214.803 187.83 215.178 187.534C215.556 187.235 215.84 186.833 216.03 186.33C216.223 185.822 216.32 185.258 216.32 184.636C216.32 184.023 216.225 183.47 216.036 182.977C215.85 182.481 215.568 182.089 215.189 181.801C214.814 181.509 214.342 181.364 213.774 181.364C213.229 181.364 212.77 181.502 212.399 181.778C212.028 182.051 211.748 182.434 211.558 182.926C211.369 183.415 211.274 183.985 211.274 184.636ZM219.712 189V180.273H221.007V181.591H221.098C221.257 181.159 221.545 180.809 221.962 180.54C222.378 180.271 222.848 180.136 223.371 180.136C223.469 180.136 223.592 180.138 223.74 180.142C223.888 180.146 224 180.152 224.075 180.159V181.523C224.03 181.511 223.926 181.494 223.763 181.472C223.604 181.445 223.435 181.432 223.257 181.432C222.833 181.432 222.454 181.521 222.121 181.699C221.791 181.873 221.53 182.116 221.337 182.426C221.147 182.733 221.053 183.083 221.053 183.477V189H219.712ZM233.369 184.909L226.051 188.636V187.182L231.665 184.477L231.619 184.568V184.341L231.665 184.432L226.051 181.727V180.273L233.369 184V184.909Z" fill="black"/>
<path d="M50.5029 162.482L50.9088 161.668L59.1212 161.601L58.4718 162.902L52.2412 162.816L52.3225 162.755L52.221 162.958L52.2209 162.856L56.0364 167.783L55.3869 169.084L50.5029 162.482ZM57.9305 170.76L63.1261 160.348L64.3259 160.947L62.408 164.79L62.5097 164.841C62.6655 164.749 62.8737 164.637 63.1345 164.505C63.4004 164.371 63.7222 164.295 64.0999 164.276C64.4827 164.255 64.9283 164.371 65.4367 164.625C66.0943 164.953 66.5918 165.407 66.9294 165.986C67.267 166.565 67.4259 167.226 67.4062 167.97C67.3864 168.714 67.1719 169.496 66.7626 170.316C66.35 171.143 65.8516 171.79 65.2676 172.256C64.6852 172.719 64.062 172.992 63.3981 173.076C62.7358 173.156 62.0792 173.033 61.4285 172.709C60.9269 172.458 60.5667 172.175 60.3479 171.858C60.1308 171.538 59.9942 171.231 59.938 170.936C59.8836 170.638 59.8478 170.396 59.8307 170.21L59.6884 170.139L59.0897 171.338L57.9305 170.76ZM61.0583 167.444C60.7641 168.034 60.5909 168.597 60.5388 169.134C60.4884 169.668 60.5659 170.145 60.7712 170.565C60.9782 170.981 61.3223 171.31 61.8036 171.55C62.3052 171.8 62.7898 171.877 63.2573 171.78C63.7298 171.681 64.1633 171.449 64.5577 171.083C64.9572 170.715 65.2956 170.253 65.573 169.697C65.8469 169.148 66.0091 168.611 66.0595 168.085C66.115 167.559 66.0375 167.082 65.8271 166.655C65.6218 166.227 65.265 165.886 64.7566 165.632C64.2685 165.388 63.7967 165.307 63.341 165.389C62.8871 165.467 62.4655 165.685 62.0762 166.041C61.6885 166.393 61.3492 166.861 61.0583 167.444ZM66.6598 175.116L70.5564 167.307L71.7156 167.885L71.127 169.065L71.2084 169.105C71.5435 168.79 71.9576 168.605 72.4505 168.55C72.9434 168.496 73.4237 168.585 73.8914 168.819C73.9796 168.863 74.0889 168.919 74.2194 168.989C74.3499 169.058 74.4473 169.113 74.5117 169.154L73.9029 170.374C73.8673 170.343 73.7817 170.281 73.6461 170.188C73.5156 170.094 73.3706 170.007 73.2113 169.927C72.8317 169.738 72.4531 169.648 72.0753 169.659C71.7026 169.667 71.3605 169.768 71.049 169.959C70.7425 170.149 70.5014 170.42 70.3255 170.773L67.8596 175.715L66.6598 175.116ZM80.7071 177.553L72.4946 177.621L73.1441 176.32L79.3747 176.406L79.2934 176.467L79.3949 176.264L79.3949 176.365L75.5795 171.439L76.2289 170.137L81.113 176.74L80.7071 177.553Z" fill="black"/>
<path d="M199.049 487.286L198.331 486.728L199.879 478.662L201.027 479.555L199.718 485.647L199.674 485.555L199.853 485.695L199.754 485.675L205.334 482.902L206.483 483.795L199.049 487.286ZM208.625 481.63L199.438 474.49L200.26 473.431L203.652 476.067L203.722 475.977C203.663 475.806 203.594 475.58 203.515 475.298C203.436 475.011 203.424 474.681 203.48 474.307C203.535 473.927 203.737 473.513 204.085 473.065C204.536 472.484 205.079 472.086 205.713 471.868C206.347 471.651 207.027 471.625 207.752 471.791C208.477 471.956 209.202 472.32 209.926 472.883C210.655 473.45 211.192 474.066 211.534 474.73C211.873 475.392 212.019 476.057 211.97 476.724C211.919 477.389 211.67 478.009 211.224 478.583C210.88 479.026 210.531 479.323 210.177 479.476C209.821 479.626 209.493 479.699 209.193 479.696C208.89 479.691 208.645 479.679 208.459 479.659L208.362 479.784L209.42 480.607L208.625 481.63ZM205.989 477.912C206.509 478.316 207.028 478.597 207.544 478.753C208.057 478.907 208.54 478.925 208.992 478.806C209.441 478.685 209.831 478.412 210.161 477.988C210.505 477.545 210.675 477.085 210.672 476.608C210.668 476.125 210.526 475.654 210.244 475.196C209.962 474.732 209.575 474.309 209.085 473.928C208.6 473.551 208.106 473.287 207.601 473.134C207.095 472.976 206.612 472.958 206.152 473.081C205.692 473.198 205.288 473.481 204.939 473.929C204.604 474.36 204.432 474.807 204.423 475.269C204.41 475.73 204.54 476.186 204.813 476.638C205.082 477.087 205.474 477.512 205.989 477.912ZM214.612 473.927L207.721 468.572L208.516 467.549L209.557 468.358L209.613 468.286C209.369 467.895 209.269 467.453 209.313 466.959C209.356 466.465 209.538 466.012 209.859 465.599C209.919 465.521 209.996 465.425 210.09 465.311C210.183 465.196 210.257 465.112 210.309 465.057L211.386 465.893C211.349 465.922 211.271 465.994 211.154 466.109C211.035 466.218 210.921 466.343 210.812 466.484C210.552 466.819 210.389 467.172 210.325 467.545C210.261 467.912 210.292 468.267 210.418 468.61C210.544 468.948 210.763 469.238 211.074 469.479L215.435 472.868L214.612 473.927ZM219.763 460.633L218.215 468.698L217.066 467.806L218.376 461.714L218.42 461.805L218.24 461.666L218.34 461.686L212.76 464.459L211.611 463.566L219.045 460.075L219.763 460.633Z" fill="black"/>
<path d="M20.4048 268.949L20.096 267.157L33.2538 257.325L33.7479 260.192L23.6022 267.429L23.661 267.235L23.7381 267.682L23.6177 267.519L35.6005 270.943L36.0945 273.809L20.4048 268.949ZM48.377 272.8C46.9436 273.047 45.6157 272.903 44.3935 272.368C43.17 271.825 42.1339 270.943 41.2852 269.721C40.4353 268.491 39.8533 266.966 39.5394 265.144C39.2281 263.337 39.2677 261.716 39.6584 260.28C40.049 258.845 40.7344 257.67 41.7146 256.755C42.6947 255.841 43.9089 255.258 45.3573 255.009C46.4772 254.816 47.394 254.85 48.1078 255.111C48.8279 255.364 49.4001 255.696 49.8246 256.107C50.2552 256.509 50.5934 256.843 50.8389 257.108L51.0629 257.07L49.604 248.604L52.2468 248.148L56.199 271.083L53.6458 271.523L53.1903 268.88L52.8768 268.934C52.7367 269.281 52.5287 269.724 52.2526 270.264C51.9753 270.796 51.5366 271.306 50.9365 271.794C50.3351 272.274 49.4819 272.609 48.377 272.8ZM48.3262 270.364C49.3864 270.181 50.2347 269.751 50.8711 269.072C51.5062 268.386 51.9293 267.518 52.1402 266.467C52.3499 265.408 52.3428 264.229 52.1189 262.93C51.8976 261.646 51.5174 260.555 50.9781 259.656C50.4376 258.75 49.7552 258.091 48.9309 257.679C48.1053 257.26 47.155 257.144 46.08 257.329C44.9601 257.522 44.0764 257.97 43.4289 258.674C42.7876 259.368 42.3645 260.237 42.1598 261.279C41.9612 262.313 41.9661 263.434 42.1746 264.644C42.3856 265.868 42.7639 266.948 43.3096 267.885C43.8614 268.812 44.5577 269.507 45.3985 269.969C46.2454 270.423 47.2213 270.554 48.3262 270.364ZM61.4064 270.186L58.4422 252.985L61.0851 252.529L64.0493 269.73L61.4064 270.186ZM59.292 249.886C58.7769 249.975 58.3025 249.876 57.8687 249.59C57.4424 249.302 57.1868 248.911 57.1019 248.419C57.017 247.926 57.1272 247.473 57.4326 247.059C57.7454 246.643 58.1594 246.391 58.6745 246.303C59.1896 246.214 59.6604 246.313 60.0866 246.601C60.5204 246.888 60.7797 247.277 60.8646 247.77C60.9495 248.263 60.8356 248.717 60.5228 249.132C60.2174 249.546 59.8072 249.797 59.292 249.886ZM79.9911 249.271L76.5945 267.568L73.9068 268.032L64.5819 251.927L67.4487 251.433L74.5589 264.321L74.7381 264.291L77.1243 249.765L79.9911 249.271ZM100.239 255.191L87.0816 265.023L86.5876 262.156L96.7332 254.919L96.6745 255.114L96.5973 254.666L96.7178 254.83L84.735 251.406L84.241 248.539L99.9307 253.4L100.239 255.191Z" fill="black"/>
<path d="M172.245 555.016L172.59 553.231L188.377 548.695L187.824 551.551L175.773 554.727L175.897 554.565L175.811 555.012L175.756 554.816L185.75 562.261L185.197 565.117L172.245 555.016ZM197.041 568.521C195.613 568.245 194.422 567.64 193.469 566.707C192.517 565.766 191.86 564.574 191.499 563.131C191.14 561.68 191.136 560.047 191.487 558.232C191.836 556.433 192.447 554.93 193.32 553.726C194.194 552.522 195.251 551.665 196.492 551.157C197.732 550.649 199.074 550.534 200.517 550.814C201.632 551.03 202.478 551.386 203.053 551.884C203.637 552.375 204.054 552.888 204.306 553.423C204.566 553.951 204.764 554.383 204.9 554.718L205.123 554.761L206.756 546.327L209.389 546.837L204.965 569.685L202.421 569.193L202.931 566.56L202.618 566.499C202.364 566.774 202.013 567.115 201.564 567.522C201.116 567.922 200.525 568.243 199.791 568.487C199.059 568.723 198.142 568.735 197.041 568.521ZM197.856 566.225C198.912 566.43 199.858 566.328 200.694 565.918C201.531 565.502 202.234 564.839 202.803 563.931C203.374 563.015 203.785 561.91 204.035 560.616C204.283 559.337 204.314 558.181 204.128 557.15C203.943 556.111 203.538 555.253 202.913 554.577C202.289 553.893 201.442 553.447 200.371 553.239C199.255 553.023 198.27 553.13 197.416 553.558C196.57 553.981 195.867 554.644 195.306 555.546C194.754 556.442 194.362 557.493 194.129 558.698C193.892 559.917 193.864 561.062 194.043 562.13C194.23 563.193 194.635 564.089 195.258 564.819C195.889 565.544 196.756 566.012 197.856 566.225ZM210.152 570.69L213.471 553.554L216.103 554.064L212.785 571.2L210.152 570.69ZM215.362 550.957C214.849 550.858 214.441 550.597 214.136 550.175C213.84 549.755 213.739 549.3 213.834 548.809C213.929 548.318 214.192 547.933 214.625 547.654C215.064 547.377 215.541 547.287 216.054 547.387C216.567 547.486 216.972 547.746 217.269 548.166C217.573 548.588 217.677 549.044 217.582 549.535C217.487 550.026 217.22 550.41 216.78 550.687C216.348 550.966 215.876 551.056 215.362 550.957ZM234.938 557.711L225.283 573.62L222.606 573.101L219.587 554.738L222.443 555.291L224.529 569.863L224.708 569.897L232.082 557.158L234.938 557.711ZM251.779 570.417L235.992 574.953L236.545 572.097L248.596 568.921L248.472 569.082L248.559 568.636L248.613 568.832L238.619 561.387L239.172 558.531L252.124 568.632L251.779 570.417Z" fill="black"/>
<path d="M154.42 226.864V225.5L165.398 219.909V222.091L156.977 226.148L157.045 226.011V226.352L156.977 226.216L165.398 230.273V232.455L154.42 226.864ZM178.934 222.841L177.127 223.352C177.013 223.051 176.846 222.759 176.624 222.474C176.408 222.185 176.113 221.946 175.738 221.759C175.363 221.571 174.883 221.477 174.298 221.477C173.496 221.477 172.829 221.662 172.295 222.031C171.766 222.395 171.502 222.858 171.502 223.42C171.502 223.92 171.684 224.315 172.048 224.605C172.411 224.895 172.979 225.136 173.752 225.33L175.695 225.807C176.866 226.091 177.738 226.526 178.312 227.111C178.886 227.69 179.173 228.437 179.173 229.352C179.173 230.102 178.957 230.773 178.525 231.364C178.099 231.955 177.502 232.42 176.735 232.761C175.968 233.102 175.076 233.273 174.059 233.273C172.724 233.273 171.619 232.983 170.744 232.403C169.869 231.824 169.315 230.977 169.082 229.864L170.991 229.386C171.173 230.091 171.516 230.619 172.022 230.972C172.533 231.324 173.201 231.5 174.025 231.5C174.962 231.5 175.707 231.301 176.258 230.903C176.815 230.5 177.093 230.017 177.093 229.455C177.093 229 176.934 228.619 176.616 228.312C176.298 228 175.809 227.767 175.15 227.614L172.968 227.102C171.769 226.818 170.888 226.378 170.326 225.781C169.769 225.179 169.491 224.426 169.491 223.523C169.491 222.784 169.698 222.131 170.113 221.562C170.533 220.994 171.104 220.548 171.826 220.224C172.553 219.901 173.377 219.739 174.298 219.739C175.593 219.739 176.61 220.023 177.349 220.591C178.093 221.159 178.621 221.909 178.934 222.841ZM182.2 237.909V219.909H184.143V221.989H184.382C184.53 221.761 184.734 221.472 184.996 221.119C185.263 220.761 185.643 220.443 186.138 220.165C186.638 219.881 187.314 219.739 188.166 219.739C189.268 219.739 190.24 220.014 191.081 220.565C191.922 221.116 192.578 221.898 193.05 222.909C193.521 223.92 193.757 225.114 193.757 226.489C193.757 227.875 193.521 229.077 193.05 230.094C192.578 231.105 191.925 231.889 191.089 232.446C190.254 232.997 189.291 233.273 188.2 233.273C187.359 233.273 186.686 233.134 186.18 232.855C185.675 232.571 185.286 232.25 185.013 231.892C184.74 231.528 184.53 231.227 184.382 230.989H184.212V237.909H182.2ZM184.178 226.455C184.178 227.443 184.322 228.315 184.612 229.071C184.902 229.821 185.325 230.409 185.882 230.835C186.439 231.256 187.121 231.466 187.928 231.466C188.768 231.466 189.47 231.244 190.033 230.801C190.601 230.352 191.027 229.75 191.311 228.994C191.601 228.233 191.746 227.386 191.746 226.455C191.746 225.534 191.604 224.705 191.32 223.966C191.041 223.222 190.618 222.634 190.05 222.202C189.487 221.764 188.78 221.545 187.928 221.545C187.109 221.545 186.422 221.753 185.865 222.168C185.308 222.577 184.888 223.151 184.604 223.889C184.32 224.622 184.178 225.477 184.178 226.455ZM200.678 233.307C199.848 233.307 199.095 233.151 198.419 232.838C197.743 232.52 197.206 232.062 196.808 231.466C196.411 230.864 196.212 230.136 196.212 229.284C196.212 228.534 196.359 227.926 196.655 227.46C196.95 226.989 197.345 226.619 197.839 226.352C198.334 226.085 198.879 225.886 199.476 225.756C200.078 225.619 200.683 225.511 201.291 225.432C202.087 225.33 202.732 225.253 203.226 225.202C203.726 225.145 204.089 225.051 204.317 224.92C204.55 224.79 204.666 224.562 204.666 224.239V224.17C204.666 223.33 204.436 222.676 203.976 222.21C203.521 221.744 202.831 221.511 201.905 221.511C200.945 221.511 200.192 221.722 199.646 222.142C199.101 222.562 198.717 223.011 198.496 223.489L196.587 222.807C196.928 222.011 197.382 221.392 197.95 220.949C198.524 220.5 199.149 220.187 199.825 220.011C200.507 219.83 201.178 219.739 201.837 219.739C202.257 219.739 202.74 219.79 203.286 219.892C203.837 219.989 204.368 220.19 204.879 220.497C205.396 220.804 205.825 221.267 206.166 221.886C206.507 222.506 206.678 223.335 206.678 224.375V233H204.666V231.227H204.564C204.428 231.511 204.2 231.815 203.882 232.139C203.564 232.463 203.141 232.739 202.612 232.966C202.084 233.193 201.439 233.307 200.678 233.307ZM200.984 231.5C201.78 231.5 202.45 231.344 202.996 231.031C203.547 230.719 203.962 230.315 204.24 229.821C204.524 229.327 204.666 228.807 204.666 228.261V226.42C204.581 226.523 204.393 226.616 204.104 226.702C203.82 226.781 203.49 226.852 203.115 226.915C202.746 226.972 202.385 227.023 202.033 227.068C201.686 227.108 201.405 227.142 201.189 227.17C200.666 227.239 200.178 227.349 199.723 227.503C199.274 227.651 198.911 227.875 198.632 228.176C198.359 228.472 198.223 228.875 198.223 229.386C198.223 230.085 198.482 230.614 198.999 230.972C199.521 231.324 200.183 231.5 200.984 231.5ZM212.36 225.125V233H210.349V219.909H212.292V221.955H212.462C212.769 221.29 213.235 220.756 213.86 220.352C214.485 219.943 215.292 219.739 216.281 219.739C217.167 219.739 217.942 219.92 218.607 220.284C219.272 220.642 219.789 221.188 220.158 221.92C220.528 222.648 220.712 223.568 220.712 224.682V233H218.701V224.818C218.701 223.79 218.434 222.989 217.9 222.415C217.366 221.835 216.633 221.545 215.701 221.545C215.059 221.545 214.485 221.685 213.979 221.963C213.479 222.241 213.085 222.648 212.795 223.182C212.505 223.716 212.36 224.364 212.36 225.125ZM235.945 226.864L224.967 232.455V230.273L233.388 226.216L233.32 226.352V226.011L233.388 226.148L224.967 222.091V219.909L235.945 225.5V226.864Z" fill="black"/>
<path d="M53.8839 139.133L53.2077 138.22L57.7875 129.032L58.8694 130.493L55.2413 137.386L55.2194 137.26L55.3884 137.489L55.2752 137.431L62.9264 135.973L64.0083 137.434L53.8839 139.133ZM68.3072 124.283L67.3506 125.522C67.1252 125.376 66.8679 125.264 66.5786 125.183C66.2903 125.096 65.9741 125.083 65.6299 125.143C65.2858 125.204 64.9178 125.379 64.5258 125.669C63.9892 126.066 63.6337 126.521 63.4591 127.033C63.2855 127.539 63.3382 127.98 63.6171 128.357C63.865 128.692 64.1826 128.866 64.5698 128.88C64.9571 128.893 65.4573 128.773 66.0707 128.52L67.6088 127.876C68.5336 127.486 69.3332 127.344 70.0078 127.452C70.6795 127.555 71.2421 127.913 71.6957 128.526C72.0676 129.028 72.2555 129.584 72.2593 130.194C72.2669 130.801 72.0983 131.409 71.7536 132.018C71.4089 132.627 70.896 133.183 70.2148 133.687C69.3206 134.35 68.4367 134.703 67.5633 134.749C66.6899 134.795 65.8991 134.503 65.1909 133.872L66.2328 132.606C66.704 132.988 67.1962 133.171 67.7096 133.156C68.2267 133.139 68.7612 132.926 69.313 132.517C69.9409 132.052 70.3408 131.55 70.5127 131.01C70.6856 130.464 70.6326 130.002 70.3537 129.626C70.1283 129.321 69.833 129.145 69.4677 129.098C69.0997 129.046 68.6569 129.132 68.1394 129.356L66.4245 130.096C65.4807 130.5 64.6725 130.642 64 130.521C63.3284 130.394 62.7686 130.028 62.3207 129.423C61.9544 128.928 61.7693 128.387 61.7654 127.801C61.7652 127.212 61.9265 126.63 62.2492 126.056C62.5757 125.478 63.0472 124.961 63.6637 124.505C64.5313 123.862 65.3534 123.548 66.1298 123.563C66.9101 123.574 67.6358 123.814 68.3072 124.283ZM77.9665 132.756L69.0411 120.7L70.3425 119.737L71.3737 121.129L71.5335 121.011C71.5198 120.786 71.5131 120.49 71.5134 120.125C71.5148 119.752 71.612 119.351 71.805 118.919C71.999 118.481 72.3814 118.05 72.9522 117.628C73.6905 117.081 74.4779 116.784 75.3143 116.736C76.1508 116.688 76.9777 116.886 77.7951 117.33C78.6124 117.773 79.362 118.455 80.0438 119.376C80.7312 120.305 81.1692 121.227 81.3577 122.142C81.5433 123.053 81.4945 123.902 81.2112 124.689C80.9251 125.472 80.4167 126.134 79.6861 126.675C79.1229 127.092 78.6029 127.333 78.1262 127.397C77.6466 127.458 77.2267 127.436 76.8666 127.331C76.5036 127.223 76.2135 127.125 75.9962 127.039L75.8821 127.123L79.3136 131.758L77.9665 132.756ZM73.611 124.104C74.1012 124.766 74.6307 125.278 75.1995 125.64C75.7655 125.999 76.3406 126.183 76.9248 126.192C77.5062 126.198 78.0671 126.001 78.6075 125.6C79.1707 125.184 79.5308 124.687 79.6877 124.111C79.8457 123.529 79.8325 122.914 79.648 122.267C79.4646 121.614 79.1418 120.975 78.6798 120.351C78.2234 119.734 77.7169 119.249 77.1604 118.895C76.6048 118.535 76.0297 118.351 75.4351 118.343C74.8414 118.329 74.2591 118.534 73.6883 118.956C73.1404 119.362 72.7827 119.842 72.6155 120.396C72.4454 120.946 72.4483 121.539 72.6243 122.174C72.7975 122.806 73.1264 123.449 73.611 124.104ZM88.0597 120.511C87.5041 120.923 86.9224 121.191 86.3146 121.317C85.7039 121.439 85.1175 121.399 84.5553 121.197C83.9903 120.991 83.4965 120.602 83.0739 120.031C82.702 119.529 82.4995 119.049 82.4663 118.59C82.4304 118.128 82.5117 117.685 82.7104 117.261C82.909 116.837 83.1757 116.433 83.5105 116.05C83.8463 115.66 84.198 115.287 84.5658 114.933C85.0478 114.47 85.4417 114.099 85.7474 113.819C86.0541 113.533 86.2512 113.29 86.3386 113.09C86.4298 112.887 86.3951 112.677 86.2345 112.46L86.2007 112.414C85.7837 111.851 85.3056 111.528 84.7664 111.444C84.2309 111.357 83.653 111.543 83.0328 112.003C82.3896 112.479 81.9897 112.993 81.8328 113.545C81.676 114.097 81.6417 114.588 81.73 115.017L80.1132 115.507C79.9471 114.806 79.9445 114.165 80.1053 113.587C80.267 113.002 80.5307 112.482 80.8962 112.029C81.2627 111.569 81.6666 111.176 82.1081 110.849C82.3897 110.641 82.7385 110.435 83.1545 110.233C83.5715 110.025 84.0274 109.897 84.522 109.848C85.0204 109.798 85.5373 109.895 86.0728 110.141C86.6082 110.387 87.1337 110.858 87.6493 111.554L91.926 117.331L90.5789 118.328L89.6999 117.141L89.6314 117.191C89.6809 117.449 89.6795 117.766 89.6269 118.14C89.5744 118.515 89.4276 118.909 89.1864 119.324C88.9451 119.738 88.5696 120.134 88.0597 120.511ZM87.3692 119.149C87.902 118.755 88.2735 118.317 88.4839 117.838C88.6981 117.355 88.7758 116.879 88.7172 116.41C88.6624 115.938 88.4997 115.52 88.2292 115.154L87.3164 113.921C87.31 114.032 87.2309 114.188 87.0791 114.389C86.9283 114.583 86.7428 114.794 86.5226 115.021C86.3035 115.243 86.0872 115.456 85.8738 115.661C85.6614 115.859 85.4899 116.022 85.3594 116.148C85.0431 116.453 84.7708 116.769 84.5424 117.097C84.315 117.419 84.1828 117.749 84.1456 118.089C84.1095 118.422 84.2182 118.76 84.4717 119.103C84.8183 119.571 85.2534 119.796 85.7772 119.78C86.302 119.756 86.8327 119.546 87.3692 119.149ZM91.827 109.239L95.7319 114.513L94.3848 115.51L87.8936 106.743L89.195 105.779L90.2093 107.149L90.3235 107.064C90.1993 106.467 90.2465 105.878 90.4651 105.298C90.6808 104.714 91.1198 104.177 91.7819 103.687C92.3756 103.248 92.9852 102.985 93.6107 102.899C94.2334 102.809 94.8502 102.918 95.461 103.225C96.069 103.529 96.6491 104.054 97.2013 104.8L101.326 110.371L99.9788 111.369L95.9218 105.889C95.4118 105.2 94.8357 104.796 94.1934 104.676C93.5484 104.553 92.9138 104.722 92.2897 105.185C91.8597 105.503 91.5444 105.881 91.3437 106.318C91.1469 106.752 91.0839 107.22 91.1546 107.722C91.2254 108.223 91.4495 108.729 91.827 109.239ZM108.485 98.7085L103.905 107.896L102.823 106.435L106.451 99.5425L106.473 99.6676L106.304 99.4393L106.418 99.4968L98.7663 100.955L97.6844 99.4938L107.809 97.7952L108.485 98.7085Z" fill="black"/>
</g>
<defs>
<clipPath id="clip0_54_138">
<rect width="279" height="598" fill="white"/>
</clipPath>
</defs>
</svg>
