<?xml version="1.0" standalone="no"?>
<!DOCTYPE svg PUBLIC "-//W3C//DTD SVG 20010904//EN"
 "http://www.w3.org/TR/2001/REC-SVG-20010904/DTD/svg10.dtd">
<svg version="1.0" xmlns="http://www.w3.org/2000/svg"
 width="300.000000pt" height="528.000000pt" viewBox="0 0 300.000000 528.000000"
 preserveAspectRatio="xMidYMid meet">

<g transform="translate(0.000000,528.000000) scale(0.100000,-0.100000)"
fill="#000000" stroke="none">
<path d="M1087 5230 c-14 -16 -28 -38 -31 -47 -4 -10 -29 -33 -56 -52 -126
-85 -214 -217 -288 -436 -90 -262 -182 -663 -228 -984 l-18 -124 -44 -26
c-189 -113 -313 -221 -365 -318 -30 -56 -28 -77 11 -105 11 -7 25 -24 32 -38
11 -20 178 -190 188 -190 2 0 10 -7 18 -15 9 -8 20 -15 25 -15 19 0 57 51 98
130 23 44 45 82 50 84 5 3 11 -31 15 -77 18 -218 66 -426 135 -585 l39 -92
-40 -77 c-52 -100 -111 -183 -193 -272 -62 -68 -72 -91 -39 -91 8 0 14 -6 14
-14 0 -7 11 -21 25 -30 14 -9 25 -23 25 -31 0 -8 6 -12 14 -9 19 7 65 -26 66
-46 0 -8 12 -20 28 -26 55 -22 99 -34 121 -34 14 0 25 -7 28 -20 3 -12 14 -20
27 -20 11 0 27 -4 35 -9 9 -6 23 -5 36 1 16 7 29 7 44 -1 18 -10 25 -8 46 13
22 22 25 34 25 96 0 39 4 70 10 70 24 0 98 -196 123 -325 9 -44 19 -117 23
-163 6 -70 8 -80 19 -65 8 10 10 20 6 23 -14 9 -18 70 -6 80 9 8 14 4 19 -12
3 -13 1 -24 -4 -26 -34 -12 29 -51 74 -46 l29 3 -28 -29 c-15 -16 -33 -28 -38
-27 -6 1 -13 -7 -15 -18 -2 -11 -10 -24 -17 -30 -15 -12 -64 -159 -164 -499
-67 -227 -81 -280 -62 -246 7 13 29 86 115 380 36 124 32 88 -15 -110 -22 -96
-38 -184 -35 -195 3 -12 -10 -69 -28 -128 -19 -59 -30 -104 -26 -102 11 7 50
126 106 325 44 158 64 214 50 140 -6 -27 -5 -31 4 -20 8 12 9 9 4 -12 -3 -16
-2 -28 3 -28 5 0 -3 -48 -19 -107 -15 -60 -27 -115 -25 -123 2 -8 11 19 21 60
10 41 25 91 33 110 8 19 16 56 18 81 2 26 6 64 9 85 5 29 4 34 -3 19 -13 -27
-13 -12 0 65 5 36 15 70 21 75 8 7 9 6 3 -4 -4 -8 -9 -63 -9 -123 -1 -99 0
-106 12 -78 7 18 15 30 18 28 4 -5 -41 -269 -52 -298 -3 -10 -2 -12 4 -5 10
10 46 182 57 270 13 109 20 112 26 15 6 -104 -13 -235 -51 -344 -20 -60 -20
-93 1 -40 43 114 77 302 83 472 2 51 7 96 10 99 6 7 11 -69 8 -125 -1 -22 2
-31 10 -26 11 7 7 -171 -7 -286 -4 -40 -4 -42 5 -15 6 17 16 111 23 210 12
174 12 177 18 95 l5 -85 2 103 c1 60 6 102 12 102 6 0 10 9 10 20 0 11 5 20
10 20 6 0 10 -29 9 -67 0 -47 -3 -62 -9 -48 -5 12 -8 -50 -7 -155 l1 -175 6
150 c6 151 16 208 30 185 4 -7 8 -58 9 -113 1 -56 4 -103 6 -106 3 -2 5 45 6
105 0 60 4 132 8 159 l7 50 11 -50 c7 -27 21 -120 33 -205 12 -85 24 -157 26
-159 8 -9 3 54 -12 155 -13 79 -14 108 -5 117 13 13 15 31 2 23 -4 -3 -11 29
-15 72 -3 42 -10 91 -15 107 l-9 30 -1 -30 c-1 -24 -3 -27 -12 -15 -8 12 -9 9
-5 -13 4 -15 2 -27 -4 -27 -5 0 -10 6 -10 14 0 7 -3 28 -6 45 -6 29 -5 31 25
31 18 0 31 -5 32 -12 0 -7 4 -4 9 7 7 17 10 12 21 -27 7 -26 15 -45 18 -43 3
1 6 -10 7 -26 2 -45 -11 -34 -25 22 -7 27 -15 48 -18 45 -2 -2 3 -31 12 -65
10 -33 15 -69 12 -80 -3 -12 0 -19 6 -18 6 1 17 -23 24 -53 7 -30 31 -131 53
-224 23 -92 39 -171 36 -173 -5 -5 -55 31 -141 101 l-31 25 -31 -19 c-18 -10
-61 -59 -96 -107 -136 -185 -332 -332 -443 -333 -49 0 -54 8 -54 89 0 179 104
564 231 856 26 60 53 133 60 160 13 53 26 78 39 70 4 -3 13 2 20 10 7 8 16 13
20 10 5 -3 11 -1 14 4 7 11 -13 9 -33 -3 -11 -7 -13 -5 -7 9 4 12 -2 9 -20
-10 -14 -16 -37 -58 -49 -94 -12 -36 -43 -111 -67 -166 -125 -279 -212 -592
-225 -816 -5 -89 -4 -98 16 -118 27 -27 84 -28 145 -1 109 46 267 179 347 291
58 82 109 139 123 139 6 0 34 -19 61 -42 80 -66 216 -150 358 -222 159 -80
178 -85 206 -57 29 29 28 128 -4 280 -50 238 -139 457 -268 662 -37 59 -71
119 -77 133 -24 64 -7 192 48 367 53 168 138 379 154 379 5 0 22 -29 38 -64
44 -96 119 -149 134 -93 3 12 28 36 55 54 37 24 59 49 86 97 38 68 78 106 113
106 14 0 22 9 27 30 8 39 39 76 86 106 26 16 48 43 68 83 30 58 56 78 134 104
11 4 17 17 17 36 0 30 38 71 66 71 28 0 44 41 38 99 -7 68 12 99 87 136 49 25
49 25 49 76 0 60 11 83 48 103 25 14 25 15 5 16 -12 0 -33 -14 -48 -32 -24
-28 -27 -38 -22 -80 4 -26 3 -48 0 -48 -4 0 -41 33 -82 73 -42 40 -103 95
-136 124 -86 74 -62 75 31 2 104 -82 120 -91 59 -35 -27 25 -45 46 -40 46 6 0
17 -6 24 -12 8 -7 4 1 -8 18 -20 28 -103 104 -114 104 -2 0 -4 -7 -4 -15 0 -9
23 -31 50 -51 27 -19 47 -38 44 -41 -5 -5 -127 84 -127 92 0 3 8 2 18 -1 11
-4 8 1 -8 15 -30 24 -36 26 -43 7 -3 -7 7 -23 24 -35 17 -13 28 -28 26 -34 -2
-7 3 -21 12 -31 14 -17 11 -16 -16 3 -18 12 -36 27 -40 34 -4 7 0 6 10 -2 10
-8 20 -12 23 -9 2 3 -12 18 -32 33 -23 18 -32 30 -25 35 9 5 7 11 -4 20 -13
11 -18 11 -24 1 -6 -9 -20 -4 -55 19 -47 32 -54 44 -36 55 6 4 9 1 8 -6 -2 -6
2 -13 8 -16 6 -2 11 3 11 12 0 9 -22 27 -49 42 -46 25 -48 28 -48 69 0 41 1
43 29 41 18 -1 27 -7 24 -15 -3 -7 0 -19 7 -27 15 -18 7 -19 -23 -4 -19 9 -19
8 3 -11 17 -15 19 -20 8 -16 -28 8 -21 1 23 -28 22 -15 38 -33 36 -39 -2 -7 3
-18 12 -25 14 -10 14 -11 -4 -6 -17 5 -16 2 5 -15 26 -22 45 -28 35 -11 -3 6
-1 10 6 10 6 0 1 9 -12 20 -13 10 -19 19 -13 20 13 0 42 -30 43 -45 1 -5 10
-10 20 -10 10 0 24 -5 32 -11 22 -17 39 -26 39 -20 0 3 -25 24 -56 47 -34 25
-52 44 -45 48 7 5 0 16 -20 30 -17 13 -28 25 -25 28 3 3 22 -7 42 -22 24 -18
32 -30 24 -35 -8 -5 2 -15 27 -30 21 -13 47 -31 58 -40 56 -48 72 -46 20 2
-33 31 -65 53 -71 51 -7 -2 -15 1 -20 8 -5 9 -2 11 12 6 11 -4 4 6 -16 23 -19
17 -29 30 -23 30 7 0 14 -3 17 -8 2 -4 26 -23 53 -42 32 -22 42 -26 29 -12
-20 23 -149 112 -163 112 -4 0 2 -7 13 -15 10 -8 14 -15 8 -15 -6 0 -17 7 -24
15 -7 8 -9 15 -4 15 4 0 0 6 -10 13 -18 13 -18 14 0 21 10 4 15 4 12 0 -4 -3
28 -28 72 -54 43 -26 109 -72 146 -101 37 -29 73 -54 81 -55 8 -1 41 -31 74
-66 33 -35 52 -49 41 -33 -62 93 -255 246 -408 321 -70 35 -109 39 -84 9 9
-11 7 -12 -9 -8 -20 5 -18 33 3 33 6 0 4 5 -4 10 -29 19 0 10 80 -26 165 -72
274 -148 428 -298 61 -60 112 -104 112 -98 0 21 -174 193 -259 257 -91 68
-240 150 -328 181 -52 18 -53 19 -53 58 0 148 -80 437 -188 683 -169 383 -477
770 -763 961 -81 54 -215 122 -241 122 -9 0 -28 -13 -41 -30z m140 -31 c138
-73 225 -140 368 -284 130 -129 295 -332 295 -361 0 -19 -49 -54 -76 -54 -12
0 -34 4 -49 10 -14 5 -24 6 -21 1 4 -5 1 -11 -5 -13 -6 -2 -13 -17 -14 -32 -3
-22 -1 -26 8 -17 7 7 12 19 12 29 0 13 8 16 42 14 23 -2 51 2 63 8 12 6 24 9
27 6 9 -9 -14 -61 -26 -59 -6 2 -11 -6 -11 -16 0 -27 -34 -35 -72 -17 -39 20
-35 20 -42 -8 -8 -33 -57 -90 -65 -77 -4 6 -26 -14 -49 -43 -58 -76 -145 -131
-235 -151 -237 -52 -355 -26 -484 108 -32 33 -71 73 -87 89 -23 24 -26 32 -15
39 8 5 21 9 29 9 11 0 12 2 2 8 -9 6 -6 14 12 31 25 24 52 20 42 -6 -3 -8 -1
-11 4 -8 17 10 11 -11 -10 -38 -11 -14 -20 -29 -20 -34 0 -4 5 0 11 10 5 9 16
17 23 17 8 0 13 8 12 17 0 10 7 19 17 21 15 3 18 0 12 -18 -6 -19 -5 -21 13
-11 29 16 40 13 18 -4 -11 -8 -17 -17 -15 -20 3 -3 14 3 25 13 10 9 35 23 54
29 37 13 285 145 298 158 4 4 -3 3 -15 -4 -30 -15 -38 -14 -22 5 7 9 -42 -19
-110 -62 -104 -66 -130 -78 -175 -82 -44 -3 -60 0 -93 21 -55 35 -90 108 -99
205 -8 79 -20 83 -18 6 1 -26 -3 -53 -7 -58 -50 -62 -61 -79 -43 -63 11 9 26
17 32 17 6 0 14 5 18 12 5 7 3 8 -6 3 -8 -5 -11 -3 -8 5 8 25 26 21 32 -6 4
-14 5 -29 2 -32 -3 -3 1 -10 10 -16 13 -10 7 -15 -35 -28 -54 -17 -71 -6 -23
15 15 7 28 18 30 26 3 14 -45 -17 -68 -43 -7 -9 -16 -13 -21 -10 -5 3 -6 -1
-3 -9 3 -8 -2 -20 -11 -27 -8 -7 -15 -17 -15 -22 0 -5 10 2 23 16 12 14 36 28
52 31 l30 7 -30 -30 c-16 -16 -36 -40 -43 -53 -11 -19 -7 -17 18 9 43 45 62
40 19 -5 -18 -21 -38 -41 -44 -45 -6 -5 -6 -8 0 -8 5 0 33 26 62 57 52 56 67
77 38 53 -25 -20 -37 -6 -15 18 21 23 54 29 65 13 3 -6 -17 -34 -44 -64 -83
-88 -101 -112 -91 -115 6 -2 8 -8 5 -12 -3 -5 -13 -7 -23 -4 -11 4 -13 3 -5
-3 9 -6 -3 -24 -43 -62 -30 -29 -53 -55 -51 -57 2 -3 30 21 61 52 31 31 60 54
63 51 3 -4 0 -13 -7 -22 -21 -26 -1 -17 25 11 14 15 29 23 36 19 8 -6 7 -10
-2 -16 -10 -6 -10 -9 -2 -9 6 0 15 5 18 10 4 6 11 8 16 4 5 -3 8 0 7 7 -4 18
19 22 25 4 4 -8 2 -15 -4 -15 -6 0 -7 -4 -4 -10 3 -5 1 -10 -6 -10 -10 0 -10
-3 -1 -12 10 -10 15 -10 22 2 7 11 12 12 21 3 16 -16 3 -47 -17 -39 -8 3 -12
2 -9 -4 8 -13 35 -13 35 0 0 18 28 11 44 -11 24 -34 111 -69 174 -69 52 -1 55
-2 38 -15 -23 -17 -66 -19 -114 -6 -17 5 -32 6 -32 1 0 -5 15 -12 33 -15 17
-4 35 -9 39 -12 19 -11 -55 -103 -83 -103 -4 0 -10 10 -12 23 -12 63 -5 -122
8 -208 18 -115 21 -223 7 -237 -5 -5 -20 4 -39 25 -29 33 -30 40 -32 128 -3
120 -11 130 -11 13 0 -116 -19 -93 -22 26 l-2 85 -5 -70 c-5 -60 -8 -67 -18
-50 -7 14 -8 35 -3 65 9 43 12 136 5 115 -2 -5 -7 -37 -10 -70 -7 -53 -9 -57
-17 -35 -13 32 -3 116 15 135 8 8 16 12 18 10 2 -2 5 8 5 21 1 13 -2 21 -7 18
-5 -3 -9 12 -9 33 -1 36 -2 37 -15 18 -8 -11 -18 -24 -23 -30 -4 -5 -11 -18
-15 -27 -3 -10 -11 -18 -17 -18 -14 0 -13 17 3 23 6 3 4 6 -7 6 -19 1 -19 1 0
24 l19 22 -26 -22 c-31 -28 -50 -29 -79 -5 l-22 17 51 46 c28 25 53 43 57 40
3 -3 4 1 2 9 -2 10 7 14 37 13 26 -1 30 1 13 4 -32 5 -34 9 -13 30 15 15 37
14 90 -2 11 -3 2 3 -20 14 -47 23 -76 26 -72 9 1 -7 -4 -12 -11 -10 -8 1 -11
-2 -8 -7 11 -17 -13 -22 -36 -10 l-23 13 25 6 25 6 -23 8 c-18 6 -29 0 -58
-33 -20 -22 -41 -38 -45 -35 -5 3 -9 -2 -9 -10 0 -8 -5 -18 -10 -21 -5 -3 -10
2 -10 13 0 22 60 92 78 92 7 0 10 5 7 10 -3 6 1 10 9 10 9 0 15 4 13 9 -1 5 7
17 18 25 11 8 15 16 9 16 -5 0 -23 -13 -38 -29 -16 -16 -34 -27 -42 -24 -8 3
-29 -11 -49 -31 -35 -37 -48 -59 -20 -36 9 8 15 9 15 2 0 -6 -8 -17 -18 -24
-28 -20 -34 -56 -11 -69 11 -6 17 -15 12 -22 -4 -7 11 4 33 23 23 19 49 41 60
48 10 7 12 10 4 6 -10 -5 -9 0 4 14 20 23 46 29 46 12 0 -6 -32 -43 -71 -81
-40 -39 -69 -64 -66 -55 11 29 -1 17 -27 -28 -33 -56 -33 -66 -1 -27 17 20 31
28 42 24 9 -4 14 -2 10 3 -8 14 9 38 22 30 8 -5 8 -13 1 -27 -7 -13 -7 -19 0
-19 5 0 10 5 10 10 0 19 49 10 76 -13 21 -18 25 -28 19 -43 -4 -10 -7 -25 -6
-31 1 -7 -3 -13 -9 -13 -6 0 -8 5 -5 10 10 16 -11 12 -25 -5 -11 -13 -10 -14
6 -9 10 4 -11 -23 -48 -60 -65 -64 -88 -78 -88 -54 0 6 -9 3 -20 -7 -11 -10
-20 -13 -20 -7 0 14 40 37 58 34 7 -2 15 5 19 15 3 10 36 49 72 87 36 37 56
63 44 57 -12 -6 -37 -29 -56 -51 -34 -40 -51 -48 -62 -30 -3 5 13 21 35 35 28
18 40 31 36 41 -3 9 -1 12 4 9 6 -3 10 1 10 9 0 9 -6 16 -12 16 -15 0 -48 -20
-34 -20 5 0 2 -7 -5 -16 -7 -9 -18 -26 -24 -38 -6 -11 -19 -20 -28 -20 -9 1
-17 -4 -17 -12 0 -14 -33 -36 -62 -41 -14 -2 -16 4 -11 35 2 20 11 54 19 75 8
21 12 42 9 47 -6 10 19 175 40 260 69 281 162 573 220 694 45 92 119 186 145
186 12 0 23 7 26 15 4 8 14 15 23 16 11 0 12 2 3 6 -10 4 -9 9 4 24 31 34 34
20 9 -37 -37 -83 -4 -47 40 44 40 83 61 112 81 112 7 0 48 -19 91 -41z m683
-669 c0 -5 -4 -10 -10 -10 -5 0 -10 5 -10 10 0 6 5 10 10 10 6 0 10 -4 10 -10z
m-640 -4 c0 -2 -7 -7 -16 -10 -8 -3 -12 -2 -9 4 6 10 25 14 25 6z m675 -46 c7
-23 -18 -75 -40 -84 -25 -9 -55 -7 -55 4 0 6 11 20 25 32 14 12 21 24 15 28
-15 9 18 50 35 44 8 -3 17 -14 20 -24z m39 -65 c9 -14 14 -30 11 -35 -9 -14
-38 -12 -59 3 -17 12 -17 14 -2 20 9 4 16 13 16 22 0 23 16 18 34 -10z m-210
-47 c-10 -10 -13 -18 -8 -18 5 0 15 9 22 20 7 11 19 20 27 20 19 0 19 -4 0
-39 -19 -38 -67 -58 -102 -42 l-26 12 34 36 c19 20 28 33 22 29 -9 -5 -11 -2
-7 8 5 12 10 13 30 4 23 -11 23 -12 8 -30z m131 -10 c-10 -35 -52 -68 -87 -68
-17 0 -28 -3 -24 -7 4 -4 23 -6 42 -4 33 2 35 1 29 -21 -15 -50 -68 -78 -101
-53 -19 14 -19 15 4 33 15 11 21 24 17 34 -8 19 39 73 54 63 5 -3 12 -1 15 4
4 5 2 12 -4 16 -21 13 -9 25 26 25 32 0 35 -2 29 -22z m108 -29 c-1 -19 1 -26
3 -16 8 24 19 21 33 -9 13 -30 7 -44 -20 -44 -10 0 -19 -7 -19 -15 0 -31 -29
-72 -59 -85 -30 -12 -68 -10 -102 4 -10 4 -18 2 -22 -6 -3 -8 2 -14 12 -15 9
-1 28 -3 43 -6 14 -2 42 2 62 8 45 16 48 1 11 -43 -32 -39 -76 -56 -119 -48
-42 8 -52 21 -34 44 12 15 11 16 -5 3 -9 -8 -20 -11 -23 -8 -3 3 3 12 15 19
12 7 21 19 21 26 0 20 23 54 54 81 21 19 43 27 74 28 25 1 49 6 55 12 7 7 -1
8 -26 4 -37 -6 -97 12 -97 28 0 5 5 9 10 9 6 0 17 15 26 33 14 30 19 32 62 31
47 -1 47 -1 45 -35z m-1243 8 c0 -2 -11 -17 -25 -33 -14 -16 -25 -25 -25 -20
0 6 10 20 22 33 20 22 28 27 28 20z m27 -28 c14 -14 5 -49 -13 -49 -17 0 -18
12 -2 28 9 9 9 12 0 12 -7 0 -12 5 -12 10 0 13 13 13 27 -1z m898 -9 c3 -5 22
-10 41 -10 39 0 42 -7 13 -44 -15 -19 -30 -26 -54 -26 -45 0 -61 21 -35 45 11
10 20 23 20 28 0 5 -11 -2 -25 -17 -13 -14 -30 -26 -37 -26 -10 0 -10 -2 -1
-8 9 -6 7 -16 -7 -40 -25 -41 -62 -59 -92 -45 -22 10 -22 11 15 30 22 11 39
24 39 29 1 5 16 28 36 52 34 41 72 55 87 32z m-925 -8 c0 -13 -39 -46 -46 -40
-3 4 3 16 13 27 18 22 33 27 33 13z m1292 -44 c-17 -17 -15 -33 3 -18 13 10
17 7 31 -25 8 -20 13 -39 10 -42 -7 -8 -95 7 -101 17 -3 4 2 23 10 41 8 19 14
30 15 26 0 -4 8 -3 18 2 23 14 29 14 14 -1z m-362 -43 c27 8 27 -14 -1 -49
-12 -16 -30 -26 -45 -26 -19 0 -25 -5 -22 -17 2 -10 5 -16 8 -14 3 2 16 -2 30
-9 14 -8 38 -13 53 -12 27 2 27 2 12 -22 -24 -36 -59 -56 -99 -56 -50 0 -69 9
-55 26 6 8 17 14 25 14 7 0 18 8 23 19 18 33 -1 31 -34 -5 -34 -36 -69 -43
-106 -24 -27 15 -24 27 10 35 19 4 35 18 47 40 14 27 21 32 35 24 27 -14 34
-11 16 9 -15 16 -14 19 12 36 20 14 27 25 23 39 -5 19 -4 19 21 2 16 -10 34
-14 47 -10z m57 -22 c2 -6 -2 -13 -10 -16 -8 -3 -13 3 -14 15 -2 20 18 21 24
1z m43 -19 c0 -22 -55 -74 -78 -74 -27 0 -52 10 -52 21 0 5 6 9 13 9 6 1 30
14 52 30 45 33 65 37 65 14z m247 -34 c-10 -13 -9 -13 8 1 32 25 68 19 80 -15
8 -25 6 -31 -18 -52 -22 -19 -40 -24 -85 -25 -31 -1 -49 -3 -39 -6 9 -2 14 -9
11 -15 -5 -7 -2 -8 6 -3 7 4 28 9 46 11 28 3 34 0 34 -17 0 -10 -15 -36 -34
-57 -32 -35 -38 -37 -93 -37 -32 0 -76 4 -97 9 -28 6 -37 6 -32 -3 4 -6 20
-11 37 -11 37 0 37 -12 -2 -44 -17 -14 -27 -26 -22 -26 5 0 22 14 38 30 38 39
69 42 34 3 l-24 -28 30 27 c33 30 146 54 130 28 -6 -9 -4 -12 7 -8 8 4 20 3
27 -1 7 -5 -2 -12 -25 -19 -32 -9 -35 -9 -29 6 7 20 0 12 -37 -39 -55 -74
-150 -91 -231 -39 -26 16 -47 33 -47 37 0 4 12 20 28 37 l27 30 -32 -26 c-41
-33 -84 -43 -127 -28 -54 18 -61 34 -22 50 19 7 37 20 40 29 3 9 9 22 12 28 3
7 -10 -3 -29 -22 -40 -40 -86 -46 -138 -20 -33 18 -30 35 5 35 13 0 36 12 51
26 18 16 33 23 44 18 9 -4 26 -6 39 -5 13 0 33 -4 44 -10 14 -7 18 -7 14 0 -4
5 4 15 16 22 13 6 34 25 48 41 23 27 27 29 53 17 15 -7 27 -15 27 -18 0 -4 19
-5 41 -3 l42 4 -19 -32 c-27 -46 -66 -63 -132 -58 -65 6 -45 -10 23 -17 43 -5
48 -2 90 40 25 24 45 51 45 58 0 8 11 20 25 27 34 18 59 58 64 102 1 3 14 1
31 -5 24 -9 27 -14 17 -27z m-1367 26 c0 -3 -4 -8 -10 -11 -5 -3 -10 -1 -10 4
0 6 5 11 10 11 6 0 10 -2 10 -4z m838 -12 c28 -6 30 -9 21 -26 -15 -27 -75
-51 -110 -43 -34 8 -57 40 -34 49 8 3 17 0 21 -6 5 -7 2 -8 -6 -3 -8 5 -11 4
-7 -2 7 -12 59 -9 83 6 11 6 15 10 9 11 -5 0 -16 -4 -24 -9 -8 -5 -21 -7 -29
-4 -11 5 -9 9 9 19 28 16 28 16 67 8z m-876 -26 c-7 -7 -12 -8 -12 -2 0 14 12
26 19 19 2 -3 -1 -11 -7 -17z m73 -18 c-3 -5 -11 -10 -16 -10 -6 0 -7 5 -4 10
3 6 11 10 16 10 6 0 7 -4 4 -10z m645 -10 c-27 -50 -102 -60 -172 -24 -40 21
-35 26 20 23 26 -1 54 0 62 4 21 8 51 14 78 16 20 1 21 -2 12 -19z m35 -20 c3
-5 19 -10 36 -10 30 0 34 -6 23 -35 -8 -19 -55 -45 -84 -45 -25 0 -90 29 -90
39 0 4 15 13 34 19 19 7 40 19 46 27 14 17 26 19 35 5z m775 -32 c0 -10 -44
-11 -53 -1 -4 3 1 15 10 25 16 18 18 18 30 2 7 -10 13 -21 13 -26z m-1547 -11
c5 7 18 18 30 24 20 10 20 9 -4 -15 -27 -29 -59 -27 -59 3 0 31 15 34 20 4 4
-18 8 -24 13 -16z m541 34 c4 -5 -6 -19 -21 -31 -16 -12 -21 -18 -13 -14 8 4
23 14 32 22 14 11 23 12 52 2 40 -13 40 -13 25 -41 -28 -52 -109 -53 -149 -2
-30 38 -26 53 15 53 19 0 35 5 35 10 0 13 17 13 24 1z m316 -41 c0 -5 14 -10
30 -10 17 0 30 -4 30 -9 0 -13 -45 -40 -71 -42 -61 -5 -78 9 -34 29 14 6 25
18 25 27 0 8 5 15 10 15 6 0 10 -4 10 -10z m669 -2 c22 0 29 -7 45 -45 19 -45
19 -46 1 -59 -22 -16 -83 -18 -120 -4 l-27 10 38 47 c21 26 33 44 26 39 -8 -4
-12 -1 -12 9 0 10 5 13 11 9 7 -4 24 -7 38 -6z m-1042 -55 c15 -7 33 -13 40
-13 24 0 13 -18 -21 -34 -19 -9 -43 -16 -54 -16 -27 0 -82 20 -82 31 0 12 42
34 60 31 10 -2 11 0 4 5 -8 6 -8 16 -2 33 l10 25 9 -25 c5 -14 21 -31 36 -37z
m177 27 c12 2 76 -24 76 -31 0 -4 -12 -17 -26 -28 -33 -26 -85 -27 -115 -2
l-24 20 25 18 c14 10 28 17 33 15 4 -1 7 6 7 16 0 13 2 14 9 4 4 -8 11 -13 15
-12z m102 -39 c-3 -4 6 -7 19 -5 14 1 27 -2 30 -6 9 -15 -17 -49 -47 -61 -29
-12 -98 -5 -98 10 0 11 25 21 50 21 11 0 20 10 24 25 4 14 11 25 17 25 6 0 8
-4 5 -9z m-196 -20 c0 -5 -7 -14 -15 -21 -12 -10 -15 -10 -15 2 0 8 3 18 7 21
9 10 23 9 23 -2z m58 -28 c25 -6 26 -7 12 -34 -12 -21 -35 -27 -25 -6 4 6 -4
0 -17 -14 -23 -26 -78 -48 -78 -30 0 4 12 30 26 55 20 36 30 46 43 40 9 -3 26
-9 39 -11z m245 -6 c37 -17 37 -17 22 -47 -8 -16 -24 -34 -34 -40 -32 -17 -86
-12 -115 11 -29 23 -27 39 5 36 13 -1 32 11 48 30 14 17 28 30 31 29 3 -1 22
-10 43 -19z m-498 3 c-4 -6 1 -7 11 -3 24 9 14 -17 -14 -35 -21 -14 -22 -13
-22 10 0 14 3 28 7 31 10 11 25 8 18 -3z m136 -24 c-29 -46 -26 -57 5 -21 l25
30 -18 -33 c-15 -28 -23 -33 -45 -29 -27 3 -39 -8 -17 -15 7 -2 7 -12 -2 -31
-10 -22 -19 -27 -48 -27 -32 0 -33 -1 -16 -13 13 -11 15 -16 6 -22 -19 -11
-28 4 -39 65 -7 39 -7 57 1 62 6 4 14 5 19 2 4 -3 13 4 20 15 11 19 14 19 30
4 20 -18 25 -4 6 16 -11 10 -6 11 24 8 25 -3 39 0 42 9 3 8 10 14 17 14 6 0 2
-15 -10 -34z m1131 -108 c3 -19 -1 -22 -22 -19 -14 1 -37 9 -53 17 l-27 15 20
38 c10 21 16 41 13 45 -4 3 2 6 12 6 15 0 16 3 7 12 -15 15 -24 5 -46 -55 -10
-26 -27 -54 -39 -62 -25 -18 -86 -19 -142 -4 l-39 11 39 37 c28 25 63 44 115
60 41 13 84 27 95 31 17 6 23 -1 42 -51 12 -31 23 -68 25 -81z m-932 81 c0
-21 -15 -41 -41 -54 -41 -22 -52 -19 -33 10 23 36 10 31 -16 -6 -22 -29 -22
-31 -4 -51 11 -11 38 -29 62 -40 23 -10 42 -23 42 -27 0 -5 -18 -25 -40 -45
-32 -29 -47 -36 -73 -33 -65 7 -118 66 -97 109 10 21 10 21 -9 -2 -11 -14 -21
-28 -21 -32 0 -11 -34 -10 -67 3 -27 10 -27 11 -9 25 15 10 22 11 27 3 4 -8
13 -1 23 18 8 17 22 33 31 36 8 4 15 12 15 18 0 8 -4 8 -15 -1 -9 -8 -15 -9
-15 -2 0 20 20 23 51 8 29 -15 32 -14 53 9 13 14 26 25 30 25 4 0 18 13 32 30
22 26 28 28 50 18 13 -6 24 -15 24 -19z m326 -17 c41 -3 63 -11 81 -28 14 -13
30 -24 36 -24 5 0 7 -10 4 -22 -6 -23 -6 -23 10 -3 9 11 17 15 19 9 3 -6 23
-9 49 -7 50 5 56 -4 23 -34 -36 -33 -63 -43 -113 -43 -85 0 -126 39 -90 86 17
22 20 12 5 -16 -6 -10 -6 -21 -1 -24 4 -3 15 12 24 34 8 22 11 38 6 35 -5 -4
-9 1 -9 11 0 13 -5 10 -21 -10 -40 -51 -108 -70 -163 -45 -16 8 -23 17 -19 28
4 12 3 13 -5 2 -7 -10 -11 -10 -17 -1 -4 7 0 13 11 16 11 3 27 23 38 44 l19
39 28 -21 c18 -14 49 -23 85 -26z m-281 -32 c22 -11 45 -20 52 -20 31 0 -3
-52 -46 -70 -44 -18 -104 3 -96 33 4 15 3 18 -3 9 -5 -7 -16 -10 -25 -6 -23 8
-21 24 2 24 11 0 33 11 48 25 15 13 28 25 28 25 1 0 18 -9 40 -20z m-595 -24
c0 -10 -48 -7 -55 3 -10 17 27 30 42 16 7 -8 13 -16 13 -19z m-212 -59 c-50
-49 -64 -58 -66 -44 -2 10 0 26 4 35 4 9 6 23 5 30 -1 6 3 13 9 13 19 3 25 5
49 18 14 8 21 9 17 2 -4 -6 -2 -11 4 -11 6 0 13 7 16 15 4 8 10 12 15 9 5 -3
-19 -33 -53 -67z m942 13 c0 -4 14 -5 30 -2 23 3 30 0 30 -12 0 -9 5 -16 10
-16 7 0 7 -6 1 -18 -7 -14 -6 -19 4 -19 9 0 17 14 21 33 3 18 13 39 22 46 13
11 14 9 8 -17 -4 -19 -3 -25 2 -16 12 16 27 -3 16 -21 -4 -6 -3 -8 4 -4 6 3
22 2 35 -3 14 -6 49 -11 79 -12 31 -1 74 -11 105 -25 28 -13 57 -24 62 -24 19
0 12 -19 -13 -35 -44 -29 -87 -36 -143 -23 -49 10 -72 28 -38 28 8 0 15 5 15
10 0 6 6 10 14 10 7 0 16 9 19 20 5 19 3 18 -24 -5 -47 -39 -100 -49 -162 -31
-54 16 -121 55 -99 57 6 1 17 2 23 3 11 1 41 37 36 43 -2 1 -21 -6 -42 -17
-47 -24 -64 -25 -112 -5 l-37 16 25 17 c13 9 28 16 32 14 5 -1 6 2 2 8 -3 5
-1 10 4 10 6 0 11 9 11 20 0 20 0 20 30 -2 17 -12 30 -25 30 -28z m-772 34
c23 -7 22 -8 -20 -53 -31 -33 -33 -37 -8 -13 49 44 62 41 19 -5 -22 -24 -24
-29 -7 -14 16 14 29 23 30 20 2 -2 8 -13 14 -23 6 -11 25 -25 43 -31 18 -6 29
-13 26 -17 -4 -4 -25 0 -47 8 -23 8 -43 12 -46 9 -6 -6 50 -29 66 -26 6 1 12
-4 12 -11 0 -9 3 -9 10 2 5 8 12 11 16 7 4 -4 -3 -19 -17 -35 -13 -15 -20 -24
-15 -20 5 4 17 3 28 -3 17 -9 18 -8 9 10 -7 12 -7 22 -2 25 12 8 53 -43 45
-55 -10 -17 -76 -9 -113 13 l-36 21 21 -22 c12 -13 38 -25 62 -28 38 -5 41 -7
31 -27 -8 -16 -4 -15 15 7 30 32 37 33 61 7 13 -14 26 -18 47 -15 27 5 28 4
18 -16 -9 -15 -9 -24 -1 -32 7 -7 11 -7 11 -1 0 6 7 19 16 30 8 10 12 12 8 4
-14 -28 8 -2 25 32 20 36 61 52 61 23 0 -10 -5 -13 -12 -9 -7 5 -9 2 -5 -8 4
-11 1 -14 -11 -11 -12 3 -25 -11 -45 -47 -16 -27 -33 -50 -39 -50 -6 0 -31 16
-54 36 -24 19 -44 31 -44 26 0 -10 48 -55 77 -71 14 -8 14 -12 -6 -45 -13 -20
-26 -36 -30 -36 -4 0 -14 -11 -21 -25 -7 -14 -20 -25 -27 -25 -21 0 -64 31
-57 41 3 5 -2 9 -11 9 -10 0 -15 6 -13 18 2 9 11 16 19 14 8 -2 11 -1 7 3 -7
8 4 24 40 57 12 12 22 26 22 32 0 6 -14 -4 -30 -21 -16 -18 -34 -33 -39 -33
-5 0 -12 -9 -16 -19 -3 -11 -12 -25 -20 -31 -18 -15 -84 -30 -90 -21 -7 12 59
72 102 93 21 10 29 15 18 12 -11 -4 -42 -7 -70 -8 -44 -1 -53 -5 -84 -39 -20
-22 -40 -36 -48 -33 -8 3 -12 2 -9 -3 3 -5 -14 -31 -39 -57 l-44 -49 49 130
c27 72 50 137 50 145 0 24 -43 -52 -46 -83 -6 -46 -152 -371 -154 -340 0 12
46 119 114 266 19 42 31 77 25 77 -6 0 1 21 15 46 29 51 31 58 16 49 -5 -3
-10 0 -10 7 -1 8 -6 6 -15 -6 -8 -11 -15 -15 -15 -9 0 14 25 35 33 27 8 -8 29
35 22 46 -3 5 -1 11 5 15 5 3 10 10 10 16 0 23 -30 4 -97 -63 -40 -40 -73 -68
-73 -63 0 6 21 30 46 55 25 24 55 58 66 74 12 17 -36 -25 -106 -94 -69 -69
-126 -120 -126 -114 0 7 19 29 43 50 40 36 83 84 75 84 -3 0 -42 -36 -219
-205 -42 -40 -80 -79 -85 -86 -7 -13 39 26 126 108 19 17 36 30 38 28 3 -2
-31 -38 -74 -80 -44 -42 -65 -68 -49 -57 17 11 43 34 59 51 17 17 33 31 37 31
4 0 41 35 83 77 42 43 76 72 76 64 0 -7 -36 -50 -79 -95 -44 -44 -91 -95 -106
-113 -23 -28 -23 -31 -5 -26 11 3 20 11 20 17 0 7 24 36 54 64 30 29 63 64 74
80 11 15 23 24 27 20 4 -3 -9 -23 -27 -45 -47 -53 -120 -153 -112 -153 8 0 64
60 64 69 0 3 14 22 30 41 43 52 38 14 -8 -51 -46 -66 -107 -173 -94 -165 6 3
31 40 57 81 25 41 51 75 56 75 5 0 9 6 9 13 0 17 40 80 47 74 4 -5 -32 -88
-56 -127 -19 -31 -73 -161 -69 -166 3 -2 26 39 52 92 25 53 49 95 51 92 3 -3
-13 -45 -35 -93 -22 -48 -38 -90 -35 -93 3 -3 28 44 56 104 28 60 54 111 58
114 4 3 20 31 35 63 15 32 30 56 33 53 4 -4 -31 -85 -55 -126 -5 -8 -14 -28
-20 -45 -29 -87 -87 -235 -106 -273 -27 -56 -41 -68 -60 -50 -147 140 -186
180 -196 199 -7 13 -26 35 -42 49 l-29 25 38 64 c21 35 67 91 104 125 66 62
94 82 279 201 58 37 117 79 132 92 l26 25 15 -29 c19 -36 16 -77 -8 -103 -10
-11 -16 -22 -14 -25 3 -2 22 15 44 38 22 23 33 36 25 29 -12 -10 -16 -4 -27
35 -19 67 -20 77 -6 78 13 0 42 25 29 25 -5 0 -3 7 4 15 14 17 16 17 48 9z
m1494 -29 c27 -7 44 -19 46 -30 6 -28 -18 -63 -56 -81 -29 -13 -41 -14 -73 -5
-36 11 -38 14 -33 44 l5 32 -15 -32 c-17 -37 -47 -48 -111 -40 -50 7 -155 48
-155 61 0 4 6 6 13 3 7 -2 26 13 42 34 33 44 32 44 100 23 28 -8 64 -12 83 -9
17 3 32 2 32 -3 0 -6 7 -12 15 -16 8 -3 14 0 12 7 -1 7 4 11 11 9 8 -1 11 2 7
8 -5 8 -11 7 -21 -1 -10 -9 -14 -9 -14 0 0 17 42 31 57 19 7 -6 32 -16 55 -23z
m-785 -85 c12 0 44 -13 69 -30 26 -16 62 -33 81 -36 18 -3 33 -10 33 -16 0
-12 -100 -58 -128 -58 -13 0 -21 -4 -18 -8 6 -10 36 -9 54 2 7 4 12 2 12 -6 0
-7 5 -5 11 6 9 15 13 16 20 5 7 -11 9 -11 9 2 0 19 30 40 77 57 24 8 36 7 50
-3 17 -13 17 -14 -3 -41 -38 -52 -70 -68 -131 -68 -34 0 -58 4 -60 11 -3 7
-10 10 -17 7 -8 -3 -20 2 -29 11 -9 8 -31 18 -49 22 -50 9 -109 37 -143 67
-16 14 -27 26 -23 26 3 0 14 3 24 7 12 4 15 3 10 -5 -4 -7 -5 -12 -2 -12 3 0
17 22 31 49 l27 48 36 -18 c20 -11 46 -19 59 -19z m-424 4 c-1 -10 0 -13 3 -6
3 6 19 12 35 12 l30 0 -26 -34 c-17 -23 -22 -36 -15 -41 13 -8 37 19 46 53 3
12 10 22 15 22 14 0 11 -9 -12 -47 l-22 -35 22 14 c12 7 24 21 27 31 6 18 7
17 30 -4 21 -20 25 -47 4 -34 -4 3 -14 -2 -21 -11 -9 -11 -24 -14 -53 -11 -46
6 -76 16 -77 26 0 3 -2 26 -5 50 -4 33 -2 42 8 38 7 -2 12 -13 11 -23z m1271
-41 c3 -21 6 -66 6 -100 0 -61 -1 -63 -25 -63 -29 0 -30 5 -10 53 20 49 18 70
-3 28 -9 -19 -24 -39 -33 -44 -20 -13 -59 -3 -92 24 -23 18 -25 22 -13 35 8 8
19 14 24 14 5 0 12 9 15 20 4 17 28 26 59 21 3 0 17 11 30 24 13 14 26 25 29
25 4 0 9 -17 13 -37z m-163 -43 c-35 -30 -88 -45 -124 -35 -35 10 -67 28 -67
37 0 5 5 6 10 3 6 -3 10 3 10 14 0 25 22 27 44 5 9 -8 16 -11 16 -5 0 6 10 11
23 11 12 0 30 7 41 15 16 12 23 12 49 -2 l31 -16 -33 -27z m-938 -3 c-10 -12
-20 -24 -22 -27 -2 -3 -1 4 2 15 7 20 7 20 -8 1 -8 -11 -15 -28 -15 -38 0 -10
-4 -18 -9 -18 -21 0 -4 52 24 74 35 28 54 23 28 -7z m92 -12 c27 -20 73 -42
101 -51 28 -8 68 -23 89 -34 22 -11 60 -23 86 -26 l48 -6 -28 -24 c-52 -43
-131 -57 -185 -33 -25 12 -25 12 -8 43 9 17 15 35 14 40 -2 5 4 6 12 3 10 -4
13 -1 10 7 -4 9 -17 6 -55 -12 -55 -27 -75 -23 -41 8 24 22 31 40 9 21 -8 -6
-17 -8 -20 -5 -3 4 -9 -5 -13 -20 -7 -28 -10 -29 -66 -20 -32 6 -38 11 -39 33
-1 25 -1 25 -7 3 -6 -20 -9 -21 -26 -9 -15 11 -17 17 -8 33 9 14 12 15 12 4 1
-8 12 6 26 33 13 26 28 47 32 47 4 0 29 -16 57 -35z m-231 -16 c-3 -5 -9 -7
-14 -4 -5 3 -11 1 -15 -5 -3 -5 -10 -10 -16 -10 -5 0 -4 8 2 19 7 11 19 16 30
14 11 -3 16 -9 13 -14z m717 -8 c1 -14 2 -14 6 2 5 17 23 24 23 8 0 -5 9 -7
20 -4 18 5 19 3 10 -21 -6 -18 -6 -25 0 -21 6 3 10 12 10 19 0 8 7 19 15 26
12 10 15 9 16 -6 1 -16 2 -17 6 -2 7 29 63 36 63 7 0 -15 -63 -76 -98 -93 -21
-11 -51 -16 -80 -14 -43 3 -47 5 -45 28 l3 25 -10 -23 c-6 -13 -15 -22 -22
-20 -24 8 -18 26 12 39 22 10 32 23 36 46 6 33 33 37 35 4z m203 3 c9 -3 16
-14 16 -23 0 -10 3 -12 8 -5 4 6 24 14 45 17 l38 6 -6 -32 c-16 -75 -75 -127
-127 -112 -39 12 -49 25 -37 47 6 11 8 22 6 25 -3 2 -8 -5 -12 -17 -7 -23 -26
-23 -33 1 -3 8 -2 11 2 8 10 -10 53 33 65 64 11 29 12 30 35 21z m174 -51 c7
-7 24 -13 38 -13 19 0 24 -5 24 -24 0 -27 -16 -44 -23 -24 -2 7 -2 3 0 -10 2
-16 -5 -27 -29 -42 -42 -26 -51 -25 -44 3 l6 22 -11 -22 c-11 -22 -38 -30 -51
-17 -7 6 20 93 34 111 5 7 7 22 3 33 -6 20 -5 21 16 9 13 -7 30 -18 37 -26z
m-1572 -10 c-23 -42 -36 -59 -36 -48 0 12 38 75 45 75 3 0 -1 -12 -9 -27z
m-46 13 c0 -2 -8 -10 -17 -17 -16 -13 -17 -12 -4 4 13 16 21 21 21 13z m600
-4 c0 -5 -10 -17 -21 -28 -12 -10 -25 -29 -30 -41 -5 -13 -15 -23 -23 -23 -23
0 -26 28 -5 52 11 13 17 16 13 8 -3 -8 5 -3 20 13 27 27 46 35 46 19z m-650
-23 c-7 -11 -14 -18 -17 -15 -3 3 0 12 7 21 18 21 23 19 10 -6z m49 -16 c-42
-70 -49 -79 -49 -62 0 16 55 99 66 99 3 0 -5 -17 -17 -37z m662 5 c52 -26 122
-27 167 -4 43 22 46 20 20 -14 -15 -20 -25 -27 -32 -20 -15 15 -26 12 -20 -4
3 -8 26 -22 51 -31 55 -21 164 -16 192 9 27 24 33 19 16 -13 -8 -16 -22 -31
-32 -33 -26 -5 80 -58 116 -58 38 0 38 -5 5 -54 -17 -24 -44 -46 -77 -62 -59
-27 -83 -29 -139 -12 -35 10 -39 14 -33 37 6 25 6 25 -9 6 -12 -16 -17 -18
-27 -7 -19 18 -34 15 -18 -5 18 -21 87 -52 117 -53 32 0 28 -12 -21 -62 -47
-49 -114 -82 -103 -51 6 16 6 16 -12 0 -33 -30 -125 -17 -106 14 6 12 5 12 -8
1 -13 -10 -19 -8 -39 12 l-23 24 -18 -35 c-11 -19 -17 -37 -14 -40 3 -3 11 6
17 20 11 24 13 25 35 10 l24 -15 -21 -37 c-20 -34 -20 -35 -1 -13 11 12 22 27
24 32 2 6 24 4 55 -4 31 -8 55 -10 59 -5 3 5 12 9 21 9 13 0 13 -4 -2 -27 -19
-30 -43 -48 -61 -48 -6 0 -19 -6 -28 -14 -18 -15 -131 -10 -148 7 -6 6 -4 22
7 43 l16 34 -20 -25 c-11 -14 -21 -20 -21 -15 0 6 -5 3 -10 -5 -6 -10 -12 -12
-19 -5 -12 12 43 102 58 98 5 -1 14 11 20 27 6 18 21 34 38 41 15 6 35 15 43
20 8 5 22 12 31 15 9 3 26 22 39 42 18 29 35 41 78 55 31 10 67 31 82 47 45
48 42 62 -3 16 -40 -39 -98 -66 -145 -66 -27 0 -108 35 -117 51 -5 7 0 18 12
28 12 9 33 36 47 61 24 41 25 42 4 19 -13 -14 -35 -41 -50 -60 -26 -33 -27
-34 -42 -14 -36 44 -37 52 -11 58 22 4 25 1 20 -17 -4 -15 -1 -13 10 7 9 15
20 27 25 27 13 0 13 -17 0 -25 -5 -3 -15 -16 -20 -28 -7 -14 0 -10 19 12 16
18 31 42 34 52 5 17 3 18 -24 3 -34 -17 -139 -30 -139 -16 0 5 9 17 20 27 11
10 22 26 25 36 8 24 12 24 66 -3z m483 -9 c14 -7 24 -15 22 -18 -3 -3 27 -5
65 -4 l70 2 -23 -41 c-31 -56 -85 -90 -134 -86 -41 3 -46 15 -30 63 4 11 0 7
-10 -10 -9 -16 -18 -31 -19 -33 -4 -5 -35 10 -35 18 0 18 51 120 59 120 6 0
21 -5 35 -11z m610 1 c18 0 19 -6 13 -106 -3 -58 -11 -112 -17 -119 -7 -8 -9
-19 -5 -25 7 -12 -23 -180 -35 -193 -10 -11 -60 13 -60 30 0 7 4 13 8 13 5 0
21 23 36 50 15 28 23 50 19 50 -5 0 -19 -20 -31 -45 -34 -70 -92 -97 -153 -71
-12 5 -20 -4 -34 -41 -25 -66 -107 -147 -164 -163 -59 -16 -114 -4 -153 31
l-31 30 -37 -40 c-43 -47 -68 -55 -153 -49 -60 4 -187 51 -187 68 0 5 18 32
40 61 22 30 40 57 40 62 0 5 6 7 14 4 8 -3 16 2 19 14 3 10 10 19 17 19 7 0 9
-9 5 -22 -3 -13 5 -5 17 18 28 50 78 114 86 112 4 -1 30 9 57 22 28 13 53 24
57 24 12 1 62 79 63 96 0 16 45 28 45 12 0 -15 76 -42 116 -42 29 0 84 -22
143 -57 2 -2 -1 -14 -7 -28 -16 -35 -6 -32 12 4 9 16 24 31 36 34 51 13 6
-120 -58 -173 -28 -23 -47 -30 -80 -30 -26 0 -41 -4 -37 -10 3 -5 1 -20 -5
-32 -11 -23 -11 -23 8 0 12 16 27 23 43 21 48 -7 133 83 169 176 7 17 7 24 0
20 -6 -3 -10 4 -10 16 0 17 3 19 14 10 8 -7 41 -14 73 -16 57 -4 57 -4 12 4
-26 5 -57 15 -70 21 -20 11 -21 14 -7 24 9 6 24 34 34 62 l18 51 46 -5 c30 -3
50 0 55 7 5 9 -3 10 -29 6 -23 -5 -36 -3 -36 4 0 6 -7 8 -15 5 -8 -4 -15 -2
-15 4 0 5 9 12 19 15 13 3 22 17 27 42 6 31 10 36 28 31 11 -3 30 -6 40 -6z
m-1803 -17 c-20 -37 -40 -59 -41 -44 0 8 10 25 22 38 26 27 32 29 19 6z m1379
-8 c0 -8 3 -14 8 -13 4 0 24 -6 44 -15 21 -10 49 -17 63 -17 29 0 30 -2 11
-38 -43 -82 -158 -104 -212 -40 -10 13 -15 20 -10 16 9 -8 75 88 76 110 0 17
20 15 20 -3z m193 -23 c-3 -12 -12 -22 -19 -22 -18 0 -18 9 3 32 20 22 24 19
16 -10z m-1293 1 c0 -9 -66 -76 -127 -129 -40 -34 -59 -36 -31 -3 10 10 9 10
-4 -1 -13 -11 -16 -23 -10 -42 7 -25 8 -26 27 -10 11 10 35 35 54 57 28 32 42
40 71 41 20 0 42 4 48 8 6 4 21 -3 32 -14 l21 -21 -36 -47 -37 -47 40 44 c31
33 44 42 60 37 l21 -7 -21 -35 c-20 -34 -27 -37 -100 -49 -42 -7 -46 -1 -21
29 13 15 10 14 -10 -3 -23 -21 -25 -26 -12 -34 12 -6 13 -13 5 -28 -6 -11 -15
-17 -19 -14 -5 2 -15 -3 -22 -12 -10 -12 -10 -14 -1 -9 6 4 12 3 12 -1 0 -12
-49 -63 -61 -63 -6 0 -7 -5 -4 -10 3 -6 -1 -17 -9 -26 -18 -17 -21 -34 -7 -34
6 0 16 12 23 28 8 15 22 27 33 27 11 1 26 4 33 8 21 14 13 -9 -13 -37 -14 -15
-25 -30 -25 -33 0 -4 -8 -15 -17 -26 -10 -11 -12 -17 -5 -13 17 10 15 2 -10
-47 -11 -23 -23 -37 -25 -30 -2 7 0 21 6 32 13 24 14 31 2 31 -9 0 -21 -36
-27 -77 -1 -12 -10 -33 -20 -48 -23 -35 -29 -23 -43 85 -32 254 -34 276 -18
306 18 35 84 109 97 109 5 0 15 6 22 14 11 12 10 13 -2 6 -8 -5 7 15 34 43 32
33 58 52 73 52 13 0 23 -3 23 -7z m-266 -63 c-16 -29 -30 -47 -32 -41 -4 12
48 104 55 97 3 -3 -8 -28 -23 -56z m556 42 c0 -4 14 -7 32 -7 25 0 35 -7 50
-31 l18 -31 -35 -48 c-19 -27 -32 -51 -29 -54 6 -6 20 11 46 58 15 28 38 42
38 24 0 -5 -25 -43 -55 -85 l-55 -77 -32 17 c-41 23 -44 34 -15 63 14 13 34
42 46 64 11 22 28 51 37 65 10 16 7 15 -8 -5 -13 -16 -33 -40 -45 -52 -13 -13
-30 -38 -39 -56 -23 -45 -22 -45 -50 -12 l-25 30 5 -26 c3 -15 0 -34 -9 -45
-17 -22 -20 -12 -5 17 6 10 8 19 6 19 -11 0 -37 -63 -32 -76 3 -8 -1 -27 -10
-42 l-16 -27 21 25 c12 14 31 43 43 65 12 22 23 34 25 28 5 -14 -43 -107 -62
-123 -15 -13 -48 -2 -42 14 3 7 -4 12 -14 12 -13 0 -17 -5 -14 -16 3 -9 -6
-31 -20 -50 -14 -19 -25 -36 -25 -39 1 -6 17 13 46 53 24 34 27 9 3 -30 -12
-21 -18 -35 -12 -31 6 4 14 0 17 -9 5 -13 11 -10 29 17 12 18 25 32 30 31 4
-1 16 -2 27 -2 20 0 20 -1 4 -27 -16 -27 -16 -27 9 2 32 38 46 26 17 -14 -19
-28 -27 -33 -47 -30 -3 0 -10 -6 -15 -15 -13 -24 -104 -21 -146 4 l-33 20 35
41 c19 22 40 53 48 67 7 15 26 46 42 70 39 58 28 63 -13 6 -18 -25 -36 -43
-38 -40 -3 3 -18 -3 -32 -13 -14 -10 -36 -20 -48 -24 -38 -9 -27 17 25 63 26
23 41 39 35 35 -7 -3 -13 -2 -13 3 0 8 68 25 108 27 7 0 18 7 23 15 10 13 10
13 6 0 -17 -50 -14 -49 12 5 24 50 33 60 55 61 14 1 26 -3 26 -7 0 -5 -4 -9
-10 -9 -5 0 -10 -4 -10 -10 0 -21 19 -9 39 25 11 19 26 35 34 35 7 0 20 13 30
29 23 39 21 52 -3 21 -10 -14 -22 -25 -27 -25 -4 0 -18 -10 -30 -22 -28 -28
-69 -32 -54 -5 19 32 38 52 50 52 6 0 11 9 11 20 0 13 7 20 20 20 11 0 20 -3
20 -8z m966 -59 l-17 -28 23 27 c18 21 34 27 76 30 28 1 52 -1 52 -5 0 -15
-42 -92 -63 -114 -27 -30 -74 -30 -118 0 -32 21 -41 42 -19 42 12 0 60 69 60
86 0 10 3 10 11 2 9 -9 8 -19 -5 -40z m409 -14 c11 -17 -1 -21 -15 -4 -8 9 -8
15 -2 15 6 0 14 -5 17 -11z m60 -9 c3 -5 2 -10 -4 -10 -5 0 -13 5 -16 10 -3 6
-2 10 4 10 5 0 13 -4 16 -10z m-80 -10 c3 -5 2 -10 -4 -10 -5 0 -13 5 -16 10
-3 6 -2 10 4 10 5 0 13 -4 16 -10z m-1767 -30 c-7 -11 -17 -20 -22 -20 -5 0
-1 9 9 20 10 11 20 20 22 20 2 0 -2 -9 -9 -20z m551 -13 c-11 -20 -10 -21 5
-6 16 15 21 15 64 0 26 -9 49 -17 51 -19 8 -4 -53 -63 -81 -78 -34 -18 -62
-19 -52 -1 4 6 -2 4 -13 -6 -13 -11 -31 -16 -49 -14 -32 5 -34 23 -6 47 10 8
30 36 45 63 16 26 32 45 38 42 5 -4 5 -15 -2 -28z m1155 6 c21 -26 11 -30 -18
-8 -10 7 -15 19 -11 25 4 6 8 10 9 8 0 -2 10 -13 20 -25z m121 -11 c-6 -7 -35
18 -35 31 0 5 9 2 20 -8 11 -10 18 -20 15 -23z m-102 -33 c20 -17 37 -34 37
-38 0 -14 -54 1 -67 18 -7 9 -13 11 -13 6 0 -6 5 -16 12 -23 7 -7 8 -12 3 -12
-16 0 -31 14 -29 28 1 6 2 21 3 32 1 27 10 25 54 -11z m149 -106 c19 -24 -6
-13 -54 22 -27 20 -48 40 -48 46 0 10 82 -44 102 -68z m-1514 45 c14 -14 16
-32 2 -23 -6 4 -7 -1 -3 -11 6 -15 7 -15 20 2 8 12 16 15 23 8 10 -10 -30 -80
-54 -96 -10 -7 -74 -3 -82 5 -4 4 69 127 76 127 3 0 11 -5 18 -12z m1329 0
c11 -19 13 -38 3 -38 -10 0 -24 19 -26 38 -1 6 2 12 6 12 5 0 12 -6 17 -12z
m64 -10 c22 -12 39 -25 39 -29 0 -4 -20 4 -45 18 -42 23 -54 33 -39 33 4 0 24
-10 45 -22z m22 -38 c47 -30 56 -43 37 -55 -6 -4 -9 -1 -8 6 2 6 -3 14 -11 17
-9 3 -11 0 -6 -8 14 -23 -44 21 -60 46 -20 32 -9 30 48 -6z m-1332 -8 c-12
-22 -50 -57 -56 -51 -8 8 39 69 53 69 9 0 10 -5 3 -18z m52 11 c4 -3 0 -13 -9
-22 -8 -9 -29 -40 -46 -70 l-30 -53 -24 23 c-28 26 -31 39 -8 39 8 0 13 -4 9
-9 -3 -5 -1 -12 5 -16 6 -3 13 2 17 12 9 24 65 103 73 103 4 0 10 -3 13 -7z
m1202 -15 c19 -13 35 -26 35 -30 0 -12 -10 -9 -39 11 -21 15 -28 17 -28 6 0
-8 25 -31 55 -52 30 -20 50 -39 44 -41 -13 -4 -122 67 -122 79 0 5 4 9 9 9 5
0 7 9 4 20 -7 25 -1 25 42 -2z m-1588 -53 c-20 -25 -38 -52 -40 -58 -2 -7 -8
-9 -12 -5 -4 4 11 33 35 64 23 30 44 53 47 50 3 -2 -11 -25 -30 -51z m1769 25
c24 -17 44 -33 44 -36 0 -6 -47 21 -81 47 -39 30 -11 22 37 -11z m50 -64 c19
-16 33 -34 30 -41 -2 -7 25 -35 62 -64 l67 -52 -60 55 c-78 72 -56 73 28 1 60
-51 87 -66 87 -47 0 4 -24 29 -52 55 -29 27 -45 45 -36 40 22 -11 148 -122
148 -131 0 -4 -19 -15 -41 -26 l-41 -18 -37 36 c-20 20 -41 33 -45 29 -4 -5
-6 -2 -4 6 2 8 -35 47 -82 88 -47 40 -85 77 -85 81 0 5 -8 16 -17 26 -10 10
-18 20 -18 22 0 8 58 -28 96 -60z m-56 -47 c0 -6 -27 11 -60 36 -33 25 -60 51
-60 56 0 6 27 -11 60 -36 33 -25 60 -51 60 -56z m-205 71 c10 -11 15 -20 11
-20 -14 0 -46 21 -46 30 0 16 16 11 35 -10z m-1445 -9 c-10 -20 -30 -37 -30
-26 0 11 25 45 33 45 4 0 3 -9 -3 -19z m1280 -36 c-52 -120 -103 -175 -162
-175 -34 0 -58 9 -58 22 0 12 47 58 59 58 4 0 23 30 41 68 l34 67 51 0 52 0
-17 -40z m87 16 c8 -4 2 -37 -24 -116 -19 -60 -36 -111 -38 -113 -1 -2 -18 -5
-36 -8 -45 -8 -85 22 -75 54 4 12 13 22 19 22 7 0 23 23 36 50 14 28 29 50 34
50 4 0 6 3 3 8 -2 4 2 22 10 40 14 34 28 36 71 13z m103 -1 c6 9 20 4 54 -19
47 -33 67 -67 21 -37 -14 9 -36 23 -50 32 -16 10 -25 12 -25 5 0 -7 -10 -5
-27 5 -20 12 -15 5 13 -22 23 -21 45 -47 48 -57 7 -23 -11 -13 -37 20 -11 13
-24 20 -33 16 -13 -5 -10 -10 13 -29 35 -29 21 -31 -19 -3 -16 12 -31 19 -34
16 -3 -2 16 -18 41 -33 25 -16 45 -32 45 -36 0 -14 -12 -9 -47 18 -19 14 -36
24 -39 22 -2 -2 17 -19 42 -37 26 -18 43 -35 40 -38 -3 -4 -27 8 -54 26 -48
33 -33 17 29 -30 19 -15 31 -30 26 -35 -4 -4 -20 4 -35 18 -15 14 -39 33 -54
42 -26 17 -26 18 -11 61 11 33 19 43 31 39 14 -5 13 -2 -2 10 -11 9 -15 16 -9
16 7 0 15 -4 18 -10 3 -5 12 -10 18 -10 7 1 2 9 -11 19 -14 12 -20 25 -16 35
6 15 8 15 31 0 20 -12 27 -13 33 -4z m311 -27 c10 -12 5 -11 -18 6 -18 12 -33
24 -33 27 0 9 37 -15 51 -33z m-1626 5 l25 -21 -32 -58 c-21 -38 -35 -54 -40
-46 -5 7 -8 1 -8 -15 0 -29 -9 -35 -26 -18 -6 6 -15 5 -24 -1 -13 -9 -13 -10
2 -6 15 5 34 -17 29 -36 -1 -5 2 -6 7 -3 4 2 14 1 21 -3 10 -7 10 -13 2 -29
-6 -11 -11 -29 -10 -39 1 -10 6 -3 12 15 9 29 13 33 36 27 35 -9 35 -8 12 -53
-25 -49 -33 -54 -65 -46 -21 5 -24 9 -16 24 6 10 10 31 9 47 -1 27 -1 27 -11
-7 -6 -19 -12 -41 -14 -48 -2 -9 -14 -6 -41 9 -54 30 -61 38 -42 52 9 7 22 30
29 52 13 41 109 225 117 225 2 0 14 -10 28 -22z m1481 -53 c32 -31 50 -51 39
-46 -30 16 -122 101 -109 101 6 0 37 -25 70 -55z m-90 3 c24 -17 44 -36 44
-41 0 -7 -54 30 -94 65 -25 21 11 4 50 -24z m-1306 -14 c0 4 9 2 20 -4 19 -10
19 -11 -1 -45 -12 -19 -25 -32 -30 -29 -5 3 -7 -1 -4 -8 7 -18 -31 -78 -49
-78 -8 0 -21 6 -28 13 -7 7 -21 16 -30 20 -19 7 -25 27 -7 27 5 0 17 17 25 38
9 20 25 52 36 70 l20 33 24 -22 c13 -12 24 -19 24 -15z m1559 -79 c41 -39 59
-51 51 -35 l-12 25 27 -26 c24 -24 25 -29 14 -48 -8 -11 -17 -20 -20 -19 -11
5 -189 206 -189 214 0 8 30 -18 129 -111z m-1939 95 c0 -6 -7 -26 -14 -45 -18
-43 -12 -46 9 -5 19 38 61 42 75 8 6 -16 9 -18 9 -7 1 11 12 18 31 21 36 5 36
5 9 -34 -28 -39 -124 -81 -103 -45 6 8 3 8 -9 -2 -20 -16 -52 -7 -41 11 4 7 0
6 -8 -2 -18 -18 -71 -110 -64 -110 3 0 1 -11 -4 -25 -6 -15 -6 -25 0 -25 5 0
12 10 15 23 24 82 38 107 61 107 18 0 22 -4 17 -17 -5 -16 -4 -16 9 1 13 16
16 17 29 4 12 -13 16 -12 32 6 l19 21 -6 -24 c-5 -27 -12 -32 68 64 33 40 39
29 17 -31 -23 -65 -40 -95 -41 -74 -1 8 -12 -16 -24 -54 -13 -38 -31 -73 -40
-78 -9 -5 -16 -15 -16 -23 0 -8 -9 -23 -20 -33 -12 -11 -22 -34 -24 -53 -2
-19 -1 -25 1 -15 8 31 35 67 47 63 6 -2 20 0 31 5 18 8 18 8 -2 4 -24 -4 -27
1 -17 28 3 9 10 13 15 10 5 -3 9 0 9 6 0 7 7 27 16 45 l16 33 43 -21 c43 -22
55 -40 34 -52 -5 -4 -14 -18 -20 -32 -5 -13 -13 -21 -19 -18 -6 4 -4 17 5 35
18 34 18 40 5 40 -5 0 -10 -7 -10 -17 0 -9 -10 -30 -23 -47 -12 -17 -33 -55
-46 -83 -21 -46 -28 -53 -53 -53 -19 0 -27 -4 -22 -11 4 -7 21 -9 41 -6 31 5
34 4 28 -16 -5 -17 -4 -19 4 -7 6 8 11 11 11 5 1 -5 7 8 15 30 16 44 14 53 -5
30 -21 -25 -29 -17 -14 15 9 17 19 30 24 30 4 0 11 11 14 25 4 14 11 23 16 20
5 -3 7 -13 4 -23 -5 -14 -4 -15 5 -2 5 8 28 15 51 16 44 1 44 2 24 -63 -3 -10
1 -7 10 7 8 14 15 33 16 42 0 9 11 29 25 44 14 15 25 31 25 37 0 6 9 2 20 -8
14 -13 17 -22 10 -35 -12 -22 0 -34 14 -15 9 13 17 14 44 4 17 -6 32 -14 32
-17 0 -19 -43 -73 -68 -86 -33 -17 -95 -19 -85 -2 4 6 -1 5 -10 -3 -14 -11
-22 -11 -47 -1 -16 7 -30 16 -30 20 0 20 13 40 26 40 8 0 14 5 14 10 0 6 -4
10 -9 10 -13 0 -41 -29 -41 -42 0 -6 -7 -5 -17 3 -15 12 -16 12 -10 -5 4 -10
2 -36 -5 -58 -10 -33 -13 -37 -19 -22 -6 14 -8 10 -8 -15 -1 -33 0 -34 14 -15
8 10 15 24 15 30 0 7 7 15 16 18 8 3 12 10 9 16 -8 12 15 13 34 1 8 -6 11 -18
8 -32 -11 -43 -32 -62 -73 -65 -21 -1 -42 -3 -46 -3 -4 -1 -5 -7 -2 -15 3 -8
1 -17 -5 -21 -6 -3 -11 -15 -11 -26 0 -18 2 -19 15 -5 8 8 15 24 15 35 0 17 6
21 30 19 19 -1 30 -8 30 -18 0 -13 1 -13 10 0 5 8 10 11 10 5 0 -20 -18 -37
-31 -30 -9 6 -11 4 -6 -8 3 -9 0 -31 -7 -49 -14 -32 -14 -32 -19 -8 l-4 25 -2
-26 c0 -16 5 -29 14 -33 10 -3 15 1 15 12 0 9 7 26 15 36 12 16 18 17 27 8 7
-7 20 -12 30 -12 9 0 22 -8 27 -17 6 -10 11 -13 11 -8 0 6 15 11 33 12 17 1
42 5 54 8 17 4 21 2 16 -10 -3 -9 -12 -14 -21 -10 -12 4 -12 3 -3 -8 8 -11 7
-20 -8 -38 -10 -13 -22 -39 -25 -56 -8 -35 -20 -48 -35 -38 -5 3 2 25 15 49
14 25 21 47 16 50 -5 3 -15 -13 -22 -34 -14 -41 -24 -49 -34 -27 -4 6 -4 1 -2
-12 3 -13 0 -35 -5 -48 -5 -14 -7 -28 -5 -31 3 -3 10 7 16 22 9 23 12 25 30
14 24 -15 25 -22 5 -42 -17 -16 -20 -30 -5 -21 6 4 9 -9 9 -32 -1 -21 4 -49 9
-63 11 -25 11 -25 11 8 1 20 6 32 15 32 20 0 58 62 45 75 -14 14 -38 -20 -32
-45 3 -11 0 -20 -6 -20 -5 0 -8 7 -5 15 4 8 1 15 -4 15 -6 0 -13 -8 -15 -17
-3 -10 -5 -4 -6 14 -2 48 8 63 40 63 16 0 29 -4 29 -10 0 -5 7 -7 15 -4 19 8
19 -18 -1 -66 -8 -19 -12 -25 -10 -12 l4 23 -22 -24 c-13 -14 -26 -38 -29 -53
-5 -27 -4 -27 9 -9 8 10 14 23 14 28 0 4 4 5 10 2 6 -3 1 -26 -11 -57 -11 -28
-18 -53 -15 -55 2 -3 7 5 11 18 6 17 9 19 17 8 7 -12 8 -11 6 1 -4 28 13 60
33 62 10 0 25 1 32 2 6 1 17 8 24 16 11 13 12 13 13 0 0 -8 7 -1 15 15 27 59
29 60 70 30 20 -16 60 -36 88 -46 l51 -17 -35 -21 c-61 -38 -139 -49 -139 -20
0 4 -6 6 -14 3 -8 -3 -21 4 -29 16 -8 12 -18 17 -21 12 -3 -5 3 -17 14 -27 11
-10 20 -25 21 -34 0 -10 2 -12 6 -3 5 14 43 17 43 3 0 -8 -32 -24 -52 -26 -3
0 -10 -3 -14 -7 -12 -13 -26 -9 -19 5 4 6 0 4 -8 -5 -8 -10 -25 -18 -38 -18
-13 0 -19 4 -14 8 12 8 47 94 41 100 -3 2 -12 -10 -21 -27 -8 -17 -19 -31 -24
-31 -10 0 -31 -54 -31 -81 0 -11 5 -19 10 -19 6 0 10 7 10 15 0 8 7 15 16 15
14 0 13 -5 -5 -36 -33 -55 -28 -78 19 -94 37 -12 54 -30 29 -30 -5 0 -7 -5 -4
-10 4 -6 2 -17 -5 -24 -18 -23 -31 -79 -20 -86 12 -8 2 -40 -12 -40 -5 0 -8 8
-7 18 5 35 -24 170 -59 267 -41 118 -75 187 -193 396 -49 87 -89 160 -89 165
0 4 -6 15 -14 23 -43 48 -136 268 -166 394 l-19 78 36 47 c19 26 39 49 43 52
4 3 15 20 25 39 13 26 19 31 26 20 7 -11 9 -11 9 4 0 9 7 17 15 17 8 0 15 -5
15 -10z m190 -20 c-6 -11 -16 -17 -22 -14 -7 5 -5 12 7 21 25 18 28 17 15 -7z
m1610 -41 l65 -61 -62 48 c-66 49 -91 74 -77 74 5 0 39 -27 74 -61z m-1220 33
c0 -4 -5 -13 -11 -19 -14 -14 20 -35 114 -68 50 -18 90 -26 116 -23 23 2 41 1
41 -3 0 -3 -14 -25 -31 -48 -36 -51 -114 -91 -176 -91 -45 0 -123 26 -123 41
0 5 -6 9 -14 9 -20 0 -28 30 -14 49 12 14 11 15 -5 2 -9 -8 -20 -11 -24 -7 -8
8 29 36 39 30 10 -7 56 88 50 105 -2 7 2 17 9 22 18 11 29 11 29 1z m-79 -12
l30 0 -40 -58 c-48 -71 -57 -78 -103 -87 -41 -8 -44 -5 -27 28 40 75 81 128
95 123 9 -3 29 -6 45 -6z m1269 -80 c19 -35 10 -32 -46 16 -39 34 -58 44 -63
35 -6 -9 -14 -7 -32 8 -13 11 -19 20 -12 21 6 0 15 -4 18 -10 9 -15 25 -12 25
5 0 18 95 -47 110 -75z m-822 38 c-29 -39 -46 -71 -23 -43 9 11 23 29 31 40
10 15 17 16 25 8 9 -9 9 -16 -2 -30 -13 -17 -12 -17 8 0 28 24 39 6 17 -30
l-17 -28 24 26 c20 22 35 28 87 32 34 3 62 3 62 1 0 -16 -46 -96 -66 -115 -21
-20 -36 -24 -84 -24 -51 0 -63 4 -99 33 -23 18 -41 29 -41 23 0 -5 11 -18 23
-28 16 -12 24 -29 24 -49 0 -16 8 -40 19 -53 26 -31 87 -61 124 -61 38 0 38
-10 -2 -49 -62 -61 -157 -67 -231 -15 -22 16 -42 34 -44 40 -2 6 16 19 40 29
26 10 52 31 65 51 33 50 27 53 -13 7 -19 -22 -48 -46 -65 -53 -35 -14 -122 -9
-144 9 -13 11 -12 17 6 47 12 20 26 33 34 30 7 -3 18 2 24 10 7 8 17 14 23 14
15 0 75 68 83 92 3 11 12 17 19 15 7 -3 12 1 11 10 0 9 5 18 13 21 8 3 11 0 7
-7 -17 -27 3 -7 34 34 19 25 38 45 43 45 5 0 -2 -15 -15 -32z m886 -35 c39
-32 82 -67 95 -78 l25 -20 -24 35 c-14 19 -40 52 -59 72 -19 21 -33 40 -30 43
3 2 39 -30 81 -73 69 -70 76 -81 81 -124 2 -27 3 -48 2 -48 -1 0 -60 56 -130
125 -70 69 -124 125 -120 125 4 0 40 -26 79 -57z m-154 -6 c0 -7 -4 -7 -12 1
-7 7 -17 12 -22 12 -6 0 5 -14 24 -29 19 -16 32 -32 29 -36 -12 -12 -66 44
-66 69 0 24 0 24 23 9 13 -8 24 -20 24 -26z m-138 16 c10 -9 18 -21 18 -26 0
-6 7 -18 16 -28 9 -10 14 -23 13 -28 -2 -6 -26 10 -54 34 -41 37 -47 48 -35
55 20 13 21 13 42 -7z m213 -44 l20 -24 -26 23 c-14 12 -29 22 -34 22 -15 0
26 -38 108 -101 76 -60 93 -56 27 6 -31 30 -65 83 -57 91 5 5 207 -187 207
-198 0 -4 -17 -15 -39 -24 -39 -15 -61 -47 -61 -86 0 -21 -2 -20 -30 7 -16 16
-30 34 -30 41 0 7 -25 40 -55 72 -30 33 -55 65 -55 71 0 6 -6 11 -13 11 -16 0
-93 78 -85 86 9 8 78 -48 78 -63 0 -7 6 -13 13 -13 7 0 26 -14 43 -31 16 -17
52 -49 79 -71 29 -23 10 -1 -44 52 -51 50 -90 94 -87 98 4 3 28 -14 54 -39 26
-24 59 -53 73 -64 14 -11 -15 19 -65 67 -50 48 -85 88 -77 88 11 0 9 5 -5 22
l-19 22 30 -21 c17 -11 39 -31 50 -44z m-560 34 c9 -11 26 -16 61 -15 37 0 55
-5 72 -21 12 -12 42 -24 66 -27 l42 -5 -34 -87 c-38 -100 -51 -107 -117 -63
-20 15 -39 24 -42 21 -9 -8 71 -56 94 -56 13 0 23 -4 23 -10 0 -5 -6 -10 -13
-10 -8 0 -24 -11 -36 -24 -31 -32 -59 -38 -112 -23 -31 10 -44 18 -43 31 2 12
-1 14 -10 6 -7 -5 -16 -7 -19 -3 -14 13 -6 23 17 23 13 0 29 7 36 15 18 22 24
11 10 -17 -11 -22 -10 -22 4 -4 9 11 16 31 16 44 l0 24 -31 -26 c-25 -21 -41
-26 -85 -26 -88 0 -144 33 -159 93 -6 21 -4 27 10 27 12 0 15 -5 11 -16 -5
-14 -4 -15 9 -4 12 10 15 10 15 -2 0 -8 -3 -18 -7 -24 -5 -5 -1 -1 9 8 9 10
22 18 29 18 10 0 10 -3 1 -12 -7 -7 -12 -16 -12 -21 0 -5 9 2 21 17 20 25 58
38 43 14 -4 -7 -3 -8 4 -4 7 4 22 0 34 -8 33 -23 101 -21 123 4 10 11 13 20 8
20 -6 0 -16 -7 -23 -15 -13 -16 -67 -20 -89 -6 -11 7 -11 13 -1 32 13 24 13
24 -9 5 -11 -11 -24 -16 -28 -12 -8 7 38 42 50 38 5 -1 5 2 2 9 -4 6 2 19 14
30 12 12 21 32 21 49 0 34 7 38 25 13z m305 -29 c0 -8 4 -13 8 -10 9 6 99 -81
91 -88 -2 -3 -29 16 -59 41 -53 43 -73 73 -51 73 6 0 11 -7 11 -16z m-9 -34
c28 -15 25 -33 -3 -20 l-23 11 21 -18 c21 -19 28 -53 10 -53 -5 0 -1 -7 10
-15 10 -8 14 -15 8 -15 -6 0 -19 9 -28 19 -16 17 -16 20 -2 28 13 7 12 11 -7
22 -21 13 -21 13 -7 -4 13 -16 13 -18 0 -13 -8 3 -14 14 -12 24 2 10 4 25 4
32 2 15 4 15 29 2z m-1071 -19 c0 -18 -106 -88 -116 -78 -3 2 3 21 12 40 14
30 23 37 53 40 20 2 39 4 44 5 4 1 7 -2 7 -7z m21 -61 c-18 -23 -31 -43 -28
-46 2 -2 15 11 28 31 13 19 30 35 37 35 19 0 14 -12 -20 -47 -17 -18 -29 -35
-26 -39 6 -6 21 9 50 48 12 16 16 16 61 1 26 -8 47 -19 47 -24 0 -19 -79 -60
-126 -65 -54 -6 -104 8 -104 29 0 8 16 35 35 61 20 25 33 46 30 46 -3 0 -1 10
6 21 10 20 12 20 27 5 14 -14 13 -19 -17 -56z m1199 22 c0 -12 -4 -12 -20 3
-11 10 -20 25 -20 33 0 12 4 12 20 -3 11 -10 20 -25 20 -33z m75 -24 c147
-153 157 -175 15 -33 -52 52 -90 95 -85 95 6 0 38 -28 70 -62z m-136 8 c14
-14 21 -29 18 -33 -4 -3 -2 -12 4 -20 22 -26 -6 -12 -41 20 -38 35 -54 85 -22
68 9 -5 28 -21 41 -35z m274 -220 c-40 -12 -81 -54 -109 -109 -38 -73 -47 -72
-130 18 -78 85 -91 115 -22 49 36 -34 38 -35 20 -9 -18 26 -62 72 -127 132
-11 10 -33 26 -48 36 -15 9 -27 24 -27 32 0 22 16 18 38 -10 11 -14 24 -25 28
-25 5 0 58 -50 119 -110 60 -60 111 -107 113 -105 6 5 -42 68 -118 155 -36 41
-51 64 -35 51 17 -12 61 -57 98 -99 71 -79 109 -109 66 -52 -13 17 -29 41 -36
52 -6 12 -44 54 -84 94 -41 41 -70 74 -66 74 4 0 49 -37 100 -83 51 -46 99
-87 107 -92 14 -8 2 7 -85 105 -22 25 0 7 48 -40 70 -68 87 -80 87 -63 0 14
-29 51 -77 101 -43 43 -67 65 -53 48 14 -17 36 -44 50 -61 14 -16 -1 -5 -33
25 -31 30 -55 60 -53 67 3 7 1 15 -4 18 -6 4 -10 11 -10 18 0 6 39 -27 87 -73
85 -82 84 -77 -5 22 -85 96 -38 69 73 -42 115 -115 115 -115 88 -124z m-403
214 c0 -5 -5 -10 -11 -10 -5 0 -7 5 -4 10 3 6 8 10 11 10 2 0 4 -4 4 -10z
m-1095 -30 c-7 -37 -16 -42 -37 -23 -20 18 -20 18 9 30 15 7 29 12 30 13 1 0
0 -9 -2 -20z m1130 -42 c50 -51 41 -49 -28 7 -35 28 -46 45 -29 45 4 0 30 -24
57 -52z m-1233 30 c14 1 15 -2 3 -25 -17 -33 -33 -43 -68 -43 l-28 0 22 40
c17 29 27 39 39 34 8 -4 22 -6 32 -6z m418 5 c0 -5 -5 -15 -10 -23 -9 -13 -11
-13 -20 0 -15 22 -12 30 10 30 11 0 20 -3 20 -7z m-42 -32 c9 -26 7 -34 -21
-68 -50 -60 -63 -77 -51 -70 7 4 29 29 49 56 35 46 40 48 59 36 12 -7 36 -16
54 -20 39 -8 39 -15 7 -53 -54 -65 -143 -80 -208 -37 -36 25 -53 21 -22 -5 14
-12 12 -18 -20 -50 -49 -50 -44 -58 5 -10 39 38 70 51 70 30 0 -5 7 -7 15 -4
29 12 15 -20 -29 -61 -32 -31 -55 -44 -87 -49 -28 -4 -45 -3 -47 4 -2 5 -8 8
-13 5 -4 -3 -22 1 -39 10 -27 14 -29 18 -19 38 6 12 30 42 53 67 22 24 29 34
14 21 -35 -31 -35 -22 -2 35 18 31 30 42 37 35 7 -7 6 -16 -4 -27 -13 -16 -12
-16 6 -5 12 7 21 21 21 31 0 10 -4 16 -8 14 -4 -3 -8 1 -8 8 0 9 12 14 33 13
32 0 127 56 127 76 0 20 19 7 28 -20z m814 -50 c43 -38 31 -50 -13 -15 -32 26
-32 25 6 -16 l40 -44 -37 27 c-49 36 -56 34 -16 -4 33 -30 21 -31 -17 0 -16
13 -15 11 3 -10 12 -14 20 -28 16 -31 -3 -3 0 -9 7 -14 8 -5 10 -3 4 7 -5 8
-4 11 0 6 5 -4 10 -17 12 -28 3 -19 -1 -17 -37 11 -57 45 -60 32 -4 -19 25
-24 44 -44 42 -47 -6 -6 -97 70 -97 81 0 6 10 32 24 59 13 27 22 53 19 58 -12
19 18 6 48 -21z m-236 -73 c37 -10 43 -15 38 -33 -5 -20 -5 -20 11 0 11 14 18
16 23 8 4 -7 13 -9 21 -4 10 6 9 10 -4 14 -13 6 -10 12 17 36 18 16 34 28 35
27 2 -1 -19 -52 -46 -112 -45 -102 -51 -109 -79 -112 -17 -2 -42 4 -56 14 -15
9 -26 12 -26 7 0 -14 43 -35 74 -36 14 -1 26 -4 26 -7 -1 -3 -13 -30 -28 -60
-24 -49 -31 -55 -61 -58 -49 -5 -76 4 -116 39 -24 21 -35 26 -35 16 0 -8 -7
-20 -15 -27 -9 -7 -25 -27 -36 -44 -13 -20 -6 -15 19 14 35 39 42 43 56 31 15
-13 15 -15 -1 -28 -16 -13 -16 -13 5 -3 16 8 28 8 45 -1 12 -7 41 -11 65 -10
44 2 55 -11 24 -28 -13 -7 -23 -6 -30 1 -7 7 -12 8 -12 2 0 -5 8 -14 19 -21
17 -11 15 -18 -35 -145 -46 -118 -55 -133 -78 -136 -31 -4 -66 14 -66 33 0 11
13 15 48 17 46 1 46 1 7 5 -61 5 -80 11 -108 33 l-26 21 21 35 c11 19 26 33
32 31 6 -3 24 14 40 37 l29 41 -34 -32 c-61 -57 -130 -75 -200 -52 -35 12 -72
39 -53 39 6 0 16 12 23 28 l11 27 -20 -27 c-12 -16 -27 -25 -35 -21 -8 3 -15
0 -15 -6 0 -6 5 -11 11 -11 6 0 8 -9 4 -22 -5 -17 -4 -19 3 -9 9 12 16 12 48
-1 21 -9 40 -20 42 -26 4 -14 -60 -52 -97 -57 -37 -4 -95 11 -114 29 -7 7 -28
21 -46 31 -26 13 -31 19 -20 26 10 5 16 3 21 -9 5 -13 7 -14 8 -2 0 8 11 27
25 42 17 20 32 27 54 25 17 -1 31 -6 31 -12 0 -5 5 -2 11 8 5 9 18 17 28 17
11 0 33 16 51 36 24 28 37 35 56 31 13 -2 27 0 30 4 7 12 44 11 44 -1 0 -15
76 -50 109 -50 19 0 40 -10 59 -30 18 -17 40 -30 54 -29 20 1 19 2 -10 15
l-32 14 25 40 26 41 -40 -21 c-22 -11 -54 -20 -71 -20 -62 0 -141 51 -110 70
8 5 17 7 21 4 4 -2 11 1 15 7 5 8 3 9 -6 4 -8 -5 -11 -3 -8 6 3 8 10 14 16 14
6 0 17 7 24 15 11 12 11 12 -4 1 -19 -14 -23 -5 -9 18 5 8 25 16 43 17 18 2
44 6 57 10 22 6 23 5 12 -17 l-12 -24 18 24 c47 63 93 103 113 98 11 -3 20 -1
20 4 0 5 7 9 16 9 11 0 14 -4 8 -13 -5 -7 -2 -5 6 4 8 9 21 25 28 35 13 19 12
15 -3 -31 -3 -11 5 0 19 25 14 25 25 50 25 55 0 6 -6 -1 -14 -15 -8 -14 -14
-19 -15 -12 0 9 -11 5 -31 -12 -38 -32 -68 -40 -116 -31 -39 7 -108 39 -117
53 -8 13 23 52 42 52 9 1 31 18 47 39 l30 38 29 -24 c15 -13 48 -29 72 -35z
m355 45 c13 -16 12 -17 -3 -4 -10 7 -18 15 -18 17 0 8 8 3 21 -13z m-685 -75
c24 -7 44 -16 44 -22 0 -5 -22 -31 -49 -57 -45 -45 -52 -49 -98 -49 -49 0
-119 33 -151 72 -11 14 -10 16 12 14 14 -2 27 3 30 10 3 8 12 14 19 14 8 0 20
7 27 15 7 9 18 14 25 11 17 -6 35 28 28 55 -6 20 -1 18 31 -14 23 -23 54 -42
82 -49z m661 6 c-10 -10 -57 36 -57 55 0 11 10 6 32 -16 18 -18 29 -36 25 -39z
m-17 -9 c14 -15 18 -25 11 -25 -11 0 -11 -3 0 -17 7 -10 1 -7 -14 6 -15 14
-25 27 -22 29 3 3 0 11 -6 19 -20 24 7 14 31 -12z m-1182 -50 c-12 -25 -25
-45 -29 -45 -14 0 -19 33 -7 48 12 13 11 14 -9 2 -33 -21 -1 -76 58 -100 16
-7 29 -16 29 -20 0 -16 -40 -41 -75 -47 l-37 -6 22 43 c14 27 17 41 9 38 -7
-2 -17 -18 -21 -36 -10 -38 -20 -45 -53 -36 -27 7 -27 9 -11 59 4 11 -1 5 -12
-14 -10 -19 -22 -29 -25 -24 -8 12 7 69 17 65 4 -1 18 10 31 26 16 20 22 36
19 53 -5 19 -4 21 5 9 8 -11 13 -12 19 -3 4 7 26 17 47 22 22 5 41 9 42 10 2
1 -7 -19 -19 -44z m642 35 c0 -5 -4 -10 -10 -10 -5 0 -10 5 -10 10 0 6 5 10
10 10 6 0 10 -4 10 -10z m495 0 c3 -5 1 -10 -4 -10 -6 0 -11 5 -11 10 0 6 2
10 4 10 3 0 8 -4 11 -10z m-1255 -30 c-6 -12 -14 -19 -17 -17 -2 3 1 15 7 27
6 12 14 19 17 17 2 -3 -1 -15 -7 -27z m1179 -31 c2 -8 -10 -3 -29 12 -19 14
-36 32 -39 40 -2 8 10 3 29 -12 19 -14 36 -32 39 -40z m-399 11 c14 -10 44
-23 68 -30 47 -15 50 -20 24 -43 -51 -47 -175 -62 -252 -31 -47 19 -51 31 -12
40 28 7 55 31 85 77 19 29 28 28 87 -13z m475 20 c3 -5 1 -10 -4 -10 -6 0 -11
5 -11 10 0 6 2 10 4 10 3 0 8 -4 11 -10z m167 -124 c4 3 4 -3 1 -15 -8 -29
-18 -26 -42 13 -12 18 -41 53 -66 77 -25 24 -45 48 -45 54 0 5 33 -23 73 -63
40 -40 76 -70 79 -66z m28 10 c0 -6 -27 16 -60 49 -33 33 -60 64 -60 69 0 6
27 -16 60 -49 33 -33 60 -64 60 -69z m-986 44 c23 -11 52 -20 64 -20 28 0 28
-21 0 -47 -49 -44 -112 -57 -170 -34 -25 9 -27 13 -18 37 6 15 8 29 6 32 -3 2
-8 -7 -12 -22 -8 -33 -20 -33 -28 0 -5 20 -1 33 17 53 14 14 30 36 36 49 l12
23 26 -25 c13 -14 44 -34 67 -46z m701 21 c31 -31 58 -44 35 -16 -20 24 -6 28
15 5 13 -15 14 -20 5 -20 -11 0 -11 -3 -2 -12 7 -7 12 -16 12 -20 0 -4 -27 12
-59 37 -59 45 -78 55 -65 33 4 -6 3 -8 -4 -5 -8 6 -9 20 -3 45 2 7 39 -19 66
-47z m100 -1 c3 -5 2 -10 -4 -10 -5 0 -13 5 -16 10 -3 6 -2 10 4 10 5 0 13 -4
16 -10z m-171 -25 c1 -10 13 -26 27 -36 13 -10 20 -19 14 -19 -5 0 -23 11 -40
25 -16 13 -25 24 -18 25 7 0 10 7 6 18 -3 9 -3 14 1 10 4 -3 9 -14 10 -23z
m-1395 -95 c-28 -66 -70 -142 -123 -222 -10 -16 -16 -28 -13 -28 21 0 146 222
168 298 7 23 16 39 21 34 4 -4 -1 -31 -12 -59 -11 -29 -17 -59 -14 -67 6 -15
-35 -120 -44 -112 -2 3 5 28 17 55 25 58 26 68 7 52 -7 -6 -16 -24 -19 -39 -6
-25 -64 -132 -112 -207 -17 -26 -17 -28 -2 -16 10 8 34 43 54 78 52 95 57 76
9 -42 -14 -34 -14 -37 -1 -21 23 30 19 -1 -6 -41 l-22 -35 22 13 c11 8 21 18
21 22 0 5 12 28 28 51 15 22 36 60 46 84 11 23 21 41 23 39 6 -7 -29 -97 -38
-97 -5 0 -9 -9 -9 -20 0 -12 -11 -42 -24 -68 -19 -38 -21 -49 -11 -59 17 -16
26 -5 81 100 24 45 44 76 44 69 0 -21 -100 -213 -115 -218 -17 -7 -65 24 -65
42 0 8 -5 14 -11 14 -18 0 -107 73 -112 93 -3 9 -13 17 -23 17 -12 0 -5 10 24
35 57 50 157 185 201 272 45 92 52 81 10 -17z m1602 73 c13 -16 12 -17 -3 -4
-10 7 -18 15 -18 17 0 8 8 3 21 -13z m-4 -44 c26 -28 49 -46 52 -41 10 17 42
-13 35 -32 -3 -9 -10 -16 -15 -16 -4 0 -6 -7 -3 -15 5 -11 -1 -15 -17 -15 -16
1 -37 17 -63 48 l-40 47 42 -40 c23 -21 42 -35 42 -29 0 14 -53 96 -73 113
-17 13 -23 31 -11 31 3 0 26 -23 51 -51z m-1023 -31 c-15 -30 -16 -32 -1 -19
10 7 17 20 17 27 0 8 5 14 10 14 6 0 10 -4 10 -8 0 -4 14 -13 31 -19 27 -10
29 -14 19 -32 -16 -31 -59 -49 -110 -47 -36 1 -45 5 -44 19 2 14 -1 15 -12 6
-20 -16 -18 0 7 59 12 28 27 53 35 56 18 7 18 1 0 -27 -8 -12 -17 -33 -20 -47
-5 -17 0 -13 14 13 12 21 29 47 38 58 17 20 17 20 20 0 2 -11 -5 -35 -14 -53z
m392 22 c31 0 35 -9 18 -42 -19 -37 -70 -68 -110 -68 -23 0 -42 -10 -66 -34
-58 -58 -154 -58 -208 -1 l-23 25 21 0 c12 0 22 5 22 10 0 6 6 10 13 10 7 0
21 14 31 32 l19 31 24 -27 c12 -15 23 -24 23 -20 0 3 8 0 18 -7 9 -7 6 0 -8
15 -21 24 -22 28 -6 22 10 -3 25 -1 33 6 8 6 13 7 12 2 -4 -24 3 -22 30 8 15
18 33 43 40 55 l11 22 43 -19 c23 -11 51 -20 63 -20z m-900 3 c-5 -20 -4 -24
3 -13 40 60 -4 -107 -48 -180 -4 -8 -19 -37 -31 -65 -17 -37 -25 -45 -28 -31
-2 10 12 51 31 90 19 39 40 85 45 101 5 17 13 39 18 49 5 14 4 17 -4 12 -15
-9 -15 -7 -1 33 13 38 23 41 15 4z m444 23 c0 -4 -41 -99 -45 -104 -7 -8 -35
13 -35 27 0 26 31 66 40 51 6 -9 10 -6 15 9 5 17 25 31 25 17z m1011 -13 c13
-16 12 -17 -3 -4 -10 7 -18 15 -18 17 0 8 8 3 21 -13z m-135 -25 c41 -37 61
-68 44 -68 -6 0 -16 11 -22 25 -6 14 -16 25 -21 25 -13 0 -47 30 -47 42 0 14
9 9 46 -24z m175 15 c13 -16 12 -17 -3 -4 -10 7 -18 15 -18 17 0 8 8 3 21 -13z
m-86 -13 c10 -11 16 -20 13 -20 -3 0 -13 9 -23 20 -10 11 -16 20 -13 20 3 0
13 -9 23 -20z m-124 -37 c8 -16 17 -30 20 -33 4 -3 21 -28 38 -57 34 -55 63
-77 53 -41 -4 16 -2 19 9 12 9 -5 8 1 -4 19 -29 45 -17 67 13 24 30 -44 39
-47 32 -9 l-5 27 23 -20 24 -20 -24 35 c-13 19 -17 29 -10 23 29 -26 33 -12 5
17 -16 17 -24 30 -19 30 6 0 25 -18 43 -40 19 -24 37 -38 44 -33 6 4 1 -9 -11
-28 -13 -18 -32 -53 -44 -77 -16 -33 -23 -40 -33 -32 -11 9 -12 7 -8 -8 3 -13
-3 -25 -18 -36 -21 -15 -23 -14 -39 12 -23 37 -14 59 12 29 19 -22 19 -22 2
13 -9 19 -43 75 -75 123 -33 48 -59 90 -59 92 0 15 19 1 31 -22z m-1231 -13
c10 -25 10 -34 -4 -55 -9 -13 -16 -35 -17 -47 0 -13 -11 -45 -24 -73 -19 -41
-23 -46 -24 -24 -1 27 36 148 50 164 5 5 9 16 9 25 -1 8 -10 -1 -21 -20 -11
-19 -17 -26 -14 -15 4 11 9 32 12 48 7 35 18 34 33 -3z m1351 3 c13 -16 12
-17 -3 -4 -17 13 -22 21 -14 21 2 0 10 -8 17 -17z m-1024 -32 c12 -11 24 -17
27 -14 3 4 6 2 6 -4 0 -6 8 -10 18 -9 10 0 16 -5 14 -13 -3 -12 0 -12 12 -1
17 14 21 3 7 -19 -5 -7 -13 -11 -19 -7 -6 3 -13 -3 -17 -14 -3 -11 -12 -21
-18 -22 -22 -2 -32 -5 -49 -13 -10 -4 -26 -4 -35 1 -10 4 -21 6 -25 6 -5 -1
-8 0 -8 2 0 13 54 126 59 126 4 0 17 -9 28 -19z m888 -1 c10 -11 15 -23 12
-27 -4 -4 -14 2 -22 13 -8 10 -15 15 -15 10 0 -5 7 -18 17 -28 9 -10 12 -18 6
-18 -18 0 -44 37 -37 54 8 21 17 20 39 -4z m-1185 -29 c0 -23 -41 -123 -48
-117 -7 7 31 136 40 136 5 0 8 -8 8 -19z m1170 -26 c13 -14 21 -27 18 -30 -2
-3 -17 9 -33 25 -16 17 -24 30 -19 30 6 0 21 -11 34 -25z m-755 -4 c-3 -6 -11
-11 -17 -11 -6 0 -6 6 2 15 14 17 26 13 15 -4z m813 -1 c7 -11 11 -20 9 -20
-2 0 -12 9 -22 20 -10 11 -14 20 -9 20 5 0 15 -9 22 -20z m-24 -76 c36 -48 66
-82 66 -77 0 6 -16 31 -36 57 -20 26 -34 50 -31 52 5 6 87 -104 87 -117 0 -4
-6 -12 -13 -16 -7 -4 -20 -18 -29 -31 l-16 -24 -31 29 c-28 26 -101 144 -101
164 0 24 21 2 70 -71 51 -75 76 -100 49 -48 l-12 23 23 -20 24 -20 -22 30
c-11 17 -41 55 -66 85 -25 30 -46 58 -46 62 0 22 23 0 84 -78z m-1188 54 c-9
-12 -16 -28 -16 -34 0 -7 -17 -50 -38 -96 -45 -96 -53 -118 -46 -118 7 0 91
179 99 213 7 25 25 48 25 31 0 -19 -26 -91 -37 -102 -7 -7 -13 -25 -13 -39 0
-13 -12 -54 -26 -89 -14 -36 -24 -68 -21 -70 6 -6 58 127 84 213 10 35 22 63
27 63 4 0 5 -12 1 -27 -4 -16 -13 -56 -20 -90 -8 -34 -27 -93 -43 -132 -17
-39 -25 -68 -19 -64 7 4 16 8 22 8 5 0 20 29 33 65 13 36 27 73 32 82 16 29
25 102 12 94 -7 -4 -12 -1 -12 8 0 23 15 19 29 -7 10 -19 6 -38 -23 -127 -19
-57 -33 -106 -32 -108 5 -5 44 99 57 150 6 26 16 45 21 42 13 -8 3 -59 -30
-156 -22 -66 -29 -78 -52 -83 -31 -7 -70 6 -89 29 -7 9 -28 16 -47 16 -18 0
-35 4 -39 10 -6 10 62 153 76 158 5 2 9 10 9 18 0 23 70 164 81 164 6 0 3 -10
-5 -22z m433 9 c6 -8 8 -17 4 -21 -4 -4 -1 -5 7 -2 8 3 21 2 29 -3 36 -23 -69
-72 -119 -56 -26 8 -25 30 0 55 28 28 48 25 24 -2 l-19 -23 22 19 c12 10 22
21 21 25 -3 24 13 28 31 8z m541 -7 c-6 -11 -15 -20 -20 -20 -14 0 -12 27 3
33 23 10 28 7 17 -13z m-650 -50 c0 -5 -7 -7 -15 -4 -8 4 -15 8 -15 10 0 2 7
4 15 4 8 0 15 -4 15 -10z m72 -47 c12 -7 -66 -83 -84 -83 -21 0 -23 23 -7 69
10 30 13 31 48 25 20 -4 39 -8 43 -11z m-532 -64 c-20 -48 -30 -33 -12 19 10
30 18 41 20 29 2 -10 -2 -32 -8 -48z m939 40 c-9 -17 -13 -19 -20 -8 -5 8 -3
16 4 21 22 14 28 8 16 -13z m-53 -5 c-3 -8 -2 -13 3 -10 5 3 24 -9 43 -27 18
-17 42 -37 52 -42 17 -10 17 -14 6 -35 -10 -20 -10 -23 0 -13 10 9 19 7 41 -9
15 -11 35 -18 43 -15 10 4 16 1 16 -9 0 -10 -6 -14 -15 -10 -12 4 -13 2 -6
-13 6 -10 8 -20 6 -23 -8 -8 -75 -253 -75 -275 0 -27 -16 -29 -50 -7 -17 10
-14 6 7 -13 29 -26 32 -33 26 -66 -9 -59 14 -123 88 -246 86 -142 140 -252
191 -396 41 -114 91 -324 103 -432 6 -54 4 -64 -15 -83 -27 -27 -31 -25 -206
65 -183 94 -223 121 -217 144 2 10 -14 94 -37 187 -23 95 -38 181 -36 199 3
16 -2 50 -10 74 -9 26 -12 57 -8 74 l6 31 14 -25 c7 -13 13 -31 13 -39 0 -9
-6 -4 -14 10 -18 32 -19 19 -2 -23 8 -18 12 -38 10 -44 -3 -7 0 -13 6 -13 6 0
11 6 11 13 0 8 4 7 11 -3 17 -24 0 49 -22 99 -20 43 -19 71 1 71 6 0 8 -4 5
-10 -3 -5 6 -44 20 -87 17 -49 22 -79 16 -81 -6 -2 -11 -11 -12 -20 0 -13 -2
-13 -8 3 -5 13 -8 -2 -7 -41 1 -34 4 -57 8 -51 4 6 9 9 11 7 8 -9 38 -160 52
-257 8 -60 13 -82 14 -56 1 52 -33 255 -53 311 -8 23 -11 42 -6 42 6 0 10 10
10 23 1 17 2 19 9 7 12 -20 67 -279 76 -352 3 -32 10 -58 14 -58 10 0 -12 142
-38 255 -18 76 -18 129 -1 140 15 9 70 -268 70 -352 0 -24 5 -43 10 -43 12 0
5 71 -21 220 -11 64 -15 106 -9 108 6 2 10 8 10 14 0 6 -6 8 -14 5 -9 -4 -16
4 -19 21 -3 15 -1 29 4 30 5 2 9 13 9 25 0 16 -3 18 -9 8 -6 -9 -11 -10 -15
-2 -4 6 -2 11 3 11 6 0 12 8 12 18 1 16 2 16 6 0 2 -10 8 -18 12 -18 3 0 6
-15 6 -32 0 -18 4 -39 8 -45 5 -7 6 -24 3 -38 -8 -30 3 -82 14 -65 7 12 11 -4
35 -164 8 -48 16 -91 19 -94 12 -11 5 39 -23 193 -17 86 -27 164 -24 172 5 12
3 14 -7 8 -10 -6 -12 -4 -7 9 4 10 7 23 7 29 1 48 60 -135 90 -274 10 -50 21
-94 24 -97 14 -14 -38 218 -70 312 -28 81 -30 99 -8 71 16 -19 16 -19 9 5 -4
14 -16 47 -26 74 -29 77 -16 65 24 -21 50 -112 102 -272 128 -398 12 -61 26
-114 30 -119 22 -25 -41 248 -87 375 -30 87 -130 294 -172 359 -30 48 -61 60
-83 34 -6 -8 -18 -14 -25 -14 -17 0 -18 -12 -2 -28 6 -6 13 -33 14 -58 2 -26
-1 -43 -5 -38 -15 17 -30 74 -24 91 5 13 3 15 -13 8 -45 -19 -112 -32 -148
-29 -51 5 -124 38 -159 72 -25 23 -57 72 -57 85 0 12 40 48 48 43 6 -3 18 6
27 20 9 15 12 23 5 19 -8 -5 -11 -3 -9 4 3 7 9 12 14 12 6 0 17 7 25 14 9 8
21 11 28 7 8 -6 5 -21 -14 -56 -14 -27 -20 -45 -14 -41 8 5 11 3 8 -6 -7 -22
-35 -22 -57 0 -24 24 -23 25 -25 -11 -2 -21 1 -25 11 -16 19 16 28 2 12 -19
-12 -16 -11 -16 8 0 26 22 51 14 31 -10 -16 -19 -19 -43 -6 -43 6 0 7 7 4 16
-3 8 -2 13 3 10 4 -3 18 6 29 19 23 26 70 36 56 13 -4 -7 2 -5 14 5 12 11 18
25 15 35 -5 11 -3 13 8 7 11 -6 12 -5 2 6 -19 19 -16 31 5 21 24 -13 69 -7
100 14 36 24 53 23 80 -4 12 -12 32 -22 45 -21 22 0 22 0 -2 10 -51 20 -54 29
-24 63 25 28 26 29 2 8 -27 -24 -78 -29 -97 -10 -14 14 -16 32 -3 24 5 -3 15
2 22 11 12 15 12 16 -1 8 -8 -5 -21 -10 -28 -11 -25 -4 -26 -14 -3 -38 23 -24
23 -24 3 -35 -35 -19 -83 -13 -119 15 -31 23 -49 20 -20 -5 8 -6 12 -23 9 -41
-3 -19 0 -30 7 -30 7 0 9 -5 5 -11 -5 -8 -8 -8 -14 0 -5 9 -14 9 -35 1 -15 -6
-29 -9 -31 -7 -3 3 6 35 29 100 8 22 15 28 32 25 11 -3 27 2 35 10 12 13 10
14 -13 8 -36 -9 -34 1 6 37 17 16 24 24 15 17 -10 -7 -18 -9 -18 -4 0 4 -11
-3 -25 -16 -14 -13 -25 -20 -25 -16 0 5 -6 4 -13 -2 -7 -6 -18 -7 -26 -3 -10
6 -10 10 -2 16 7 3 9 15 6 26 -4 11 -2 19 5 19 6 0 8 -5 4 -12 -5 -8 0 -7 11
2 10 8 19 13 21 10 1 -3 12 7 24 23 l22 27 -37 -21 c-26 -16 -45 -20 -72 -16
-45 8 -49 12 -29 32 9 9 16 26 16 38 0 22 -1 21 -20 -3 -11 -14 -20 -32 -20
-40 0 -11 -5 -9 -21 7 -19 19 -19 50 1 38 4 -2 13 9 20 25 13 32 24 37 37 18
4 -7 27 -24 51 -36 34 -19 52 -23 85 -18 23 3 50 7 60 8 10 1 20 14 24 28 10
42 14 42 46 6 37 -41 118 -69 139 -48 9 9 3 12 -29 12 -39 0 -109 35 -105 53
1 4 4 6 6 5 2 -2 13 5 23 15 11 9 23 14 26 10 4 -3 7 2 7 11 0 10 9 31 21 47
17 24 24 27 35 18 8 -6 14 -17 14 -24 0 -6 7 -12 15 -12 19 0 19 11 0 27 -14
12 -13 16 10 40 35 37 32 55 -4 19 -16 -16 -39 -29 -51 -29 -28 0 -70 44 -69
72 0 21 1 21 8 4 7 -19 8 -19 14 3 3 14 11 22 19 19 7 -3 21 5 31 18 22 29 21
29 -28 4 -22 -11 -52 -20 -67 -20 -38 0 -97 25 -104 45 -10 25 -22 17 -16 -12
3 -16 7 -23 9 -17 3 8 16 5 41 -7 20 -11 47 -19 59 -19 65 0 -32 -71 -107 -78
-50 -5 -86 9 -138 54 l-21 18 42 14 c23 8 44 18 47 22 10 15 83 60 97 60 8 0
31 16 51 35 39 36 69 47 58 19z m-640 -146 c-7 -83 -17 -108 -43 -108 -10 0
-13 6 -10 18 4 9 16 52 29 95 13 42 25 77 27 77 2 0 1 -37 -3 -82z m-286 42
c-6 -12 -14 -19 -17 -17 -2 3 1 15 7 27 6 12 14 19 17 17 2 -3 -1 -15 -7 -27z
m643 -94 c-3 -6 -3 -8 2 -4 4 4 16 3 27 -3 18 -10 18 -12 4 -34 -20 -30 -20
-36 -1 -29 8 4 15 15 15 26 0 17 4 19 28 14 61 -15 114 -8 156 21 l41 29 36
-37 36 -36 -34 -42 c-29 -34 -40 -41 -72 -41 -53 0 -104 37 -94 69 4 12 3 13
-5 3 -7 -11 -12 -11 -24 1 -12 13 -17 12 -37 -4 -13 -11 -39 -19 -57 -19 l-34
0 14 34 c13 30 12 34 -2 32 -9 -2 -22 -14 -30 -27 -14 -24 -14 -24 7 1 11 14
21 22 21 18 0 -14 -23 -58 -32 -58 -4 0 -7 -3 -5 -7 1 -5 -2 -10 -8 -12 -5 -2
-14 -10 -20 -16 -13 -16 -59 -27 -80 -19 -24 9 -34 44 -23 77 8 21 13 25 23
17 8 -6 13 -17 11 -23 -1 -7 -1 -9 1 -4 6 10 31 9 38 -3 3 -5 1 -19 -5 -30 -6
-11 -7 -20 -3 -20 12 0 85 140 74 140 -14 0 -52 -51 -46 -60 8 -13 -16 -23
-27 -12 -11 11 -6 20 45 74 27 29 29 30 47 13 11 -10 17 -23 13 -29z m-113
-15 c0 -12 -20 -25 -27 -18 -7 7 6 27 18 27 5 0 9 -4 9 -9z m283 -114 l37 -25
-21 -26 c-41 -52 -132 -41 -195 25 -35 37 -27 59 23 59 21 1 49 7 63 15 22 13
27 12 41 -5 9 -10 32 -30 52 -43z m-225 -41 c-16 -30 -16 -30 -13 6 4 45 4 45
14 29 6 -9 6 -23 -1 -35z m-28 17 c-1 -20 -28 -55 -34 -45 -8 13 10 52 24 52
6 0 10 -3 10 -7z m-36 -85 c-4 -6 -8 -27 -10 -47 -2 -33 -2 -35 12 -17 8 11
14 26 14 34 0 7 3 12 8 10 4 -3 22 -11 40 -18 29 -13 43 -30 24 -30 -4 0 -16
-14 -26 -31 -23 -39 -33 -31 -11 11 25 49 13 45 -18 -6 -15 -25 -22 -42 -15
-38 8 5 9 2 5 -10 -4 -10 -7 -22 -7 -27 0 -5 -5 -9 -11 -9 -6 0 -8 7 -5 16 5
14 4 15 -9 4 -16 -13 -21 -1 -7 16 5 5 19 27 31 49 21 37 12 30 -25 -20 -14
-19 -14 -19 -8 4 4 14 2 21 -3 18 -6 -4 -9 7 -8 26 2 46 16 88 26 81 5 -3 6
-10 3 -16z m126 -67 c0 -5 -6 -16 -12 -23 -7 -8 -26 -30 -43 -49 -28 -32 -29
-33 -2 -10 28 26 34 23 17 -10 -7 -12 -20 -18 -35 -17 -14 1 -25 4 -25 5 0 12
47 73 56 73 7 0 14 9 17 20 5 20 27 29 27 11z m0 -70 c0 -6 -4 -13 -10 -16 -5
-3 -10 1 -10 9 0 9 5 16 10 16 6 0 10 -4 10 -9z m-110 -178 c-1 -33 -27 -153
-35 -161 -4 -4 -5 4 -2 18 3 14 9 55 13 93 4 37 11 67 15 67 5 0 9 -8 9 -17z
m-90 -239 c-47 -208 -98 -398 -99 -369 -2 31 134 591 137 568 2 -11 -15 -101
-38 -199z m552 198 c4 12 68 -91 68 -108 0 -5 -14 15 -31 44 -17 29 -34 51
-37 48 -2 -3 1 -12 8 -20 6 -9 10 -21 8 -28 -3 -7 -12 1 -22 20 -10 19 -20 32
-23 29 -2 -3 0 -14 6 -25 14 -26 14 -29 -3 -29 -8 0 -12 6 -8 15 3 10 1 13 -6
8 -20 -12 -24 15 -6 33 12 12 23 15 31 9 7 -6 13 -4 15 4z m-447 -119 c-3 -23
-11 -45 -17 -49 -6 -4 -8 4 -5 22 3 16 9 54 14 84 7 48 8 51 11 20 2 -19 1
-54 -3 -77z m32 75 c-3 -7 -5 -2 -5 12 0 14 2 19 5 13 2 -7 2 -19 0 -25z m34
-7 c-5 -4 -11 -31 -14 -61 -3 -50 -3 -48 -5 19 -2 65 0 72 13 61 10 -8 12 -16
6 -19z m26 -23 c-3 -8 -6 -5 -6 6 -1 11 2 17 5 13 3 -3 4 -12 1 -19z m244 -14
c-8 -29 -8 -29 -15 -5 -6 16 -4 26 5 32 18 11 20 8 10 -27z m-193 -22 c2 -23
-1 -42 -7 -42 -5 0 -12 -8 -14 -17 -3 -10 -4 10 -4 45 1 71 20 82 25 14z m172
2 c17 -50 5 -53 -20 -5 -16 33 -17 41 -6 41 8 0 20 -16 26 -36z m-243 4 c-3
-8 -6 -5 -6 6 -1 11 2 17 5 13 3 -3 4 -12 1 -19z m428 -18 c24 -54 12 -63 -14
-11 -23 45 -25 51 -13 51 5 0 17 -18 27 -40z m-61 14 c10 -25 -1 -29 -14 -5
-6 12 -7 21 -1 21 5 0 12 -7 15 -16z m-334 -56 c0 -74 -5 -73 -14 5 -5 38 -4
57 3 57 7 0 11 -24 11 -62z m-24 -38 c1 -33 -2 -60 -7 -60 -5 0 -9 30 -9 67 0
81 12 76 16 -7z m151 13 c-3 -10 -5 -4 -5 12 0 17 2 24 5 18 2 -7 2 -21 0 -30z
m193 -13 c0 -9 4 -20 9 -25 17 -19 34 -86 24 -96 -7 -7 -15 7 -23 38 -7 26
-18 62 -26 80 -8 17 -14 37 -14 45 1 19 30 -22 30 -42z m45 20 c20 -38 19 -63
-1 -30 -9 14 -13 17 -10 7 4 -11 8 -31 11 -45 l5 -27 -11 25 c-10 22 -19 100
-12 100 1 0 9 -13 18 -30z m-550 -20 c-4 -17 -9 -29 -12 -26 -3 2 -2 19 2 36
4 17 9 29 12 26 3 -2 2 -19 -2 -36z m67 -49 c-11 -80 -34 -108 -25 -30 6 57
20 105 28 97 3 -3 1 -33 -3 -67z m552 29 l7 -25 -15 25 c-17 28 -21 50 -7 35
5 -6 12 -21 15 -35z m-220 -60 l6 -35 -14 35 c-17 42 -20 58 -7 45 5 -6 12
-26 15 -45z"/>
<path d="M1118 5173 c7 -3 16 -2 19 1 4 3 -2 6 -13 5 -11 0 -14 -3 -6 -6z"/>
<path d="M1198 5123 c17 -2 47 -2 65 0 17 2 3 4 -33 4 -36 0 -50 -2 -32 -4z"/>
<path d="M1243 5073 c9 -2 23 -2 30 0 6 3 -1 5 -18 5 -16 0 -22 -2 -12 -5z"/>
<path d="M1099 5023 c-13 -16 -12 -17 4 -4 9 7 17 15 17 17 0 8 -8 3 -21 -13z"/>
<path d="M1318 5033 c6 -2 18 -2 25 0 6 3 1 5 -13 5 -14 0 -19 -2 -12 -5z"/>
<path d="M1365 5020 c3 -5 17 -10 31 -10 13 0 24 5 24 10 0 6 -14 10 -31 10
-17 0 -28 -4 -24 -10z"/>
<path d="M1050 4958 c-19 -24 -26 -37 -17 -29 19 15 61 71 54 71 -2 0 -19 -19
-37 -42z"/>
<path d="M1428 4993 c6 -2 18 -2 25 0 6 3 1 5 -13 5 -14 0 -19 -2 -12 -5z"/>
<path d="M949 4973 c-13 -16 -12 -17 4 -4 9 7 17 15 17 17 0 8 -8 3 -21 -13z"/>
<path d="M1250 4957 c-79 -42 -113 -148 -72 -226 35 -70 113 -101 179 -71 80
36 127 125 108 209 -11 53 -24 44 -18 -13 3 -30 3 -66 -1 -80 -7 -29 -62 -96
-79 -96 -6 0 1 12 15 28 28 29 48 72 47 100 0 9 -7 -3 -14 -28 -18 -57 -51
-89 -99 -97 -30 -5 -41 -1 -61 17 -14 13 -25 29 -25 37 0 7 -4 13 -10 13 -14
0 -12 -13 5 -36 20 -26 19 -40 -2 -23 -30 25 -55 98 -48 138 14 78 82 141 152
141 15 0 46 -9 67 -21 21 -11 35 -16 32 -11 -10 17 -73 42 -103 42 -17 0 -49
-10 -73 -23z"/>
<path d="M1048 4908 c-45 -53 -62 -78 -55 -78 2 0 27 29 55 65 63 78 63 86 0
13z"/>
<path d="M1268 4934 c-28 -15 -48 -42 -48 -66 0 -7 9 1 20 19 27 44 85 62 131
39 l34 -16 -24 20 c-27 23 -75 25 -113 4z"/>
<path d="M1050 4850 c-40 -50 -71 -93 -69 -95 3 -2 37 39 77 91 40 52 70 94
68 94 -2 0 -37 -41 -76 -90z"/>
<path d="M1300 4893 c-64 -23 -66 -130 -3 -154 78 -30 142 88 77 140 -27 21
-45 24 -74 14z m78 -100 c5 -17 -26 -29 -40 -15 -6 6 -7 15 -3 22 9 14 37 9
43 -7z"/>
<path d="M1538 4863 c7 -3 16 -2 19 1 4 3 -2 6 -13 5 -11 0 -14 -3 -6 -6z"/>
<path d="M1037 4793 c-48 -63 -60 -83 -54 -83 3 0 28 32 56 70 61 84 60 94 -2
13z"/>
<path d="M1062 4773 c-51 -71 -93 -135 -76 -118 6 6 28 35 49 65 21 30 49 70
63 88 13 17 22 32 19 32 -3 0 -27 -30 -55 -67z"/>
<path d="M1097 4768 c-67 -85 -135 -188 -124 -188 2 0 21 26 42 58 21 31 58
83 82 115 51 66 51 78 0 15z"/>
<path d="M1518 4793 c6 -2 18 -2 25 0 6 3 1 5 -13 5 -14 0 -19 -2 -12 -5z"/>
<path d="M1515 4760 c-13 -6 -5 -7 25 -3 25 3 47 7 49 9 9 8 -55 2 -74 -6z"/>
<path d="M1089 4713 c-13 -16 -12 -17 4 -4 9 7 17 15 17 17 0 8 -8 3 -21 -13z"/>
<path d="M1110 4688 c-16 -22 -30 -46 -30 -52 0 -6 10 5 21 24 12 19 28 43 37
53 8 9 12 17 9 17 -4 0 -20 -19 -37 -42z"/>
<path d="M1508 4723 c12 -2 32 -2 45 0 12 2 2 4 -23 4 -25 0 -35 -2 -22 -4z"/>
<path d="M1628 4703 c6 -2 18 -2 25 0 6 3 1 5 -13 5 -14 0 -19 -2 -12 -5z"/>
<path d="M821 4684 c0 -11 3 -14 6 -6 3 7 2 16 -1 19 -3 4 -6 -2 -5 -13z"/>
<path d="M1558 4693 c7 -3 16 -2 19 1 4 3 -2 6 -13 5 -11 0 -14 -3 -6 -6z"/>
<path d="M1044 4645 c-14 -25 -25 -48 -23 -50 2 -2 16 19 32 46 34 62 27 65
-9 4z"/>
<path d="M1115 4644 c-9 -15 -12 -23 -6 -20 11 7 35 46 28 46 -3 0 -12 -12
-22 -26z"/>
<path d="M1627 4653 c18 -2 50 -2 70 0 21 2 7 4 -32 4 -38 0 -55 -2 -38 -4z"/>
<path d="M1265 4629 c-4 -6 -5 -12 -2 -15 2 -3 7 2 10 11 7 17 1 20 -8 4z"/>
<path d="M1718 4633 c7 -3 16 -2 19 1 4 3 -2 6 -13 5 -11 0 -14 -3 -6 -6z"/>
<path d="M1804 4598 l-19 -23 23 19 c21 18 27 26 19 26 -2 0 -12 -10 -23 -22z"/>
<path d="M832 4585 c0 -16 2 -22 5 -12 2 9 2 23 0 30 -3 6 -5 -1 -5 -18z"/>
<path d="M734 4563 c-23 -31 -24 -34 -5 -18 22 19 46 55 38 55 -3 0 -17 -17
-33 -37z"/>
<path d="M852 4560 c0 -14 2 -19 5 -12 2 6 2 18 0 25 -3 6 -5 1 -5 -13z"/>
<path d="M1244 4474 c-18 -14 -18 -15 4 -4 12 6 22 13 22 15 0 8 -5 6 -26 -11z"/>
<path d="M1197 4411 c-60 -32 -114 -64 -120 -71 -7 -7 13 1 44 18 68 39 74 39
53 6 -10 -14 -39 -36 -66 -50 -26 -13 -48 -27 -48 -30 0 -7 150 73 233 124 31
19 57 37 57 39 0 5 4 7 -88 -47 -40 -23 -74 -41 -76 -39 -9 9 44 59 83 78 22
12 41 24 41 26 0 7 4 9 -113 -54z"/>
<path d="M1175 4440 c-3 -6 1 -7 9 -4 18 7 21 14 7 14 -6 0 -13 -4 -16 -10z"/>
<path d="M1599 4421 c-14 -12 -18 -20 -11 -21 15 0 47 28 40 36 -3 2 -16 -4
-29 -15z"/>
<path d="M1105 4404 c-27 -15 -56 -29 -64 -33 -8 -4 -17 -14 -20 -22 -4 -12
-2 -12 12 0 20 16 23 2 5 -19 -7 -8 10 6 38 30 27 25 59 50 70 57 34 21 10 13
-41 -13z"/>
<path d="M1675 4380 c-9 -16 -13 -30 -11 -30 3 0 12 14 21 30 9 17 13 30 11
30 -3 0 -12 -13 -21 -30z"/>
<path d="M1249 4344 c-11 -11 -42 -31 -69 -44 -28 -13 -48 -25 -45 -28 4 -4
153 73 167 87 4 4 -1 7 -12 7 -11 0 -30 -10 -41 -22z"/>
<path d="M889 4333 c-13 -16 -12 -17 4 -4 9 7 17 15 17 17 0 8 -8 3 -21 -13z"/>
<path d="M1265 4310 c-27 -17 -46 -30 -41 -30 11 0 96 49 96 55 0 7 0 7 -55
-25z"/>
<path d="M1424 4318 l-19 -23 23 19 c21 18 27 26 19 26 -2 0 -12 -10 -23 -22z"/>
<path d="M1480 4319 c-22 -18 -22 -19 -3 -10 12 6 25 16 28 21 9 15 3 12 -25
-11z"/>
<path d="M675 4300 c-3 -5 -1 -10 4 -10 6 0 11 5 11 10 0 6 -2 10 -4 10 -3 0
-8 -4 -11 -10z"/>
<path d="M1290 4289 c-22 -18 -22 -19 -3 -10 12 6 25 16 28 21 9 15 3 12 -25
-11z"/>
<path d="M1335 4290 c-16 -11 -25 -20 -20 -20 10 0 64 39 55 40 -3 0 -18 -9
-35 -20z"/>
<path d="M1379 4283 c-13 -16 -12 -17 4 -4 9 7 17 15 17 17 0 8 -8 3 -21 -13z"/>
<path d="M925 4274 c81 -60 317 -78 454 -36 40 13 71 25 69 28 -3 2 -25 -3
-49 -11 -119 -43 -278 -39 -422 9 -43 14 -64 18 -52 10z"/>
<path d="M675 4190 c-3 -5 -2 -10 4 -10 5 0 13 5 16 10 3 6 2 10 -4 10 -5 0
-13 -4 -16 -10z"/>
<path d="M780 4190 c0 -5 10 -10 23 -10 18 0 19 2 7 10 -19 13 -30 13 -30 0z"/>
<path d="M750 4160 c18 -12 40 -13 40 -2 0 4 -12 9 -27 10 -22 1 -24 0 -13 -8z"/>
<path d="M915 4080 c27 -12 43 -12 25 0 -8 5 -22 9 -30 9 -10 0 -8 -3 5 -9z"/>
<path d="M756 4025 c-29 -20 -42 -35 -33 -35 15 0 101 69 87 70 -3 0 -27 -16
-54 -35z"/>
<path d="M830 4025 c7 -8 17 -15 22 -15 6 0 5 7 -2 15 -7 8 -17 15 -22 15 -6
0 -5 -7 2 -15z"/>
<path d="M960 4015 c-14 -8 -20 -14 -14 -15 5 0 19 7 30 15 24 18 16 19 -16 0z"/>
<path d="M785 4000 c-3 -5 -1 -10 4 -10 6 0 11 5 11 10 0 6 -2 10 -4 10 -3 0
-8 -4 -11 -10z"/>
<path d="M908 3993 c7 -3 16 -2 19 1 4 3 -2 6 -13 5 -11 0 -14 -3 -6 -6z"/>
<path d="M560 3949 c-16 -30 -8 -31 13 -3 10 13 13 24 8 24 -6 0 -15 -9 -21
-21z"/>
<path d="M874 3885 c-5 -47 -6 -85 -3 -85 10 0 19 46 21 108 2 83 -8 70 -18
-23z"/>
<path d="M911 3835 c0 -44 4 -120 10 -170 13 -111 33 -141 25 -40 -3 39 -5 70
-6 70 -4 0 -12 51 -19 130 l-8 90 -2 -80z"/>
<path d="M616 3878 c-11 -15 -16 -18 -16 -8 0 8 -12 -3 -25 -25 -30 -48 -33
-74 -4 -27 12 17 25 32 31 32 15 0 58 37 51 44 -11 11 -22 7 -37 -16z"/>
<path d="M546 3845 c-9 -26 -7 -32 5 -12 6 10 9 21 6 23 -2 3 -7 -2 -11 -11z"/>
<path d="M932 3820 c0 -19 2 -27 5 -17 2 9 2 25 0 35 -3 9 -5 1 -5 -18z"/>
<path d="M1904 4208 l-19 -23 23 19 c21 18 27 26 19 26 -2 0 -12 -10 -23 -22z"/>
<path d="M1824 4098 l-19 -23 23 19 c21 18 27 26 19 26 -2 0 -12 -10 -23 -22z"/>
<path d="M1639 4173 c-13 -16 -12 -17 4 -4 9 7 17 15 17 17 0 8 -8 3 -21 -13z"/>
<path d="M1813 3888 c-11 -19 -13 -39 -1 -32 5 3 7 9 4 12 -3 3 -1 11 5 19 6
7 9 13 6 13 -3 0 -9 -6 -14 -12z"/>
<path d="M1839 3883 c-13 -16 -12 -17 4 -4 9 7 17 15 17 17 0 8 -8 3 -21 -13z"/>
<path d="M1280 4080 c-9 -6 -10 -10 -3 -10 6 0 15 5 18 10 8 12 4 12 -15 0z"/>
<path d="M1353 4038 c-18 -5 -33 -13 -33 -19 0 -7 7 -8 18 -4 9 4 27 8 40 10
12 1 25 5 28 7 10 11 -22 15 -53 6z"/>
<path d="M1235 3971 c-3 -5 -1 -12 5 -16 5 -3 10 1 10 9 0 18 -6 21 -15 7z"/>
<path d="M1370 3920 c0 -5 5 -10 10 -10 6 0 10 5 10 10 0 6 -4 10 -10 10 -5 0
-10 -4 -10 -10z"/>
<path d="M1405 3839 c-4 -6 -5 -12 -2 -15 2 -3 7 2 10 11 7 17 1 20 -8 4z"/>
<path d="M1435 3839 c-4 -6 -5 -12 -2 -15 2 -3 7 2 10 11 7 17 1 20 -8 4z"/>
<path d="M1095 3859 c-4 -6 -5 -12 -2 -15 2 -3 7 2 10 11 7 17 1 20 -8 4z"/>
<path d="M999 3813 c-13 -16 -12 -17 4 -4 9 7 17 15 17 17 0 8 -8 3 -21 -13z"/>
<path d="M2204 3828 l-19 -23 23 19 c21 18 27 26 19 26 -2 0 -12 -10 -23 -22z"/>
<path d="M1162 3715 c-24 -23 -30 -33 -17 -28 18 6 18 5 6 -10 -8 -11 -9 -17
-3 -17 14 0 55 54 58 75 3 21 -2 19 -44 -20z"/>
<path d="M1222 3678 c-7 -7 -12 -8 -12 -4 0 5 -7 3 -15 -4 -20 -16 -19 -37 1
-37 8 0 22 13 30 29 16 30 15 35 -4 16z"/>
<path d="M1540 3800 c-6 -11 -8 -20 -6 -20 3 0 10 9 16 20 6 11 8 20 6 20 -3
0 -10 -9 -16 -20z"/>
<path d="M560 3745 c-10 -12 -15 -13 -20 -4 -6 8 -9 8 -14 0 -4 -6 -2 -11 5
-11 8 0 8 -5 -2 -17 -7 -10 1 -5 19 11 18 17 32 31 32 33 0 7 -8 2 -20 -12z"/>
<path d="M694 3718 l-19 -23 23 19 c21 18 27 26 19 26 -2 0 -12 -10 -23 -22z"/>
<path d="M679 3523 c-13 -16 -12 -17 4 -4 9 7 17 15 17 17 0 8 -8 3 -21 -13z"/>
<path d="M696 3509 c-15 -12 -25 -23 -22 -26 2 -3 14 5 26 17 11 11 26 18 32
14 7 -4 8 -3 4 4 -9 15 -9 16 -40 -9z"/>
<path d="M739 3493 l-24 -28 28 24 c25 23 32 31 24 31 -2 0 -14 -12 -28 -27z"/>
<path d="M757 3478 c-15 -17 -25 -33 -23 -36 7 -6 40 15 65 42 23 25 24 26 4
26 -11 0 -32 -14 -46 -32z"/>
<path d="M819 3483 c-13 -16 -12 -17 4 -4 9 7 17 15 17 17 0 8 -8 3 -21 -13z"/>
<path d="M814 3448 l-19 -23 23 19 c21 18 27 26 19 26 -2 0 -12 -10 -23 -22z"/>
<path d="M649 3413 c-13 -16 -12 -17 4 -4 9 7 17 15 17 17 0 8 -8 3 -21 -13z"/>
<path d="M664 3398 l-19 -23 23 19 c21 18 27 26 19 26 -2 0 -12 -10 -23 -22z"/>
<path d="M888 3378 c-28 -30 -35 -48 -20 -48 4 0 15 14 24 31 10 17 22 28 28
24 6 -3 7 1 4 9 -7 19 -4 21 -36 -16z"/>
<path d="M892 3330 c-18 -16 -26 -30 -19 -30 7 0 18 9 25 20 7 12 17 18 21 15
5 -2 11 2 15 10 9 24 -8 18 -42 -15z"/>
<path d="M135 3210 c-3 -5 -2 -10 4 -10 5 0 13 5 16 10 3 6 2 10 -4 10 -5 0
-13 -4 -16 -10z"/>
<path d="M286 3014 c-5 -14 -4 -15 9 -4 17 14 19 20 6 20 -5 0 -12 -7 -15 -16z"/>
<path d="M356 2994 c-4 -9 -4 -19 -1 -22 2 -3 7 3 11 12 4 9 4 19 1 22 -2 3
-7 -3 -11 -12z"/>
<path d="M2164 3718 l-19 -23 23 19 c21 18 27 26 19 26 -2 0 -12 -10 -23 -22z"/>
<path d="M1226 3563 c-6 -14 -5 -15 5 -6 7 7 10 15 7 18 -3 3 -9 -2 -12 -12z"/>
<path d="M1234 3515 c-8 -13 -14 -31 -12 -39 2 -9 10 2 20 24 19 45 16 51 -8
15z"/>
<path d="M1290 3499 c-7 -11 -10 -23 -7 -25 2 -2 9 7 15 21 14 30 7 33 -8 4z"/>
<path d="M1427 3432 c-19 -20 -23 -37 -7 -27 10 6 33 45 27 45 -2 0 -11 -8
-20 -18z"/>
<path d="M1469 3423 c-13 -16 -12 -17 4 -4 9 7 17 15 17 17 0 8 -8 3 -21 -13z"/>
<path d="M1761 3493 c-1 -6 -4 -20 -7 -30 -5 -17 -5 -17 6 0 6 10 9 23 6 30
-3 9 -5 9 -5 0z"/>
<path d="M1952 3500 c0 -14 2 -19 5 -12 2 6 2 18 0 25 -3 6 -5 1 -5 -13z"/>
<path d="M2021 3494 c0 -11 3 -14 6 -6 3 7 2 16 -1 19 -3 4 -6 -2 -5 -13z"/>
<path d="M1981 3464 c0 -11 3 -14 6 -6 3 7 2 16 -1 19 -3 4 -6 -2 -5 -13z"/>
<path d="M1942 3450 c0 -14 2 -19 5 -12 2 6 2 18 0 25 -3 6 -5 1 -5 -13z"/>
<path d="M2091 3434 c0 -11 3 -14 6 -6 3 7 2 16 -1 19 -3 4 -6 -2 -5 -13z"/>
<path d="M1045 3420 c-3 -5 -1 -10 4 -10 6 0 11 5 11 10 0 6 -2 10 -4 10 -3 0
-8 -4 -11 -10z"/>
<path d="M1159 3423 c-13 -16 -12 -17 4 -4 9 7 17 15 17 17 0 8 -8 3 -21 -13z"/>
<path d="M1321 3340 c-12 -17 -17 -30 -12 -30 10 0 45 50 39 56 -3 2 -14 -10
-27 -26z"/>
<path d="M1253 3338 c-15 -20 -25 -38 -20 -38 3 0 12 11 21 25 17 26 16 35 -1
13z"/>
<path d="M1279 3323 c-13 -16 -12 -17 4 -4 9 7 17 15 17 17 0 8 -8 3 -21 -13z"/>
<path d="M1269 3273 c-13 -16 -12 -17 4 -4 16 13 21 21 13 21 -2 0 -10 -8 -17
-17z"/>
<path d="M1551 3274 c0 -11 3 -14 6 -6 3 7 2 16 -1 19 -3 4 -6 -2 -5 -13z"/>
<path d="M1586 3263 c-6 -14 -5 -15 5 -6 7 7 10 15 7 18 -3 3 -9 -2 -12 -12z"/>
<path d="M1516 3255 c-9 -26 -7 -32 5 -12 6 10 9 21 6 23 -2 3 -7 -2 -11 -11z"/>
<path d="M1626 3254 c-9 -8 -16 -20 -16 -26 0 -6 1 -9 3 -7 1 2 11 14 21 27
22 25 16 30 -8 6z"/>
<path d="M1486 3245 c-9 -26 -7 -32 5 -12 6 10 9 21 6 23 -2 3 -7 -2 -11 -11z"/>
<path d="M1541 3243 c-1 -6 -4 -20 -7 -30 -5 -17 -5 -17 6 0 6 10 9 23 6 30
-3 9 -5 9 -5 0z"/>
<path d="M1566 3225 c-9 -26 -7 -32 5 -12 6 10 9 21 6 23 -2 3 -7 -2 -11 -11z"/>
<path d="M1466 3195 c-9 -26 -7 -32 5 -12 6 10 9 21 6 23 -2 3 -7 -2 -11 -11z"/>
<path d="M1290 3120 c-6 -12 -9 -24 -7 -27 3 -2 11 5 17 17 6 12 9 24 7 27 -3
2 -11 -5 -17 -17z"/>
<path d="M1256 3115 c-3 -9 -6 -22 -5 -28 0 -7 5 -1 10 12 5 13 8 26 5 28 -2
2 -6 -3 -10 -12z"/>
<path d="M1420 3100 c-9 -6 -10 -10 -3 -10 6 0 15 5 18 10 8 12 4 12 -15 0z"/>
<path d="M1205 3080 c-3 -5 -1 -10 4 -10 6 0 11 5 11 10 0 6 -2 10 -4 10 -3 0
-8 -4 -11 -10z"/>
<path d="M1106 2985 c-9 -26 -7 -32 5 -12 6 10 9 21 6 23 -2 3 -7 -2 -11 -11z"/>
<path d="M1631 3414 c0 -11 3 -14 6 -6 3 7 2 16 -1 19 -3 4 -6 -2 -5 -13z"/>
<path d="M1732 3375 c-17 -37 -14 -45 4 -12 9 16 14 31 11 33 -2 2 -9 -7 -15
-21z"/>
<path d="M1612 3358 c-10 -30 -10 -31 3 -14 13 17 21 46 12 46 -1 0 -8 -15
-15 -32z"/>
<path d="M1705 3379 c-4 -6 -5 -12 -2 -15 2 -3 7 2 10 11 7 17 1 20 -8 4z"/>
<path d="M2240 3285 c-11 -13 -10 -14 4 -9 9 3 16 10 16 15 0 13 -6 11 -20 -6z"/>
<path d="M2156 3255 c-9 -26 -7 -32 5 -12 6 10 9 21 6 23 -2 3 -7 -2 -11 -11z"/>
<path d="M1690 3188 c-27 -39 -50 -76 -50 -82 0 -6 10 5 21 24 12 19 37 56 56
83 19 26 32 47 29 47 -3 0 -28 -32 -56 -72z"/>
<path d="M1882 3197 c-16 -44 -115 -143 -157 -157 -31 -10 -41 -9 -80 10 -25
12 -45 25 -45 30 0 19 -27 16 -39 -3 -10 -16 -10 -19 -1 -10 10 9 22 6 53 -15
41 -27 103 -35 140 -18 43 20 -3 -68 -55 -107 -18 -13 -48 -22 -85 -25 -50 -3
-66 0 -115 27 -32 16 -58 26 -58 21 0 -4 23 -20 52 -34 83 -42 178 -33 241 22
9 8 17 11 17 6 0 -5 9 4 19 19 10 16 16 37 14 48 -6 23 0 24 32 3 33 -22 32
-5 -2 21 -24 20 -26 45 -2 45 6 0 7 -4 4 -10 -3 -5 -4 -10 -2 -10 13 0 98 153
90 161 -5 5 -14 -4 -21 -24z"/>
<path d="M1727 3188 c-36 -49 -60 -88 -56 -92 2 -1 23 26 46 61 44 67 49 84
10 31z"/>
<path d="M1759 3188 c-17 -24 -18 -29 -6 -19 18 14 42 51 33 51 -3 0 -15 -15
-27 -32z"/>
<path d="M1923 3188 c-15 -20 -25 -38 -20 -38 3 0 12 11 21 25 17 26 16 35 -1
13z"/>
<path d="M1925 3129 c-20 -28 -34 -53 -32 -55 2 -2 20 21 41 51 46 69 40 72
-9 4z"/>
<path d="M1620 3130 c-12 -16 -19 -30 -16 -30 2 0 14 14 26 30 12 17 19 30 16
30 -2 0 -14 -13 -26 -30z"/>
<path d="M1973 3138 c-15 -20 -25 -38 -20 -38 3 0 12 11 21 25 17 26 16 35 -1
13z"/>
<path d="M1880 3120 c-6 -11 -8 -20 -6 -20 3 0 10 9 16 20 6 11 8 20 6 20 -3
0 -10 -9 -16 -20z"/>
<path d="M2122 3095 c-12 -25 -20 -45 -17 -45 7 0 47 81 43 86 -3 2 -14 -17
-26 -41z"/>
<path d="M2095 3109 c-4 -6 -5 -12 -2 -15 2 -3 7 2 10 11 7 17 1 20 -8 4z"/>
<path d="M1534 3088 c-4 -7 -14 -24 -22 -38 -14 -24 -13 -24 3 -5 20 24 37 55
31 55 -3 0 -8 -6 -12 -12z"/>
<path d="M2075 3069 c-4 -6 -5 -12 -2 -15 2 -3 7 2 10 11 7 17 1 20 -8 4z"/>
<path d="M1510 3005 c-17 -25 -29 -45 -26 -45 3 0 19 20 36 45 17 25 29 45 26
45 -3 0 -19 -20 -36 -45z"/>
<path d="M1591 3017 c-13 -21 -12 -21 5 -5 10 10 16 20 13 22 -3 3 -11 -5 -18
-17z"/>
<path d="M1811 2953 c-10 -26 -10 -27 4 -9 8 11 15 23 15 28 0 15 -7 8 -19
-19z"/>
<path d="M1830 2925 c-17 -25 -27 -45 -23 -45 8 1 66 90 58 90 -2 0 -18 -20
-35 -45z"/>
<path d="M1405 2940 c-4 -6 -11 -8 -16 -5 -5 3 -6 -2 -2 -11 4 -11 2 -15 -4
-11 -5 3 -19 -7 -31 -22 l-21 -29 24 -4 c17 -4 31 2 47 21 l23 26 -27 -24
c-32 -28 -36 -21 -10 17 26 38 34 52 28 52 -3 0 -8 -5 -11 -10z"/>
<path d="M1732 2905 c-17 -37 -14 -45 4 -12 9 16 14 31 11 33 -2 2 -9 -7 -15
-21z"/>
<path d="M1780 2899 c-7 -11 -10 -23 -7 -25 2 -2 9 7 15 21 14 30 7 33 -8 4z"/>
<path d="M1425 2884 c-9 -15 -12 -23 -6 -20 11 7 35 46 28 46 -3 0 -12 -12
-22 -26z"/>
<path d="M1467 2873 c-11 -13 -17 -26 -14 -29 2 -3 12 7 21 22 23 33 17 39 -7
7z"/>
<path d="M1499 2853 c-13 -16 -12 -17 4 -4 9 7 17 15 17 17 0 8 -8 3 -21 -13z"/>
<path d="M1860 3340 c-6 -11 -8 -20 -6 -20 3 0 10 9 16 20 6 11 8 20 6 20 -3
0 -10 -9 -16 -20z"/>
<path d="M1820 3330 c-6 -11 -8 -20 -6 -20 3 0 10 9 16 20 6 11 8 20 6 20 -3
0 -10 -9 -16 -20z"/>
<path d="M704 3268 l-19 -23 23 19 c21 18 27 26 19 26 -2 0 -12 -10 -23 -22z"/>
<path d="M720 3247 l-33 -42 39 37 c21 21 36 40 33 43 -3 3 -21 -14 -39 -38z"/>
<path d="M793 3283 c4 -3 -3 -18 -15 -32 l-23 -26 27 24 c24 21 29 41 11 41
-4 0 -3 -3 0 -7z"/>
<path d="M834 3225 c-10 -8 -14 -15 -8 -15 6 0 17 7 24 15 16 19 9 19 -16 0z"/>
<path d="M675 3191 c-9 -16 -95 -25 -108 -12 -13 13 -27 14 -27 2 0 -5 9 -13
20 -16 21 -7 20 -8 -6 -53 -15 -26 -20 -41 -12 -34 9 7 21 26 28 42 7 17 15
30 19 30 3 0 17 3 31 7 22 6 24 5 12 -10 -8 -9 -18 -15 -24 -14 -5 1 -24 -22
-41 -52 -17 -30 -26 -51 -19 -47 15 9 15 1 1 -27 -10 -21 -10 -21 5 -3 9 12
13 28 10 39 -4 13 -2 17 5 13 5 -4 17 6 25 21 8 15 33 49 56 76 23 26 39 47
36 47 -2 0 -7 -4 -11 -9z"/>
<path d="M664 3115 c-21 -24 -40 -42 -44 -40 -4 2 -16 -16 -27 -40 -18 -40
-19 -42 -1 -32 10 7 18 16 18 21 0 4 23 37 50 72 57 73 60 87 4 19z"/>
<path d="M536 3135 c-9 -26 -7 -32 5 -12 6 10 9 21 6 23 -2 3 -7 -2 -11 -11z"/>
<path d="M613 2947 c-37 -25 -42 -38 -13 -30 10 3 26 16 35 29 8 13 14 24 13
23 -2 0 -17 -11 -35 -22z"/>
<path d="M562 2830 c0 -14 2 -19 5 -12 2 6 2 18 0 25 -3 6 -5 1 -5 -13z"/>
<path d="M1055 3210 c-9 -16 -13 -30 -11 -30 3 0 12 14 21 30 9 17 13 30 11
30 -3 0 -12 -13 -21 -30z"/>
<path d="M2032 3293 c-26 -38 -34 -53 -29 -53 2 0 16 18 31 40 29 45 28 56 -2
13z"/>
<path d="M2060 3280 c-6 -11 -8 -20 -6 -20 3 0 10 9 16 20 6 11 8 20 6 20 -3
0 -10 -9 -16 -20z"/>
<path d="M1979 3263 c-13 -16 -12 -17 4 -4 9 7 17 15 17 17 0 8 -8 3 -21 -13z"/>
<path d="M2380 3086 c0 -3 9 -10 20 -16 11 -6 20 -8 20 -6 0 3 -9 10 -20 16
-11 6 -20 8 -20 6z"/>
<path d="M2530 2979 c42 -34 67 -42 30 -10 -19 17 -39 30 -45 31 -5 0 1 -9 15
-21z"/>
<path d="M2107 2811 c-4 -17 -3 -21 5 -13 5 5 8 16 6 23 -3 8 -7 3 -11 -10z"/>
<path d="M982 2938 c-18 -23 -43 -79 -40 -89 2 -6 16 15 31 45 26 55 29 68 9
44z"/>
<path d="M912 2723 c-6 -20 -10 -39 -7 -41 8 -8 33 55 26 66 -5 8 -12 -1 -19
-25z"/>
<path d="M881 2724 c0 -11 3 -14 6 -6 3 7 2 16 -1 19 -3 4 -6 -2 -5 -13z"/>
<path d="M871 2684 c0 -11 3 -14 6 -6 3 7 2 16 -1 19 -3 4 -6 -2 -5 -13z"/>
<path d="M1048 2868 c-20 -36 -47 -98 -43 -98 4 0 50 80 58 103 9 24 0 21 -15
-5z"/>
<path d="M1056 2825 c-9 -26 -7 -32 5 -12 6 10 9 21 6 23 -2 3 -7 -2 -11 -11z"/>
<path d="M666 2865 c-9 -26 -7 -32 5 -12 6 10 9 21 6 23 -2 3 -7 -2 -11 -11z"/>
<path d="M755 2848 l-16 -33 20 25 c20 24 26 40 16 40 -2 0 -12 -15 -20 -32z"/>
<path d="M607 2774 c-16 -14 -22 -24 -14 -24 15 0 53 37 46 44 -2 2 -17 -7
-32 -20z"/>
<path d="M720 2736 c-20 -53 -20 -80 0 -32 11 27 18 51 16 54 -3 2 -10 -7 -16
-22z"/>
<path d="M790 2716 c-11 -35 -29 -55 -52 -61 -44 -10 -59 -18 -48 -25 13 -8
81 21 97 42 10 13 26 78 19 78 -3 0 -10 -15 -16 -34z"/>
<path d="M677 2719 c-21 -24 -40 -69 -32 -77 3 -3 5 1 5 9 0 11 2 11 8 1 5 -8
14 6 24 38 9 27 15 50 14 50 -1 0 -10 -9 -19 -21z"/>
<path d="M752 2715 c-12 -12 -22 -29 -22 -36 1 -9 6 -7 15 5 8 11 15 16 16 10
0 -5 5 2 10 15 13 32 8 34 -19 6z"/>
<path d="M680 2595 c0 -8 -9 -23 -20 -32 -11 -10 -20 -27 -19 -38 0 -14 2 -16
6 -5 4 8 11 20 18 25 17 15 36 65 25 65 -6 0 -10 -7 -10 -15z"/>
<path d="M831 2594 c0 -11 3 -14 6 -6 3 7 2 16 -1 19 -3 4 -6 -2 -5 -13z"/>
<path d="M1010 2532 c0 -13 -7 -36 -15 -52 -9 -17 -13 -30 -10 -30 13 0 43 77
34 91 -7 11 -9 9 -9 -9z"/>
<path d="M982 2520 c0 -14 2 -19 5 -12 2 6 2 18 0 25 -3 6 -5 1 -5 -13z"/>
<path d="M662 2500 c0 -19 2 -27 5 -17 2 9 2 25 0 35 -3 9 -5 1 -5 -18z"/>
<path d="M681 2484 c0 -11 3 -14 6 -6 3 7 2 16 -1 19 -3 4 -6 -2 -5 -13z"/>
<path d="M732 2460 c0 -14 2 -19 5 -12 2 6 2 18 0 25 -3 6 -5 1 -5 -13z"/>
<path d="M671 2424 c0 -11 3 -14 6 -6 3 7 2 16 -1 19 -3 4 -6 -2 -5 -13z"/>
<path d="M736 2368 c-10 -15 -16 -33 -14 -39 2 -6 12 0 22 15 9 15 16 32 13
39 -2 6 -11 -1 -21 -15z"/>
<path d="M881 2183 c-7 -8 -10 -17 -7 -20 9 -9 29 13 25 25 -2 6 -10 3 -18 -5z"/>
<path d="M985 2174 c-10 -8 -24 -13 -30 -11 -5 2 -16 -3 -24 -10 -7 -8 -25
-13 -39 -11 -14 2 -27 -2 -29 -8 -2 -7 8 -9 27 -6 33 5 34 4 20 -32 -5 -15 -6
-28 0 -31 5 -3 12 10 16 30 5 27 14 39 40 51 33 16 50 31 42 39 -1 2 -12 -3
-23 -11z"/>
<path d="M941 1964 c0 -11 3 -14 6 -6 3 7 2 16 -1 19 -3 4 -6 -2 -5 -13z"/>
<path d="M961 1934 c0 -11 3 -14 6 -6 3 7 2 16 -1 19 -3 4 -6 -2 -5 -13z"/>
<path d="M1215 1909 c-4 -6 -5 -12 -2 -15 2 -3 7 2 10 11 7 17 1 20 -8 4z"/>
<path d="M1231 1868 c-10 -30 -9 -31 4 -14 8 11 15 25 15 30 0 6 5 4 11 -4 9
-12 10 -12 7 -1 -8 28 -26 22 -37 -11z"/>
<path d="M1201 1864 c0 -11 3 -14 6 -6 3 7 2 16 -1 19 -3 4 -6 -2 -5 -13z"/>
<path d="M1141 1794 c0 -11 3 -14 6 -6 3 7 2 16 -1 19 -3 4 -6 -2 -5 -13z"/>
<path d="M1051 1764 c0 -11 3 -14 6 -6 3 7 2 16 -1 19 -3 4 -6 -2 -5 -13z"/>
<path d="M1300 2798 c-12 -22 -12 -22 6 -6 10 10 15 20 12 24 -4 3 -12 -5 -18
-18z"/>
<path d="M1266 2785 c-9 -14 -23 -37 -32 -52 l-16 -28 20 24 c24 29 55 81 49
81 -3 0 -12 -11 -21 -25z"/>
<path d="M1310 2762 c-58 -85 -65 -98 -48 -84 20 16 82 111 77 117 -2 2 -15
-13 -29 -33z"/>
<path d="M1326 2740 c-14 -22 -26 -43 -26 -47 0 -4 6 1 13 12 33 48 49 75 44
75 -2 0 -16 -18 -31 -40z"/>
<path d="M1255 2728 c-16 -24 -22 -38 -14 -31 15 12 53 73 46 73 -2 0 -17 -19
-32 -42z"/>
<path d="M1363 2738 c-15 -20 -25 -38 -20 -38 3 0 12 11 21 25 17 26 16 35 -1
13z"/>
<path d="M1677 2773 c-4 -3 -7 -11 -7 -17 0 -6 5 -5 12 2 6 6 9 14 7 17 -3 3
-9 2 -12 -2z"/>
<path d="M1509 2643 c-13 -16 -12 -17 4 -4 9 7 17 15 17 17 0 8 -8 3 -21 -13z"/>
<path d="M1455 2614 c-9 -14 -15 -27 -13 -30 2 -2 12 10 22 26 21 37 15 40 -9
4z"/>
<path d="M1410 2590 c-6 -11 -8 -20 -6 -20 3 0 10 9 16 20 6 11 8 20 6 20 -3
0 -10 -9 -16 -20z"/>
<path d="M1551 2521 c-19 -14 -20 -19 -8 -24 9 -3 19 3 26 19 13 29 13 29 -18
5z"/>
<path d="M1590 2519 c-7 -11 -10 -23 -7 -25 2 -2 9 7 15 21 14 30 7 33 -8 4z"/>
<path d="M2010 2742 c0 -5 -11 -26 -25 -46 -14 -20 -22 -43 -18 -52 4 -11 12
-1 26 33 11 26 22 50 23 51 1 2 20 -8 41 -22 20 -14 47 -26 58 -25 15 0 13 3
-8 9 -16 5 -44 20 -63 35 -19 14 -34 22 -34 17z"/>
<path d="M1880 2709 c-7 -11 -10 -23 -7 -25 2 -2 9 7 15 21 14 30 7 33 -8 4z"/>
<path d="M1910 2710 c-6 -11 -8 -20 -6 -20 3 0 10 9 16 20 6 11 8 20 6 20 -3
0 -10 -9 -16 -20z"/>
<path d="M2016 2684 c-5 -14 -4 -15 9 -4 17 14 19 20 6 20 -5 0 -12 -7 -15
-16z"/>
<path d="M1995 2649 c-4 -6 -5 -12 -2 -15 2 -3 7 2 10 11 7 17 1 20 -8 4z"/>
<path d="M1792 2600 c-18 -29 -15 -38 4 -12 9 13 14 25 12 27 -2 2 -9 -5 -16
-15z"/>
<path d="M1755 2599 c-4 -6 -5 -12 -2 -15 2 -3 7 2 10 11 7 17 1 20 -8 4z"/>
<path d="M1826 2583 c-6 -14 -5 -15 5 -6 7 7 10 15 7 18 -3 3 -9 -2 -12 -12z"/>
<path d="M1210 2618 c-12 -22 -12 -22 6 -6 10 10 15 20 12 24 -4 3 -12 -5 -18
-18z"/>
<path d="M2250 2666 c0 -3 15 -15 33 -27 l32 -23 -24 27 c-22 24 -41 35 -41
23z"/>
<path d="M1269 2528 c-8 -7 -21 -22 -29 -33 -8 -11 0 -7 18 9 18 17 32 31 32
33 0 6 -6 3 -21 -9z"/>
<path d="M1280 2505 c-19 -19 -30 -35 -24 -35 5 0 22 16 37 35 36 45 30 45
-13 0z"/>
<path d="M1200 2505 c-7 -9 -11 -18 -8 -20 3 -3 11 1 18 10 7 9 11 18 8 20 -3
3 -11 -1 -18 -10z"/>
<path d="M1359 2503 c-13 -16 -12 -17 4 -4 9 7 17 15 17 17 0 8 -8 3 -21 -13z"/>
<path d="M1324 2458 l-19 -23 23 19 c21 18 27 26 19 26 -2 0 -12 -10 -23 -22z"/>
<path d="M1110 2373 l-55 -58 58 55 c53 50 62 60 54 60 -1 0 -27 -26 -57 -57z"/>
<path d="M1137 2364 c-27 -30 -46 -54 -42 -54 4 0 16 11 27 25 11 14 24 22 30
19 7 -4 8 -2 4 4 -4 7 -3 12 3 12 10 0 36 39 29 45 -2 1 -25 -22 -51 -51z"/>
<path d="M2100 2466 c0 -2 8 -10 18 -17 15 -13 16 -12 3 4 -13 16 -21 21 -21
13z"/>
<path d="M1802 2438 c-12 -23 -21 -43 -19 -45 2 -1 14 15 26 38 13 22 21 42
19 44 -2 2 -13 -15 -26 -37z"/>
<path d="M1845 2439 c-4 -6 -5 -12 -2 -15 2 -3 7 2 10 11 7 17 1 20 -8 4z"/>
<path d="M1746 2415 c-9 -26 -7 -32 5 -12 6 10 9 21 6 23 -2 3 -7 -2 -11 -11z"/>
<path d="M1803 2238 c-15 -20 -25 -38 -20 -38 3 0 12 11 21 25 17 26 16 35 -1
13z"/>
<path d="M1834 2228 l-19 -23 23 19 c21 18 27 26 19 26 -2 0 -12 -10 -23 -22z"/>
<path d="M1674 2178 l-19 -23 23 19 c21 18 27 26 19 26 -2 0 -12 -10 -23 -22z"/>
<path d="M1626 2044 c-4 -10 -1 -14 6 -12 15 5 23 28 10 28 -5 0 -13 -7 -16
-16z"/>
<path d="M1304 2002 c-12 -8 -37 -52 -32 -57 2 -1 13 13 25 31 12 19 21 34 20
34 -1 0 -7 -4 -13 -8z"/>
<path d="M1335 1999 c-4 -6 -5 -12 -2 -15 2 -3 7 2 10 11 7 17 1 20 -8 4z"/>
<path d="M1764 1958 c-12 -14 -13 -18 -3 -10 9 6 18 10 21 7 2 -3 5 2 5 10 0
19 0 19 -23 -7z"/>
<path d="M1316 1955 c-3 -9 -6 -22 -5 -28 0 -7 5 -1 10 12 5 13 8 26 5 28 -2
2 -6 -3 -10 -12z"/>
<path d="M1660 1930 c-6 -11 -8 -20 -6 -20 3 0 10 9 16 20 6 11 8 20 6 20 -3
0 -10 -9 -16 -20z"/>
<path d="M1475 2400 c-14 -27 -23 -50 -20 -50 2 0 16 23 30 50 14 28 23 50 20
50 -2 0 -16 -22 -30 -50z"/>
<path d="M1510 2409 c-6 -11 -10 -25 -8 -30 2 -5 8 4 15 21 13 34 9 40 -7 9z"/>
<path d="M1555 2409 c-4 -6 -5 -12 -2 -15 2 -3 7 2 10 11 7 17 1 20 -8 4z"/>
<path d="M1415 2379 c-4 -6 -5 -12 -2 -15 2 -3 7 2 10 11 7 17 1 20 -8 4z"/>
<path d="M981 2274 c0 -11 3 -14 6 -6 3 7 2 16 -1 19 -3 4 -6 -2 -5 -13z"/>
<path d="M1629 2338 c-6 -13 -20 -30 -31 -39 -17 -13 -18 -16 -3 -16 9 0 25
17 36 39 11 21 17 38 15 38 -3 0 -10 -10 -17 -22z"/>
<path d="M1696 2333 c-6 -14 -5 -15 5 -6 7 7 10 15 7 18 -3 3 -9 -2 -12 -12z"/>
<path d="M1321 2304 c0 -11 3 -14 6 -6 3 7 2 16 -1 19 -3 4 -6 -2 -5 -13z"/>
<path d="M1311 2264 c0 -11 3 -14 6 -6 3 7 2 16 -1 19 -3 4 -6 -2 -5 -13z"/>
<path d="M1185 2159 c-4 -6 -5 -12 -2 -15 2 -3 7 2 10 11 7 17 1 20 -8 4z"/>
<path d="M1499 2203 c-13 -16 -12 -17 4 -4 9 7 17 15 17 17 0 8 -8 3 -21 -13z"/>
<path d="M1290 2110 c-6 -11 -8 -20 -6 -20 3 0 10 9 16 20 6 11 8 20 6 20 -3
0 -10 -9 -16 -20z"/>
<path d="M1346 2108 c3 -5 10 -6 15 -3 13 9 11 12 -6 12 -8 0 -12 -4 -9 -9z"/>
<path d="M1095 2069 c-4 -6 -5 -12 -2 -15 2 -3 7 2 10 11 7 17 1 20 -8 4z"/>
<path d="M1121 1914 c0 -11 3 -14 6 -6 3 7 2 16 -1 19 -3 4 -6 -2 -5 -13z"/>
<path d="M1496 1884 c-21 -20 -22 -52 -2 -35 12 10 29 51 21 51 -2 0 -11 -7
-19 -16z"/>
<path d="M1526 1863 c-6 -14 -5 -15 5 -6 7 7 10 15 7 18 -3 3 -9 -2 -12 -12z"/>
<path d="M1341 1784 c0 -11 3 -14 6 -6 3 7 2 16 -1 19 -3 4 -6 -2 -5 -13z"/>
<path d="M1407 1781 c-4 -17 -3 -21 5 -13 5 5 8 16 6 23 -3 8 -7 3 -11 -10z"/>
<path d="M1635 1779 c-4 -6 -5 -12 -2 -15 2 -3 7 2 10 11 7 17 1 20 -8 4z"/>
<path d="M1596 1763 c-6 -14 -5 -15 5 -6 7 7 10 15 7 18 -3 3 -9 -2 -12 -12z"/>
<path d="M1640 1610 c-6 -11 -8 -20 -6 -20 3 0 10 9 16 20 6 11 8 20 6 20 -3
0 -10 -9 -16 -20z"/>
<path d="M1602 1595 c-17 -37 -14 -45 4 -12 9 16 14 31 11 33 -2 2 -9 -7 -15
-21z"/>
<path d="M1510 1515 c-7 -9 -11 -17 -9 -20 3 -2 10 5 17 15 14 24 10 26 -8 5z"/>
<path d="M1445 1499 c-4 -6 -5 -12 -2 -15 2 -3 7 2 10 11 7 17 1 20 -8 4z"/>
<path d="M1276 1483 c-6 -14 -5 -15 5 -6 7 7 10 15 7 18 -3 3 -9 -2 -12 -12z"/>
<path d="M1415 1456 c9 -13 30 -30 48 -37 18 -7 35 -18 39 -23 5 -7 8 -7 8 -1
0 6 15 18 33 28 18 10 39 28 46 40 12 19 10 19 -15 -4 -16 -14 -38 -29 -48
-33 -26 -9 -84 12 -96 35 -6 10 -15 19 -21 19 -5 0 -2 -11 6 -24z"/>
<path d="M1340 1415 c-7 -9 -11 -17 -9 -20 3 -2 10 5 17 15 14 24 10 26 -8 5z"/>
<path d="M1415 1400 c-3 -5 -1 -10 4 -10 6 0 11 5 11 10 0 6 -2 10 -4 10 -3 0
-8 -4 -11 -10z"/>
<path d="M1549 1393 c-13 -16 -12 -17 4 -4 16 13 21 21 13 21 -2 0 -10 -8 -17
-17z"/>
<path d="M1609 1333 c-13 -16 -12 -17 4 -4 9 7 17 15 17 17 0 8 -8 3 -21 -13z"/>
<path d="M1255 1279 c-4 -6 -5 -12 -2 -15 2 -3 7 2 10 11 7 17 1 20 -8 4z"/>
<path d="M1400 1218 c-28 -36 -29 -39 -7 -19 15 14 27 21 27 17 0 -5 7 -3 15
4 8 7 25 10 40 6 26 -7 103 19 92 31 -4 3 -13 0 -21 -6 -8 -7 -33 -11 -54 -10
-23 2 -47 -3 -56 -10 -19 -16 -22 -1 -4 17 7 7 10 12 7 12 -3 0 -21 -19 -39
-42z"/>
<path d="M1576 1233 c-6 -14 -5 -15 5 -6 7 7 10 15 7 18 -3 3 -9 -2 -12 -12z"/>
<path d="M1610 1235 c-7 -9 -11 -17 -9 -20 3 -2 10 5 17 15 14 24 10 26 -8 5z"/>
<path d="M1399 1183 c-13 -16 -12 -17 4 -4 16 13 21 21 13 21 -2 0 -10 -8 -17
-17z"/>
<path d="M1295 1170 c-10 -11 -16 -22 -13 -25 3 -3 13 6 22 20 20 30 16 32 -9
5z"/>
<path d="M1319 1158 c-11 -20 -10 -21 3 -10 12 10 20 10 42 -1 14 -8 23 -17
19 -21 -3 -3 15 0 42 8 26 8 53 20 59 27 8 9 6 9 -11 0 -30 -15 -79 -14 -113
4 -28 14 -30 14 -41 -7z"/>
<path d="M1319 1123 c-13 -16 -12 -17 4 -4 16 13 21 21 13 21 -2 0 -10 -8 -17
-17z"/>
<path d="M1339 1113 c-13 -16 -12 -17 4 -4 9 7 17 15 17 17 0 8 -8 3 -21 -13z"/>
<path d="M1751 1005 c33 -66 80 -176 104 -245 24 -69 44 -119 44 -112 2 46
-146 397 -193 457 -8 11 12 -34 45 -100z"/>
<path d="M1550 1085 c0 -5 5 -17 10 -25 5 -8 10 -10 10 -5 0 6 -5 17 -10 25
-5 8 -10 11 -10 5z"/>
<path d="M1791 775 c-1 -14 47 -177 55 -184 3 -3 2 8 -2 24 -11 48 -52 171
-53 160z"/>
<path d="M1771 634 c0 -11 3 -14 6 -6 3 7 2 16 -1 19 -3 4 -6 -2 -5 -13z"/>
<path d="M1861 360 c0 -8 4 -24 9 -35 5 -13 9 -14 9 -5 0 8 -4 24 -9 35 -5 13
-9 14 -9 5z"/>
<path d="M1792 325 c0 -16 2 -22 5 -12 2 9 2 23 0 30 -3 6 -5 -1 -5 -18z"/>
<path d="M1461 1682 c-6 -11 -8 -29 -4 -39 6 -14 9 -11 14 17 9 41 5 50 -10
22z"/>
<path d="M1146 1633 c-6 -14 -5 -15 5 -6 7 7 10 15 7 18 -3 3 -9 -2 -12 -12z"/>
<path d="M1321 1612 c-8 -14 -6 -18 10 -19 10 -1 19 3 19 8 0 6 -5 7 -12 3 -8
-5 -9 -2 -5 9 8 23 0 22 -12 -1z"/>
<path d="M1275 1610 c-3 -6 1 -7 9 -4 18 7 21 14 7 14 -6 0 -13 -4 -16 -10z"/>
<path d="M1360 1590 c-12 -16 -19 -30 -16 -30 2 0 14 14 26 30 12 17 19 30 16
30 -2 0 -14 -13 -26 -30z"/>
<path d="M1399 1583 c-13 -16 -12 -17 4 -4 9 7 17 15 17 17 0 8 -8 3 -21 -13z"/>
<path d="M2880 3002 c6 -13 14 -21 18 -18 3 4 -2 14 -12 24 -18 16 -18 16 -6
-6z"/>
<path d="M2805 2900 c3 -5 11 -10 16 -10 6 0 7 5 4 10 -3 6 -11 10 -16 10 -6
0 -7 -4 -4 -10z"/>
<path d="M1486 735 c-3 -9 -6 -22 -5 -28 0 -7 5 -1 10 12 5 13 8 26 5 28 -2 2
-6 -3 -10 -12z"/>
<path d="M1051 714 c0 -11 3 -14 6 -6 3 7 2 16 -1 19 -3 4 -6 -2 -5 -13z"/>
<path d="M1232 663 c-19 -88 -25 -128 -18 -122 8 8 38 161 32 166 -2 3 -9 -17
-14 -44z"/>
<path d="M1020 585 c-12 -58 -21 -108 -18 -110 3 -3 15 43 27 101 13 58 21
107 19 110 -2 2 -15 -44 -28 -101z"/>
<path d="M1073 395 c-7 -21 -10 -41 -8 -43 7 -7 26 50 23 67 -2 9 -9 -2 -15
-24z"/>
<path d="M1096 315 c-3 -8 -1 -15 4 -15 6 0 10 7 10 15 0 8 -2 15 -4 15 -2 0
-6 -7 -10 -15z"/>
<path d="M863 215 c-3 -9 -3 -18 -1 -21 3 -3 8 4 11 16 6 23 -1 27 -10 5z"/>
</g>
</svg>
