<?xml version="1.0" standalone="no"?>
<!DOCTYPE svg PUBLIC "-//W3C//DTD SVG 20010904//EN"
 "http://www.w3.org/TR/2001/REC-SVG-20010904/DTD/svg10.dtd">
<svg version="1.0" xmlns="http://www.w3.org/2000/svg"
 width="899.000000pt" height="1930.000000pt" viewBox="0 0 899.000000 1930.000000"
 preserveAspectRatio="xMidYMid meet">

<g transform="translate(0.000000,1930.000000) scale(0.100000,-0.100000)"
fill="#000000" stroke="none">
<path d="M1230 19282 c0 -6 7 -12 15 -15 8 -4 25 -28 39 -55 14 -27 32 -52 41
-56 40 -15 71 -6 110 34 54 56 81 52 115 -15 27 -53 62 -78 95 -69 11 4 38 24
60 45 59 57 79 51 123 -37 19 -38 42 -53 79 -54 7 0 35 20 63 45 28 25 55 45
61 45 15 0 59 -47 59 -63 0 -8 11 -26 25 -41 37 -40 72 -35 127 19 26 25 53
45 62 45 16 0 56 -46 56 -65 0 -7 11 -24 25 -39 37 -40 79 -36 125 15 30 33
43 40 66 37 23 -2 33 -12 48 -43 27 -59 45 -75 83 -75 26 0 43 9 74 40 22 22
49 40 59 40 21 0 51 -34 69 -79 7 -16 25 -35 41 -41 35 -14 61 -3 107 46 50
53 80 43 118 -39 17 -36 47 -57 80 -57 8 0 37 20 65 45 28 25 55 45 61 45 15
0 59 -47 59 -63 0 -8 11 -26 25 -41 35 -38 73 -35 116 10 63 67 94 63 134 -15
38 -75 82 -82 148 -23 23 21 50 42 60 45 9 4 17 11 17 18 0 6 -7 8 -16 5 -9
-3 -20 -6 -24 -6 -5 0 -27 -18 -49 -40 -58 -59 -85 -52 -126 30 -38 74 -75 78
-145 15 -69 -61 -82 -60 -120 15 -27 54 -46 69 -83 70 -19 0 -39 -11 -60 -33
-66 -69 -92 -67 -132 12 -38 76 -83 82 -150 20 -59 -54 -80 -51 -120 21 -28
50 -34 55 -69 58 -34 3 -44 -2 -82 -39 -53 -52 -82 -49 -109 12 -21 45 -58 79
-87 79 -10 0 -41 -20 -67 -45 -26 -25 -55 -45 -64 -45 -18 0 -49 36 -66 78
-12 28 -47 52 -76 52 -8 0 -37 -20 -65 -45 -28 -25 -53 -45 -56 -45 -20 0 -48
28 -69 69 -38 75 -81 82 -139 22 -21 -22 -47 -42 -58 -44 -22 -6 -68 32 -68
56 0 8 -11 26 -25 41 -37 40 -77 35 -126 -14 -54 -54 -82 -54 -110 3 -31 62
-48 77 -85 77 -24 0 -42 -10 -73 -40 -60 -60 -83 -54 -127 34 -13 26 -28 42
-42 44 -12 2 -22 -1 -22 -6z"/>
<path d="M4816 18766 c-91 -157 -166 -288 -166 -291 0 -3 151 -5 335 -5 184 0
335 2 335 6 0 7 -319 556 -330 567 -4 5 -82 -120 -174 -277z m293 -28 c67
-114 121 -210 121 -213 0 -3 -111 -5 -246 -5 -138 0 -244 4 -242 9 6 16 242
420 244 418 1 -1 56 -95 123 -209z"/>
<path d="M6926 18764 c-130 -31 -287 -146 -341 -249 -19 -36 -19 -37 0 -51 30
-22 49 -17 69 21 27 50 123 138 184 169 157 80 339 68 487 -30 170 -112 246
-330 185 -526 -11 -34 -20 -66 -20 -69 0 -5 45 -29 56 -29 13 0 43 92 54 163
40 272 -138 531 -415 602 -72 18 -180 18 -259 -1z"/>
<path d="M8438 18536 c-126 -72 -228 -133 -228 -136 0 -8 451 -262 456 -257 2
2 3 121 2 264 l-3 260 -227 -131z m192 -136 c0 -104 -3 -190 -7 -190 -5 0 -44
22 -88 48 -44 26 -115 67 -158 91 -43 24 -77 47 -75 53 3 9 306 187 321 188 4
0 7 -85 7 -190z"/>
<path d="M479 18573 c11 -26 71 -175 134 -330 63 -156 113 -283 110 -283 -5 0
-353 92 -552 146 -69 18 -127 32 -129 29 -5 -4 13 -50 168 -435 131 -328 116
-301 162 -283 l36 14 -118 292 c-65 161 -117 293 -116 294 1 2 273 -68 525
-136 85 -23 156 -40 158 -37 2 2 -54 149 -126 327 -72 178 -129 324 -128 326
2 1 50 -10 108 -26 313 -86 500 -133 505 -129 2 3 7 21 10 40 l6 34 -369 98
c-202 53 -376 100 -386 102 -16 5 -16 2 2 -43z"/>
<path d="M2523 17970 c-157 -41 -298 -143 -383 -277 -17 -26 -30 -52 -30 -58
0 -10 68 -41 74 -33 2 1 15 22 29 45 60 96 154 173 267 219 326 132 695 -68
765 -415 21 -103 15 -192 -20 -288 -13 -37 -23 -68 -22 -69 19 -15 71 -34 77
-27 4 4 18 37 31 73 21 56 24 83 24 200 0 162 -21 241 -95 354 -154 235 -445
347 -717 276z"/>
<path d="M6430 17652 c0 -4 5 -13 11 -19 6 -6 17 -22 23 -35 17 -34 63 -36 93
-4 13 14 28 26 33 26 5 0 21 -18 35 -40 30 -47 54 -51 88 -14 29 31 57 29 74
-6 26 -53 58 -57 100 -13 30 31 39 29 68 -17 30 -47 53 -51 91 -15 36 33 46
32 75 -12 13 -21 31 -39 40 -41 8 -1 33 11 54 28 42 33 54 30 81 -22 18 -36
52 -37 92 -3 39 33 49 32 69 -10 23 -48 56 -56 92 -21 35 34 57 33 76 -4 29
-56 65 -59 109 -11 26 29 32 27 61 -19 30 -47 54 -51 97 -15 40 33 50 32 79
-12 30 -47 60 -53 92 -19 14 14 29 26 36 26 6 0 11 5 11 10 0 18 -26 10 -50
-15 -32 -34 -54 -31 -79 10 -25 44 -66 48 -101 10 -32 -34 -46 -31 -70 15 -25
48 -54 53 -99 14 -17 -14 -35 -24 -40 -22 -6 1 -20 19 -33 38 -30 45 -53 49
-88 15 -34 -33 -58 -30 -80 10 -23 41 -63 45 -100 10 -32 -31 -51 -26 -73 20
-20 43 -53 46 -87 10 -32 -34 -56 -32 -76 8 -28 55 -48 59 -92 22 -40 -34 -56
-32 -81 10 -25 43 -57 46 -91 10 -31 -33 -46 -32 -66 8 -29 56 -49 60 -97 18
-37 -33 -47 -31 -71 17 -21 41 -61 44 -96 7 -32 -34 -46 -31 -70 15 -18 36
-40 53 -40 32z"/>
<path d="M6985 16875 c-121 -68 -221 -128 -222 -132 -3 -7 436 -263 451 -263
3 0 6 117 6 260 0 143 -4 260 -8 260 -4 0 -107 -56 -227 -125z m195 -135 c0
-104 -3 -190 -6 -190 -8 0 -307 171 -321 184 -9 8 28 34 150 103 89 51 165 93
170 93 4 0 7 -85 7 -190z"/>
<path d="M5225 16737 c-48 -41 -50 -123 -10 -372 17 -101 19 -193 6 -214 -22
-34 -84 21 -223 197 -133 166 -212 218 -274 177 -61 -40 -66 -125 -24 -380 50
-300 5 -301 -232 -5 -96 120 -146 161 -204 168 -24 2 -44 2 -44 0 0 -25 25
-68 39 -68 22 0 94 -70 174 -169 145 -181 191 -220 255 -221 34 0 48 6 67 26
39 43 42 97 11 309 -30 214 -32 244 -13 269 13 17 15 17 45 2 17 -9 73 -67
123 -129 161 -199 226 -257 284 -257 95 0 115 93 74 340 -24 147 -29 254 -13
270 29 29 70 -6 214 -185 53 -66 113 -135 133 -152 42 -37 112 -62 128 -46 13
13 -9 63 -27 63 -24 0 -86 63 -183 185 -52 66 -109 133 -125 149 -74 69 -134
84 -181 43z"/>
<path d="M8433 16665 c-7 -8 -13 -20 -12 -27 0 -7 74 -78 165 -158 90 -80 158
-146 151 -148 -6 -2 -118 -25 -247 -51 -129 -26 -234 -50 -233 -54 2 -4 84
-80 183 -168 100 -89 179 -164 176 -166 -3 -3 -101 -25 -218 -48 -206 -41
-213 -43 -210 -66 1 -12 5 -25 7 -28 7 -6 555 101 555 109 0 3 -83 79 -185
169 -102 90 -184 166 -182 168 2 2 107 24 233 49 126 25 236 47 244 50 16 6
19 2 -166 169 -151 137 -241 215 -245 215 -2 -1 -10 -7 -16 -15z"/>
<path d="M1410 16360 c0 -143 3 -260 7 -260 16 0 451 255 445 261 -8 8 -379
222 -424 245 l-28 15 0 -261z m233 80 c70 -40 130 -76 132 -80 4 -7 -304 -190
-319 -190 -3 0 -6 86 -6 191 l0 191 33 -20 c17 -10 90 -52 160 -92z"/>
<path d="M3497 16133 c-3 -10 -8 -34 -11 -55 -8 -43 -21 -50 -81 -41 -52 7
-85 -14 -85 -53 0 -12 -5 -35 -10 -50 -10 -26 -13 -26 -63 -20 -66 7 -97 -10
-97 -55 0 -17 -5 -40 -11 -51 -10 -18 -17 -20 -65 -14 -46 5 -57 3 -74 -14
-11 -11 -20 -33 -20 -50 0 -42 -32 -72 -68 -63 -62 16 -102 -9 -102 -63 0 -50
-20 -64 -84 -57 -48 5 -55 3 -70 -18 -9 -13 -16 -38 -16 -55 0 -44 -17 -55
-76 -48 -61 8 -78 -6 -88 -68 -4 -23 -12 -46 -18 -49 -6 -4 -35 -5 -63 -2 -47
5 -54 3 -69 -18 -9 -13 -16 -38 -16 -56 0 -41 -24 -56 -71 -43 -45 13 -46 13
-69 -10 -12 -12 -20 -33 -20 -52 0 -54 -11 -62 -70 -54 -62 8 -90 -9 -90 -56
0 -16 -5 -38 -11 -50 -10 -18 -17 -19 -70 -13 -36 4 -59 3 -59 -3 0 -5 25 -12
56 -16 69 -8 89 6 97 66 7 51 19 59 83 52 46 -6 53 -4 68 17 9 13 16 38 16 55
0 44 17 55 76 48 62 -8 84 9 84 66 0 50 21 64 74 49 52 -14 86 8 86 56 0 51
29 77 72 64 18 -5 39 -9 45 -9 24 0 53 39 53 72 0 51 22 67 84 61 48 -5 55 -3
70 18 9 13 16 38 16 56 0 41 21 53 82 46 59 -7 74 5 83 60 10 62 20 69 79 62
28 -3 57 -2 65 3 7 5 17 31 22 58 5 26 15 52 22 56 6 5 34 6 60 2 58 -7 87 12
87 58 0 61 27 83 85 67 49 -14 80 6 89 58 4 21 9 46 12 56 3 9 1 17 -5 17 -5
0 -12 -8 -14 -17z"/>
<path d="M385 15637 c-168 -56 -297 -185 -354 -354 -28 -85 -29 -235 -1 -324
57 -187 218 -334 409 -375 314 -66 616 143 661 458 36 256 -112 501 -355 590
-93 34 -266 36 -360 5z m296 -63 c161 -48 276 -158 329 -315 19 -54 21 -80 18
-164 -4 -91 -8 -108 -41 -176 -117 -245 -405 -344 -645 -223 -279 140 -350
501 -143 735 115 131 319 191 482 143z"/>
<path d="M6260 15333 c-79 -137 -204 -351 -277 -476 -73 -125 -133 -230 -133
-232 0 -3 252 -5 559 -5 l560 0 -86 148 c-47 81 -169 291 -271 467 -102 176
-190 326 -196 333 -9 9 -45 -45 -156 -235z m272 -133 c239 -408 278 -477 278
-488 0 -9 -105 -12 -406 -12 -371 0 -406 1 -400 16 18 46 401 693 407 686 4
-4 59 -95 121 -202z"/>
<path d="M3845 14996 c-109 -50 -167 -176 -136 -293 47 -173 274 -243 411
-126 78 67 108 174 78 275 -15 51 -77 121 -131 147 -61 30 -156 28 -222 -3z
m200 -25 c74 -35 135 -124 135 -199 0 -124 -130 -237 -251 -218 -116 19 -191
102 -192 215 -1 160 165 268 308 202z"/>
<path d="M1896 14012 c-34 -53 -50 -136 -36 -198 33 -145 139 -233 281 -234
79 0 142 20 193 62 33 27 36 33 23 45 -13 13 -20 10 -60 -20 -82 -63 -179 -69
-273 -18 -124 67 -166 225 -93 349 23 40 23 38 4 46 -10 3 -23 -7 -39 -32z"/>
<path d="M8141 13886 l-22 -23 165 -164 c91 -90 166 -167 166 -170 0 -4 -75
-81 -167 -172 l-168 -166 23 -23 22 -22 78 75 c42 41 120 117 172 167 l94 93
167 -167 c120 -120 172 -165 183 -161 44 17 29 38 -138 206 l-167 168 168 166
c145 144 166 169 157 184 -6 10 -18 18 -26 18 -8 0 -89 -71 -178 -158 -90 -86
-168 -156 -172 -155 -5 2 -82 76 -172 166 l-163 162 -22 -24z"/>
<path d="M6800 13440 c-79 -37 -160 -133 -160 -190 0 -38 28 -20 55 35 90 185
362 183 451 -3 10 -20 20 -66 23 -102 5 -49 10 -65 21 -65 22 0 25 83 6 149
-19 66 -77 133 -142 166 -69 35 -190 39 -254 10z"/>
<path d="M3091 13119 l-254 -250 253 -247 c139 -136 256 -247 260 -247 5 0
121 111 258 247 l251 247 -250 248 c-138 136 -253 249 -257 250 -4 1 -121
-111 -261 -248z m466 -55 l198 -195 -200 -194 c-110 -107 -203 -194 -207 -195
-3 0 -96 88 -205 195 l-198 194 195 195 c107 106 200 194 207 195 6 0 101 -87
210 -195z"/>
<path d="M390 12945 l0 -325 330 0 330 0 0 325 0 325 -330 0 -330 0 0 -325z
m590 0 l0 -255 -260 0 -260 0 0 255 0 255 260 0 260 0 0 -255z"/>
<path d="M5395 13218 c-2 -7 -9 -31 -16 -53 -6 -22 -29 -74 -49 -115 -45 -91
-55 -131 -40 -161 21 -39 81 -22 195 55 55 36 108 66 119 66 26 0 17 -37 -35
-145 -45 -96 -59 -156 -39 -180 21 -25 72 -18 131 18 198 122 186 117 195 92
3 -7 -16 -60 -42 -117 -49 -108 -66 -180 -44 -193 15 -9 30 12 30 41 0 12 20
64 45 117 24 53 47 114 51 135 6 36 3 42 -20 57 -35 23 -65 14 -153 -45 -177
-120 -196 -110 -117 57 55 115 64 161 38 187 -28 29 -76 14 -176 -54 -161
-110 -174 -102 -100 57 54 118 65 153 56 177 -7 19 -23 21 -29 4z"/>
<path d="M5130 12020 c0 -5 12 -22 28 -38 15 -16 37 -41 49 -56 18 -22 29 -27
60 -24 30 2 42 10 68 48 43 61 73 65 111 13 39 -53 53 -63 91 -63 28 0 38 7
69 50 48 67 77 68 119 5 49 -74 101 -75 155 -2 48 65 76 64 124 -3 31 -43 41
-50 69 -50 38 0 52 10 91 63 18 25 35 37 51 37 16 0 33 -12 51 -37 39 -53 53
-63 90 -63 27 0 38 8 68 50 44 61 72 66 110 18 48 -62 56 -68 89 -68 34 0 56
17 90 73 28 44 65 37 107 -20 32 -43 39 -48 75 -48 36 0 43 5 75 48 48 65 76
64 124 -3 31 -43 41 -50 69 -50 38 0 52 10 91 63 18 25 35 37 51 37 16 0 33
-12 51 -37 39 -53 53 -63 89 -63 32 0 55 19 88 73 29 45 68 38 111 -23 33 -46
39 -50 76 -50 37 0 43 4 76 50 20 28 42 50 50 50 8 0 14 7 14 15 0 33 -33 9
-97 -68 -28 -33 -57 -35 -81 -5 -42 54 -82 88 -102 88 -20 0 -47 -23 -97 -84
-31 -38 -58 -33 -94 17 -59 81 -112 83 -159 7 -39 -64 -83 -65 -119 -5 -26 45
-64 69 -96 61 -15 -4 -41 -28 -62 -57 -46 -64 -74 -64 -116 -1 -53 79 -97 80
-153 2 -48 -67 -72 -67 -119 -1 -55 76 -97 77 -152 3 -50 -67 -70 -69 -115 -8
-60 81 -107 83 -163 5 -48 -68 -71 -65 -129 13 -48 66 -92 61 -146 -17 -42
-62 -69 -61 -115 4 -55 76 -97 77 -152 3 -51 -67 -70 -69 -115 -8 -59 80 -111
82 -159 5 -40 -66 -77 -63 -125 12 -20 33 -64 59 -64 39z"/>
<path d="M553 11210 c-205 -203 -373 -373 -373 -378 0 -11 737 -742 747 -741
5 0 177 166 383 369 l375 370 -375 375 c-206 206 -377 374 -380 374 -3 0 -173
-166 -377 -369z m677 -85 l294 -295 -294 -290 c-162 -159 -299 -290 -305 -290
-5 0 -141 131 -302 292 l-291 291 296 293 c163 162 299 294 302 294 3 0 138
-133 300 -295z"/>
<path d="M7458 11383 c-8 -10 -18 -24 -23 -32 -5 -9 57 -78 211 -232 l219
-219 -220 -220 -219 -219 24 -26 c13 -14 28 -25 34 -25 5 0 107 97 226 215
l215 215 220 -215 c120 -118 222 -215 226 -215 5 0 20 10 35 23 l27 23 -224
222 -224 221 223 223 223 224 -30 29 -31 28 -222 -221 -223 -222 -220 220
c-121 121 -223 220 -226 220 -3 0 -13 -8 -21 -17z"/>
<path d="M2660 10850 l0 -510 515 0 515 0 0 510 0 510 -515 0 -515 0 0 -510z
m910 0 l0 -400 -400 0 -400 0 0 400 0 400 400 0 400 0 0 -400z"/>
<path d="M4706 11018 c-38 -39 -65 -106 -112 -282 -38 -141 -62 -204 -87 -225
-10 -8 -17 -28 -17 -48 0 -31 2 -34 23 -28 63 20 93 79 154 298 93 339 124
331 228 -58 35 -131 69 -202 109 -226 93 -57 154 16 220 266 93 351 126 352
218 10 47 -174 85 -258 128 -280 92 -47 149 25 214 270 40 153 71 238 91 255
8 7 15 28 15 47 0 31 -2 34 -22 27 -58 -17 -93 -84 -143 -274 -94 -355 -128
-353 -225 10 -56 209 -106 281 -186 265 -61 -11 -94 -71 -149 -279 -41 -153
-70 -228 -95 -251 -17 -15 -19 -15 -39 6 -23 25 -46 89 -96 271 -40 147 -62
195 -105 232 -44 36 -84 34 -124 -6z"/>
<path d="M7618 9573 c-9 -10 -25 -37 -36 -59 -31 -60 -54 -62 -112 -8 -56 52
-89 57 -125 18 -14 -15 -25 -33 -25 -41 0 -16 -44 -63 -59 -63 -6 0 -33 20
-61 45 -74 66 -107 60 -152 -29 -36 -70 -50 -72 -118 -11 -28 25 -59 45 -68
45 -29 0 -62 -29 -83 -76 -31 -64 -59 -68 -112 -16 -23 22 -51 42 -62 46 -32
9 -66 -15 -94 -69 -35 -67 -62 -71 -119 -15 -36 36 -47 41 -79 38 -34 -3 -40
-8 -68 -58 -40 -72 -61 -75 -120 -21 -67 62 -112 55 -151 -22 -21 -41 -44 -67
-59 -67 -6 0 -33 20 -59 45 -28 26 -58 45 -71 45 -28 0 -72 -34 -81 -63 -8
-28 -43 -67 -60 -67 -8 0 -36 20 -64 45 -28 25 -59 45 -69 45 -28 0 -61 -31
-85 -81 -29 -61 -58 -63 -111 -9 -32 32 -46 40 -76 40 -40 0 -53 -11 -85 -74
-30 -59 -65 -61 -119 -6 -26 27 -47 40 -65 39 -23 0 -24 -1 -6 -12 11 -7 38
-28 60 -48 75 -67 115 -59 161 31 32 64 58 66 115 10 31 -30 49 -40 74 -40 37
0 54 15 84 76 34 67 57 66 121 0 26 -26 43 -36 66 -36 36 0 53 16 83 76 18 35
38 54 57 54 3 0 27 -20 55 -45 75 -67 110 -60 158 30 15 27 35 51 45 53 11 2
38 -15 67 -42 27 -25 56 -46 64 -46 30 0 65 23 77 52 18 43 48 78 68 78 9 0
30 -14 47 -31 16 -17 42 -37 57 -45 38 -20 74 -2 103 51 44 80 65 84 123 25
31 -31 47 -40 74 -40 38 0 54 15 86 78 29 57 62 58 116 2 60 -61 112 -52 145
25 16 37 43 65 64 65 3 0 28 -20 56 -45 71 -63 107 -60 142 9 25 50 47 76 64
76 7 0 36 -20 64 -45 28 -25 59 -45 69 -45 29 0 68 37 81 75 6 19 20 40 31 45
10 6 19 15 19 20 0 16 -26 11 -42 -7z"/>
<path d="M3853 9263 c-97 -171 -265 -458 -274 -467 -5 -6 -9 -16 -9 -23 0 -10
67 -13 335 -13 200 0 335 4 335 9 0 9 -315 558 -330 574 -4 4 -29 -32 -57 -80z
m181 -237 c64 -109 116 -203 116 -207 0 -5 -111 -9 -246 -9 -230 0 -246 1
-239 18 18 49 239 412 246 405 4 -4 60 -97 123 -207z"/>
<path d="M1775 9074 c-11 -2 -45 -9 -75 -15 -176 -35 -341 -194 -395 -382 -24
-85 -22 -226 6 -310 23 -70 37 -80 73 -54 17 13 17 16 -3 81 -27 88 -28 193
-1 277 93 299 449 425 714 255 57 -37 126 -108 150 -155 16 -31 17 -31 46 -16
17 9 30 21 30 28 0 19 -82 123 -126 161 -53 45 -138 91 -202 110 -56 16 -183
28 -217 20z"/>
<path d="M220 8694 l0 -266 23 14 c12 8 115 67 230 132 114 65 207 121 207
125 -1 6 -443 261 -454 261 -3 0 -6 -120 -6 -266z m206 105 c88 -50 162 -93
166 -97 6 -6 -290 -183 -319 -190 -10 -3 -13 40 -13 187 0 105 2 191 4 191 2
0 75 -41 162 -91z"/>
<path d="M8025 8812 c-198 -53 -361 -97 -363 -98 -2 -1 0 -18 3 -38 5 -24 13
-36 24 -36 9 0 147 36 306 78 160 43 291 77 293 76 3 -1 -56 -148 -212 -533
-26 -62 -45 -116 -42 -118 3 -3 85 16 183 42 408 108 503 133 503 130 0 -1
-52 -129 -115 -285 -63 -156 -115 -288 -115 -294 0 -14 62 -39 71 -28 9 9 289
707 289 719 0 5 -150 -30 -332 -79 -183 -48 -337 -88 -342 -88 -12 0 -10 5
127 343 114 280 123 307 104 306 -12 -1 -184 -44 -382 -97z"/>
<path d="M6065 8276 c-234 -54 -410 -211 -487 -435 -20 -56 -23 -86 -23 -201
0 -115 3 -145 23 -202 13 -37 27 -70 32 -73 5 -3 25 2 45 12 25 12 34 21 29
32 -39 95 -47 132 -48 226 -1 119 25 212 85 305 107 166 280 260 477 260 198
0 375 -95 478 -256 l34 -54 35 17 c19 9 35 22 35 28 0 21 -98 151 -142 189
-117 101 -254 155 -412 162 -65 2 -122 -1 -161 -10z"/>
<path d="M2419 7915 c-25 -42 -32 -43 -71 -10 -46 39 -73 31 -103 -28 -15 -30
-28 -31 -59 -2 -37 34 -74 30 -96 -10 -22 -39 -40 -42 -74 -10 -38 36 -61 32
-91 -15 -14 -22 -28 -40 -31 -40 -3 0 -20 11 -36 26 -39 32 -78 29 -95 -7 -24
-50 -38 -53 -77 -19 -43 39 -64 36 -95 -13 -29 -44 -41 -46 -77 -12 -36 34
-63 29 -93 -17 -29 -45 -39 -47 -71 -13 -36 38 -76 34 -97 -10 -20 -42 -49
-46 -83 -10 -33 35 -56 31 -85 -15 -14 -22 -30 -40 -36 -40 -6 0 -24 11 -41
25 -43 36 -75 33 -95 -10 -22 -46 -41 -51 -73 -20 -14 14 -34 25 -43 25 -13 0
-9 -8 16 -30 45 -39 82 -40 101 -2 28 54 42 58 81 23 20 -17 38 -31 41 -31 17
0 46 25 59 50 19 37 38 38 77 5 44 -37 64 -33 92 23 20 39 44 41 76 7 35 -37
65 -33 95 15 14 22 28 40 31 40 4 0 22 -14 41 -31 43 -37 61 -34 92 14 29 44
45 46 82 11 36 -35 69 -27 92 21 20 41 35 44 67 10 35 -37 75 -34 96 8 25 47
35 50 71 15 40 -39 72 -33 96 17 20 41 35 44 67 10 31 -33 65 -32 87 3 32 52
42 55 80 22 49 -44 64 -40 101 23 12 20 17 37 11 37 -5 0 -19 -16 -30 -35z"/>
<path d="M1670 7040 c0 -168 4 -260 10 -260 6 0 112 58 236 129 l225 129 -229
131 c-126 72 -232 131 -236 131 -3 0 -6 -117 -6 -260z m210 99 c88 -50 162
-94 165 -98 4 -7 -294 -182 -322 -189 -10 -3 -13 35 -13 187 0 105 2 191 5
191 3 0 77 -41 165 -91z"/>
<path d="M3555 7043 c-44 -23 -78 -57 -163 -163 -103 -129 -191 -220 -213
-220 -13 0 -39 -43 -39 -66 0 -2 15 -4 33 -4 61 1 99 34 246 213 108 132 164
187 190 187 6 0 16 -12 22 -27 12 -32 6 -105 -22 -268 -40 -234 -17 -325 84
-325 48 0 107 48 202 166 121 149 195 224 221 224 42 0 44 -40 8 -281 -35
-240 -23 -317 55 -334 65 -14 130 36 260 199 88 111 173 196 196 196 11 0 35
41 35 60 0 15 -57 12 -88 -4 -37 -20 -122 -110 -221 -234 -90 -111 -153 -164
-174 -143 -18 18 -12 145 12 291 40 238 20 320 -79 320 -62 0 -119 -50 -268
-236 -114 -143 -169 -183 -186 -138 -11 29 -6 121 13 235 30 179 34 226 21
280 -20 80 -76 109 -145 72z"/>
<path d="M225 6789 c-110 -99 -201 -183 -203 -187 -1 -4 108 -29 243 -56 135
-27 245 -51 244 -55 0 -3 -70 -67 -155 -141 -167 -146 -223 -200 -208 -200 5
0 131 -24 279 -54 149 -30 270 -53 271 -53 1 1 4 14 8 29 7 30 25 25 -259 79
-93 18 -172 34 -175 37 -5 4 11 19 233 215 113 99 135 123 120 129 -10 4 -112
26 -228 48 -275 54 -253 46 -218 82 15 16 90 84 165 151 131 114 137 121 121
139 -9 10 -21 18 -27 17 -6 0 -101 -81 -211 -180z"/>
<path d="M7260 6793 c-118 -68 -221 -127 -228 -132 -8 -4 72 -55 215 -138
l228 -131 3 135 c1 74 1 192 0 262 l-3 129 -215 -125z m180 -142 l0 -189 -144
81 c-78 45 -153 89 -166 98 -23 15 -20 17 136 107 87 51 162 92 167 92 4 0 7
-85 7 -189z"/>
<path d="M5373 6436 c3 -8 9 -32 13 -53 11 -63 29 -76 95 -68 51 6 59 5 68
-13 6 -12 11 -34 11 -50 0 -46 30 -66 89 -58 44 6 51 4 65 -16 9 -12 16 -34
16 -48 0 -48 21 -63 78 -58 65 6 82 -5 89 -60 7 -55 24 -67 97 -67 58 0 61 -1
64 -25 9 -86 27 -104 94 -95 59 8 78 -4 78 -51 0 -21 8 -42 21 -55 17 -17 28
-19 74 -14 47 6 54 5 64 -13 6 -12 11 -34 11 -50 0 -47 28 -64 90 -56 59 8 70
0 70 -53 0 -35 29 -73 54 -73 8 0 27 5 41 10 39 15 61 -2 68 -50 8 -62 22 -73
84 -67 46 5 55 3 68 -16 8 -12 15 -34 15 -49 0 -44 24 -59 91 -56 77 4 71 23
-7 23 l-59 0 -8 40 c-15 67 -18 70 -86 71 -69 0 -81 9 -81 60 0 54 -19 68 -80
61 -63 -8 -80 2 -80 47 0 17 -7 42 -16 55 -15 21 -21 22 -74 16 l-57 -7 -12
33 c-6 17 -11 40 -11 50 0 36 -30 52 -83 45 -58 -8 -77 3 -77 48 0 17 -7 42
-16 55 -15 21 -21 23 -75 17 -51 -6 -59 -5 -68 13 -6 11 -11 33 -11 49 0 46
-30 66 -89 58 -59 -8 -81 8 -81 59 0 50 -24 68 -82 63 -60 -6 -76 5 -86 62 -9
55 -40 75 -92 60 -46 -13 -66 1 -73 50 -8 63 -32 83 -88 76 -62 -8 -77 -1 -85
42 -9 57 -15 72 -26 72 -5 0 -8 -6 -5 -14z"/>
<path d="M8196 5944 c-91 -22 -174 -71 -251 -149 -112 -112 -160 -234 -158
-395 4 -294 248 -530 548 -530 154 0 280 53 391 164 108 108 155 222 157 376
1 153 -49 275 -158 386 -76 78 -174 133 -273 153 -71 15 -184 13 -256 -5z
m249 -69 c90 -23 162 -64 226 -127 102 -100 145 -218 137 -370 -4 -71 -10 -97
-41 -162 -143 -301 -530 -369 -768 -136 -161 158 -185 409 -58 599 108 162
318 244 504 196z"/>
<path d="M2260 5498 c-123 -211 -247 -425 -277 -477 -30 -51 -52 -95 -50 -97
6 -6 1107 -10 1107 -3 0 3 -35 66 -78 140 -43 74 -163 280 -267 459 -104 179
-194 333 -200 343 -11 15 -42 -33 -235 -365z m424 -131 c108 -185 199 -344
202 -352 5 -13 -45 -15 -400 -15 -241 0 -406 4 -406 9 0 11 402 703 406 699 1
-2 90 -155 198 -341z"/>
<path d="M4847 5306 c-124 -45 -193 -182 -156 -313 19 -69 97 -146 168 -167
68 -20 84 -20 150 0 111 33 188 144 179 259 -9 102 -59 173 -153 216 -47 22
-134 24 -188 5z m190 -44 c163 -84 156 -317 -12 -393 -117 -54 -264 13 -301
136 -19 64 -10 121 26 179 63 98 183 131 287 78z"/>
<path d="M6953 4339 c-8 -8 -4 -24 13 -58 34 -68 39 -118 20 -185 -19 -66 -69
-127 -130 -159 -31 -16 -59 -21 -111 -21 -75 0 -118 15 -167 62 -23 21 -30 23
-43 12 -14 -12 -13 -16 11 -41 68 -71 219 -96 315 -53 111 51 174 149 173 269
-1 96 -51 204 -81 174z"/>
<path d="M25 4180 c-19 -21 -17 -23 150 -190 l169 -169 -167 -165 c-92 -91
-167 -169 -167 -174 0 -5 9 -17 20 -27 19 -17 23 -14 190 150 l170 169 77 -76
c43 -42 118 -116 167 -166 87 -87 91 -89 113 -75 13 9 23 20 23 27 0 6 -75 84
-167 173 l-168 162 170 170 170 171 -23 22 -22 23 -170 -170 -170 -170 -168
168 c-92 92 -170 167 -173 167 -3 0 -14 -9 -24 -20z"/>
<path d="M1868 3741 c-113 -44 -177 -134 -186 -261 -4 -65 -3 -70 15 -70 18 0
21 8 25 68 3 39 13 83 26 107 94 184 370 177 453 -11 18 -41 41 -56 53 -36 11
18 -43 110 -88 149 -81 72 -198 93 -298 54z"/>
<path d="M5283 3418 l-253 -253 248 -247 c137 -137 254 -248 260 -248 6 0 124
111 262 247 l251 247 -253 253 c-139 139 -255 253 -258 253 -3 0 -119 -114
-257 -252z m463 -57 l197 -193 -201 -201 -201 -201 -201 199 -201 199 198 198
c109 109 201 197 205 196 3 -2 95 -90 204 -197z"/>
<path d="M7840 3245 l0 -325 330 0 330 0 0 325 0 325 -330 0 -330 0 0 -325z
m590 0 l0 -255 -260 0 -260 0 0 255 0 255 260 0 260 0 0 -255z"/>
<path d="M3470 3487 c0 -30 14 -72 50 -147 28 -58 50 -110 50 -117 0 -36 -41
-21 -153 58 -91 64 -129 76 -164 54 -22 -15 -25 -22 -20 -55 3 -21 26 -82 51
-135 47 -99 57 -145 33 -145 -8 0 -63 32 -122 70 -122 79 -163 90 -193 52 -19
-25 -7 -73 43 -178 24 -50 45 -105 48 -122 6 -38 16 -54 28 -47 19 13 9 86
-21 145 -44 88 -72 161 -66 176 8 20 41 5 146 -65 96 -64 137 -79 169 -61 34
17 27 71 -23 180 -85 185 -73 197 88 85 110 -77 162 -90 187 -44 15 28 4 67
-48 174 -24 50 -45 103 -47 116 -6 61 -36 66 -36 6z"/>
<path d="M1030 2311 c0 -5 8 -12 18 -16 9 -3 29 -24 45 -46 15 -22 38 -45 52
-51 34 -16 68 1 102 51 46 66 79 66 128 -1 17 -23 37 -46 46 -51 29 -18 68 2
105 53 48 66 70 66 117 1 20 -27 45 -52 57 -56 32 -10 71 12 105 58 44 60 63
59 119 -8 65 -75 93 -74 151 7 44 60 66 61 110 1 59 -81 102 -82 159 -3 48 67
72 67 120 0 56 -78 106 -76 156 5 31 49 66 57 97 19 91 -113 102 -113 188 -6
15 17 35 32 45 32 10 0 37 -22 60 -49 66 -79 98 -79 154 -1 48 67 72 67 120 0
56 -78 100 -77 153 2 42 63 70 63 116 -1 58 -80 100 -79 157 4 17 25 37 45 45
45 8 0 15 5 15 10 0 6 -8 10 -18 10 -19 0 -47 -26 -75 -72 -27 -43 -70 -39
-101 10 -33 52 -50 64 -87 60 -26 -2 -41 -13 -67 -48 -56 -73 -74 -73 -127 1
-30 43 -40 49 -70 49 -35 0 -42 -5 -91 -67 -37 -48 -67 -44 -106 12 -52 74
-104 74 -156 0 -43 -61 -67 -60 -122 5 -63 75 -106 69 -163 -22 -13 -20 -26
-28 -47 -28 -21 0 -34 8 -47 28 -33 54 -56 72 -89 72 -26 0 -40 -9 -74 -50
-28 -34 -49 -50 -65 -50 -16 0 -34 15 -59 50 -31 44 -40 50 -71 50 -26 0 -41
-7 -58 -27 -59 -72 -76 -84 -97 -73 -11 6 -32 29 -47 51 -43 66 -106 66 -148
-1 -45 -71 -73 -71 -127 0 -30 40 -39 45 -73 45 -34 0 -43 -5 -73 -45 -28 -36
-41 -45 -65 -45 -26 0 -37 8 -60 42 -48 72 -107 71 -157 -2 -44 -64 -75 -63
-124 5 -23 31 -43 50 -56 50 -11 0 -20 -4 -20 -9z"/>
<path d="M7586 1543 l-380 -376 379 -374 379 -374 245 244 c136 135 303 301
374 369 70 69 127 129 127 134 0 5 -168 176 -372 381 l-373 372 -379 -376z
m679 -83 l296 -294 -297 -292 -298 -292 -37 31 c-21 18 -156 150 -300 293
l-262 262 299 295 c164 162 300 294 301 293 1 0 135 -134 298 -296z"/>
<path d="M492 1707 c-12 -13 -22 -27 -22 -31 0 -4 98 -103 218 -221 l217 -215
-217 -217 c-120 -120 -218 -223 -218 -229 0 -6 11 -21 25 -34 l26 -24 222 222
222 222 222 -222 222 -222 26 24 c14 13 25 28 25 34 0 7 -97 107 -215 223
-118 117 -215 216 -215 221 0 6 97 103 215 218 118 114 215 213 215 219 0 6
-11 22 -25 35 l-26 24 -217 -217 c-119 -119 -222 -217 -227 -217 -6 0 -107 97
-225 215 -118 118 -217 215 -221 215 -3 0 -15 -10 -27 -23z"/>
<path d="M5210 1185 l0 -515 515 0 515 0 -2 513 -3 512 -512 3 -513 2 0 -515z
m915 0 l0 -400 -402 -3 -403 -2 0 405 0 405 403 -2 402 -3 0 -400z"/>
<path d="M3000 1346 c0 -20 6 -36 14 -39 19 -7 50 -93 92 -252 57 -212 99
-285 168 -285 76 0 111 59 177 297 42 153 69 225 88 237 41 26 68 -28 127
-249 56 -210 100 -285 169 -285 68 0 113 66 159 235 68 248 91 305 126 305 29
0 54 -58 100 -225 53 -191 75 -249 111 -285 42 -42 69 -40 69 5 0 18 -6 38
-14 42 -23 14 -45 69 -86 218 -52 188 -75 247 -110 285 -23 25 -36 30 -73 30
-38 0 -49 -5 -71 -31 -36 -43 -50 -78 -102 -264 -48 -168 -78 -238 -106 -243
-26 -5 -61 75 -108 248 -64 237 -96 290 -175 290 -36 0 -48 -5 -71 -32 -37
-45 -54 -90 -103 -268 -44 -162 -75 -233 -103 -238 -26 -5 -62 77 -107 244
-22 82 -48 169 -59 194 -24 56 -65 100 -92 100 -16 0 -20 -6 -20 -34z"/>
</g>
</svg>
