<?xml version="1.0" standalone="no"?>
<!DOCTYPE svg PUBLIC "-//W3C//DTD SVG 20010904//EN"
 "http://www.w3.org/TR/2001/REC-SVG-20010904/DTD/svg10.dtd">
<svg version="1.0" xmlns="http://www.w3.org/2000/svg"
 width="1094.000000pt" height="1280.000000pt" viewBox="0 0 1094.000000 1280.000000"
 preserveAspectRatio="xMidYMid meet">
<metadata>
Created by potrace 1.15, written by Peter Selinger 2001-2017
</metadata>
<g transform="translate(0.000000,1280.000000) scale(0.100000,-0.100000)"
fill="#000000" stroke="none">
<path d="M3829 12753 c-89 -101 -166 -241 -213 -391 -60 -190 -91 -404 -126
-872 -11 -146 -27 -312 -35 -369 -10 -65 -12 -108 -6 -115 6 -7 -4 -26 -30
-56 l-39 -45 -18 24 c-16 20 -22 22 -41 12 -25 -14 -19 -32 22 -68 14 -11 41
-50 60 -85 66 -118 103 -249 193 -673 37 -175 79 -321 120 -413 l23 -53 -32
-19 c-18 -11 -39 -20 -47 -19 -9 0 -39 50 -77 127 -62 128 -160 285 -235 374
l-41 49 32 33 c56 58 43 97 -78 230 -39 43 -70 80 -68 83 2 2 16 -1 31 -7 15
-5 47 -10 71 -10 40 0 45 3 51 26 16 62 -2 167 -45 268 -49 113 -52 141 -22
189 l21 35 -30 12 c-16 7 -35 19 -41 27 -21 25 -87 53 -124 53 l-35 0 0 -47
c0 -71 24 -158 70 -255 22 -48 47 -106 55 -129 l15 -41 -33 6 c-98 18 -147 19
-172 2 -14 -9 -31 -28 -37 -41 -15 -33 16 -83 126 -205 47 -52 86 -98 86 -102
0 -5 -9 -8 -20 -8 -27 0 -90 -31 -90 -45 0 -22 77 -130 157 -221 141 -161 170
-208 258 -420 114 -274 134 -306 305 -474 71 -69 117 -124 136 -160 31 -61 33
-101 23 -410 -4 -125 -2 -139 19 -185 12 -27 30 -57 39 -67 9 -10 14 -20 12
-22 -13 -11 -164 -86 -175 -86 -23 0 -116 82 -126 111 -5 16 -17 29 -25 29
-33 0 -582 -104 -768 -145 -311 -69 -613 -156 -836 -239 l-96 -36 -64 15
c-151 35 -239 5 -239 -83 0 -23 6 -32 30 -42 63 -26 110 -106 110 -190 l0 -35
-58 -2 c-42 -1 -80 -11 -148 -41 -123 -55 -164 -58 -214 -16 -27 23 -35 25
-56 16 -31 -15 -31 -39 0 -71 13 -15 26 -35 28 -45 4 -25 -47 -41 -307 -96
-244 -52 -396 -93 -493 -131 -125 -50 -156 -71 -186 -133 -18 -36 -55 -82
-114 -138 -232 -222 -268 -270 -279 -383 -6 -58 23 -223 37 -208 4 4 20 40 34
79 28 72 67 132 191 295 64 84 70 89 73 64 2 -18 -19 -74 -62 -164 -82 -172
-88 -216 -34 -276 l31 -36 52 109 c116 242 241 372 503 521 41 22 75 41 77 41
1 0 0 -21 -3 -47 l-5 -46 40 5 c66 9 110 37 175 110 l62 70 13 -26 c30 -58 66
-54 147 13 56 47 83 51 124 16 17 -14 32 -25 35 -25 3 0 11 16 17 35 10 31
108 131 118 121 2 -2 -4 -18 -12 -35 -16 -29 -22 -91 -10 -91 4 0 34 14 69 31
38 18 86 55 126 95 35 35 67 64 71 64 9 0 -20 -59 -86 -175 -25 -44 -46 -91
-46 -106 0 -36 11 -89 19 -89 3 0 29 30 56 67 71 94 223 245 340 339 209 166
453 311 844 502 l255 125 25 -34 c15 -18 68 -81 119 -140 l93 -108 -40 -79
c-48 -95 -93 -240 -115 -372 -34 -199 -39 -339 -30 -785 10 -501 10 -833 0
-926 -6 -59 -10 -67 -38 -83 -54 -32 -167 -147 -213 -216 -66 -99 -120 -232
-140 -340 -5 -27 -31 -61 -112 -145 -161 -166 -230 -284 -256 -434 -12 -64
-12 -64 -93 -132 -97 -81 -120 -108 -136 -161 -11 -38 -10 -40 16 -62 26 -20
27 -24 15 -45 -8 -12 -48 -50 -89 -83 -156 -124 -220 -199 -254 -296 l-15 -42
42 -10 c123 -31 152 -61 145 -148 -4 -45 -21 -92 -86 -228 -46 -97 -85 -192
-88 -217 -6 -43 -5 -46 24 -61 38 -19 82 -92 82 -132 0 -16 -7 -38 -15 -48
-18 -23 -26 -17 -85 59 -51 66 -120 114 -120 84 0 -6 -24 -62 -54 -125 -66
-137 -142 -256 -325 -504 -174 -235 -248 -345 -310 -462 -127 -238 -190 -492
-191 -761 l0 -109 40 32 c65 51 88 112 125 320 17 103 44 161 88 194 l27 20
28 -27 27 -27 2 -168 c2 -194 4 -210 37 -258 l25 -37 11 44 c40 160 122 365
270 679 102 215 189 424 215 513 9 32 20 57 23 55 4 -2 24 -12 45 -23 35 -18
41 -18 65 -4 27 15 27 17 27 116 0 120 -14 146 -74 141 -32 -3 -37 -7 -45 -40
-5 -21 -12 -38 -16 -38 -3 0 -23 15 -43 34 -41 38 -46 63 -22 120 16 37 48 76
64 76 5 0 12 -15 15 -34 9 -47 35 -66 107 -76 62 -9 89 -26 89 -57 0 -7 11
-13 25 -13 l25 0 -2 145 c-3 126 -1 146 14 162 17 16 19 16 51 -15 37 -36 90
-44 101 -16 10 27 6 96 -9 159 -18 77 -19 139 -1 154 11 9 21 2 49 -37 39 -55
93 -84 104 -56 3 8 3 62 -1 119 -4 61 -3 105 2 109 12 7 57 -94 70 -159 6 -28
20 -125 32 -215 25 -203 41 -271 81 -357 l32 -68 18 165 c105 969 254 1600
513 2163 l35 77 48 0 c27 0 57 3 68 6 18 5 21 -4 38 -107 20 -120 78 -311 122
-400 49 -98 136 -219 214 -298 75 -76 219 -191 240 -191 6 0 17 -13 25 -28 8
-16 52 -65 97 -108 131 -126 152 -150 189 -222 l36 -67 90 -3 91 -3 12 -39
c17 -58 73 -106 188 -161 75 -37 109 -48 128 -43 15 4 25 2 25 -5 0 -7 8 -8
26 -1 46 18 103 11 252 -31 285 -80 422 -58 493 77 29 54 56 64 101 36 57 -35
79 -32 122 15 49 55 112 84 270 127 71 20 130 37 132 38 1 2 -4 32 -13 68 -17
75 -13 138 12 176 25 38 29 23 11 -39 -31 -105 -15 -168 44 -182 23 -5 27 -1
43 44 9 27 31 63 47 81 31 33 32 33 113 18 14 -2 24 12 44 62 42 107 108 194
275 366 163 168 233 262 284 378 15 36 31 66 35 66 11 0 85 -112 118 -178 72
-142 135 -382 165 -622 24 -192 35 -363 46 -755 6 -198 15 -438 20 -533 6 -95
10 -188 10 -207 0 -19 4 -35 9 -35 5 0 30 42 54 93 33 66 53 126 72 212 55
259 67 303 94 361 33 70 80 120 136 145 37 17 40 17 50 1 18 -30 12 -202 -7
-241 -17 -32 -17 -34 5 -52 34 -28 68 -24 98 13 l27 32 -28 -125 c-15 -68 -37
-150 -48 -181 l-21 -57 32 6 c40 7 66 20 96 47 23 20 23 20 14 1 -17 -34 -77
-294 -70 -301 4 -4 42 4 84 19 43 14 78 25 80 23 1 -1 -11 -49 -28 -107 -23
-77 -29 -118 -26 -159 4 -49 8 -58 48 -93 l44 -39 13 45 c9 34 22 51 52 71 22
14 42 26 45 26 3 0 5 -26 5 -57 0 -32 11 -161 25 -288 55 -507 57 -533 52
-735 -6 -206 -21 -307 -71 -471 -14 -47 -26 -88 -26 -92 0 -3 23 8 51 26 97
60 123 115 174 367 34 171 62 245 107 287 21 20 77 47 83 41 17 -18 28 -128
35 -347 11 -318 27 -417 67 -409 19 4 54 115 79 254 25 138 25 454 1 614 -51
323 -168 644 -317 866 -40 59 -60 99 -60 119 0 46 -37 170 -74 251 -38 80 -96
170 -149 227 l-36 38 25 36 c39 58 27 122 -44 225 -32 48 -66 111 -76 146 -7
19 -4 22 23 22 59 0 111 35 132 89 8 20 5 29 -19 55 -45 48 -85 111 -146 233
l-56 113 34 14 c19 8 40 24 46 36 10 19 6 28 -32 77 -24 30 -64 83 -90 116
-25 33 -59 85 -74 116 -25 49 -28 68 -29 146 0 105 9 87 -158 295 -176 219
-217 303 -217 448 0 112 -16 173 -95 353 -83 193 -109 296 -102 409 2 47 28
204 56 350 58 304 95 529 112 680 17 157 15 455 -5 575 -18 105 -65 259 -96
312 l-18 31 37 25 c73 48 130 119 161 197 7 19 15 37 16 39 6 7 202 -104 302
-171 364 -243 666 -573 997 -1087 70 -109 80 -121 86 -100 22 78 0 166 -85
348 -61 130 -106 253 -106 291 0 25 102 118 156 141 81 37 91 12 48 -126 -14
-46 -24 -93 -22 -106 3 -22 8 -24 57 -24 46 1 57 5 77 28 13 15 29 45 35 67
10 34 15 39 33 34 46 -14 46 -18 10 -71 -47 -67 -56 -128 -25 -172 35 -48 80
-39 117 24 15 26 30 12 38 -33 7 -48 42 -102 79 -122 27 -14 29 -14 53 13 l24
28 0 -27 c0 -15 13 -57 29 -93 16 -36 32 -74 35 -83 4 -13 16 -18 44 -18 44 0
67 19 78 65 10 45 13 46 47 29 51 -27 96 -70 206 -202 109 -131 186 -192 265
-213 93 -24 106 -31 137 -75 39 -57 61 -122 94 -280 15 -71 36 -156 47 -189
19 -59 81 -165 96 -165 19 0 65 118 70 180 6 89 -15 164 -93 331 -88 185 -110
249 -86 249 5 0 32 -21 60 -46 63 -56 103 -137 161 -321 23 -73 45 -133 50
-133 19 0 96 68 113 100 28 54 17 116 -47 265 -30 72 -58 149 -62 173 -6 39
-11 45 -58 69 -87 44 -176 106 -301 209 -316 260 -464 337 -693 360 -37 4 -70
11 -73 17 -4 5 -3 25 3 43 6 25 5 41 -6 61 -14 27 -16 27 -89 24 -91 -3 -120
8 -209 86 -62 54 -144 103 -172 103 -8 0 -18 5 -22 11 -4 8 13 9 59 4 75 -8
102 2 112 42 10 41 -29 67 -164 109 -139 44 -171 69 -171 137 l0 45 -42 7
c-82 12 -143 28 -198 52 -94 41 -130 89 -130 171 0 56 -7 62 -73 62 -77 0
-280 50 -457 111 -527 183 -561 192 -765 192 -77 0 -160 -5 -184 -11 l-44 -11
-42 46 -41 46 38 90 c64 149 89 253 95 408 l6 136 54 32 c187 112 309 267 328
418 7 52 9 53 98 125 156 124 297 259 429 409 70 79 128 146 128 149 0 3 -21
4 -47 2 -29 -2 -55 2 -66 10 -17 12 -15 17 29 62 25 27 61 81 80 120 35 73 76
214 67 229 -3 5 -35 7 -72 6 l-66 -4 3 30 c2 17 31 88 64 158 73 155 79 204
35 280 -34 58 -58 60 -143 17 -32 -16 -60 -30 -61 -30 -2 0 -3 33 -3 73 0 39
-9 110 -21 157 -28 114 -29 194 -5 248 l20 43 -29 23 c-26 21 -30 30 -33 95
-2 40 1 115 8 167 24 190 13 294 -36 360 -12 17 -28 59 -34 95 -35 193 -176
414 -358 562 -66 54 -231 161 -238 154 -2 -2 10 -32 26 -66 32 -68 60 -106
153 -211 73 -82 107 -149 107 -209 -1 -43 -1 -45 -16 -26 -8 11 -52 81 -96
155 -94 157 -148 228 -218 288 l-50 43 0 -54 c0 -109 30 -175 171 -377 48 -69
101 -150 118 -181 39 -70 67 -178 75 -294 10 -124 26 -212 47 -262 l18 -43
-59 0 -60 0 0 -40 c0 -46 20 -72 74 -94 19 -8 37 -24 41 -35 3 -12 10 -21 15
-21 5 0 -2 -11 -15 -25 -39 -39 -31 -110 16 -135 16 -9 31 -6 76 15 42 19 59
23 67 14 8 -8 6 -14 -8 -23 -55 -34 -66 -48 -66 -85 0 -57 35 -86 105 -85 30
1 55 -3 55 -8 0 -24 -50 -75 -134 -137 -50 -38 -99 -77 -109 -88 -17 -20 -16
-21 49 -59 37 -21 84 -56 104 -77 l38 -38 -63 -83 c-116 -154 -164 -260 -298
-651 -42 -121 -83 -237 -91 -257 l-16 -38 -63 0 c-79 -1 -114 -14 -231 -85
-52 -31 -99 -54 -104 -51 -5 3 -40 60 -78 126 -72 129 -139 207 -206 241 -39
20 -43 20 -103 5 -34 -8 -69 -18 -78 -22 -15 -5 -15 -2 -6 26 15 43 6 126 -21
189 -13 28 -21 54 -18 56 2 3 36 -9 74 -25 145 -61 262 -57 330 10 34 32 37
50 50 250 7 102 -6 206 -36 294 l-17 50 -99 39 c-70 28 -120 41 -171 44 l-71
6 -21 -42 c-54 -105 -28 -241 74 -381 40 -55 33 -65 -57 -80 -101 -16 -102
-16 -129 42 -51 109 -201 223 -373 282 -137 47 -229 61 -411 61 -242 0 -382
-36 -531 -135 -58 -39 -74 -45 -94 -38 -14 5 -69 8 -124 6 -66 -2 -100 1 -103
8 -2 6 26 56 63 110 81 122 94 151 101 235 l6 66 -54 27 c-75 36 -134 42 -199
21 -159 -53 -258 -295 -205 -499 41 -157 168 -238 301 -192 26 9 58 16 72 16
23 0 23 -1 -8 -27 -42 -35 -71 -82 -104 -170 -15 -40 -31 -75 -35 -77 -4 -3
-29 1 -56 9 -89 27 -141 -1 -281 -150 -60 -64 -116 -121 -125 -126 -13 -7 -36
9 -103 71 -155 144 -206 170 -279 145 -23 -8 -42 -13 -42 -12 -1 1 -18 97 -39
212 -21 116 -62 331 -91 480 -30 148 -51 273 -49 276 2 4 19 11 37 15 61 13
97 36 97 62 0 40 -19 61 -65 73 -57 14 -64 25 -23 34 48 11 74 31 103 80 14
24 25 46 25 49 0 3 -27 6 -60 6 -69 0 -70 9 -9 55 42 32 89 100 89 129 0 9 -4
15 -8 12 -5 -3 -30 -2 -58 2 l-49 7 79 49 c88 55 111 89 94 138 -9 24 -15 28
-51 28 l-40 0 6 128 c20 409 147 785 353 1038 29 36 32 44 20 60 -13 17 -15
17 -57 -1 -64 -29 -184 -153 -274 -285 -43 -63 -80 -109 -83 -102 -11 34 25
121 86 211 72 107 92 147 92 188 0 34 -34 93 -54 93 -8 0 -33 -21 -57 -47z
m-129 -750 c0 -87 -42 -428 -54 -440 -21 -22 -26 311 -6 450 11 82 14 87 36
87 24 0 24 -1 24 -97z m4123 -109 c10 -20 27 -38 37 -41 11 -3 20 -7 20 -8 0
-16 -63 -137 -83 -161 -15 -18 -27 -34 -27 -37 0 -2 19 -1 42 3 24 5 50 4 59
-1 26 -14 30 -37 9 -52 -25 -17 -50 -76 -51 -119 -1 -77 -14 -74 -47 8 -39 97
-58 172 -72 278 l-11 81 38 42 c21 23 45 42 54 42 8 1 23 -15 32 -35z m-4139
-516 c-12 -22 -47 -58 -56 -58 -4 0 -8 9 -8 20 0 14 11 26 33 35 40 18 40 18
31 3z m4134 -151 c3 -27 3 -27 -54 -27 l-58 0 40 30 c46 35 68 35 72 -3z
m-4250 -256 c10 -6 5 -11 -19 -20 -41 -14 -39 -14 -39 9 0 21 33 28 58 11z
m-18 -180 c-16 -30 -28 -34 -39 -12 -9 16 -7 20 7 24 38 10 43 8 32 -12z
m1184 -163 c-27 -162 -60 -255 -107 -306 l-22 -24 -6 24 c-22 75 -1 203 43
268 18 25 78 70 95 70 1 0 0 -15 -3 -32z m3206 -23 c0 -50 -4 -52 -55 -27 -40
19 -42 41 -5 59 48 24 60 18 60 -32z m134 -187 c-9 -18 -37 -62 -63 -98 -87
-121 -83 -107 -48 -173 33 -64 67 -95 109 -104 16 -3 28 -7 28 -10 0 -17 -49
-92 -109 -166 -108 -133 -130 -189 -94 -229 15 -17 10 -24 -107 -136 -123
-117 -192 -172 -216 -172 -15 0 -13 35 12 180 37 214 106 418 205 610 68 132
136 227 229 320 63 63 65 64 68 38 2 -15 -4 -42 -14 -60z m-1297 -53 c31 -36
46 -99 38 -163 -7 -54 -36 -135 -52 -145 -4 -2 -25 6 -45 19 -30 19 -38 30
-38 55 0 16 -18 72 -40 124 -52 122 -52 131 3 143 56 11 107 -1 134 -33z
m-892 -19 c109 -31 216 -83 270 -130 39 -35 40 -35 14 -36 -14 0 -127 18 -250
40 -326 57 -385 63 -551 57 -82 -2 -148 -3 -148 -2 0 13 117 70 174 86 60 16
96 19 236 15 139 -3 179 -8 255 -30z m-15 -212 c147 -25 325 -89 337 -121 3
-7 -2 -72 -11 -143 -9 -72 -14 -146 -10 -165 7 -40 2 -42 -50 -20 -113 47
-235 55 -781 46 -203 -3 -264 -1 -323 12 -83 18 -182 60 -182 77 0 6 7 25 16
43 79 152 270 252 549 286 106 13 337 6 455 -15z m509 -367 c4 -63 12 -112 20
-121 12 -14 8 -16 -36 -16 l-50 0 -11 78 c-18 115 -16 139 14 169 41 41 55 17
63 -110z m-1750 -102 c126 -61 173 -65 722 -57 205 3 242 -1 534 -59 354 -70
517 -74 699 -17 l69 22 24 -30 c52 -64 119 -174 164 -269 181 -385 213 -824
83 -1124 -23 -51 -25 -53 -56 -47 -79 14 -274 17 -403 7 -77 -6 -239 -23 -360
-37 -333 -37 -510 -47 -640 -33 -107 11 -168 26 -545 139 -74 22 -211 56 -305
76 -307 63 -382 90 -461 169 -52 53 -52 50 -29 308 41 462 159 754 378 935 29
23 57 42 63 42 5 0 34 -11 63 -25z m-649 -93 c40 -20 62 -40 83 -74 l29 -47
-25 -30 c-14 -17 -39 -68 -57 -113 -17 -46 -34 -91 -38 -100 -15 -38 -162 118
-183 194 -13 50 6 119 46 173 25 32 33 36 59 31 17 -3 56 -18 86 -34z m3428
-309 c24 -56 22 -168 -4 -218 -30 -57 -61 -66 -108 -29 -51 41 -104 121 -112
171 -6 39 -4 45 25 72 35 33 51 38 129 40 52 1 53 0 70 -36z m-3759 -1089 l54
-24 -40 -29 c-53 -39 -95 -90 -134 -168 -18 -35 -35 -60 -39 -56 -50 59 -80
103 -80 117 0 10 11 36 24 59 13 23 26 60 28 82 2 22 8 43 13 48 17 13 118 -4
174 -29z m836 -84 c55 -11 179 -46 276 -77 l176 -56 11 -88 c22 -180 101 -340
221 -452 52 -48 168 -131 196 -140 6 -2 10 -94 9 -258 -1 -207 -6 -296 -28
-484 -20 -172 -29 -316 -36 -570 -28 -986 -47 -1348 -101 -1860 -28 -273 -74
-591 -94 -652 -3 -9 -18 -8 -62 2 -32 7 -179 37 -328 65 -301 57 -494 104
-635 154 l-94 33 -17 49 c-35 104 -94 200 -204 328 -36 44 -85 103 -106 132
l-40 52 -24 219 c-13 120 -36 315 -50 434 -86 732 -109 1058 -109 1534 0 412
12 566 64 826 65 324 166 536 325 688 76 72 167 124 245 141 73 15 293 5 405
-20z m-1265 -5 c0 -20 -237 -153 -525 -295 -358 -177 -474 -244 -592 -341
l-72 -59 -21 66 c-21 71 -70 301 -70 334 0 18 6 20 55 20 68 0 217 22 372 55
88 18 757 198 818 220 16 6 35 5 35 0z m3530 -135 c319 -50 562 -478 642
-1130 21 -168 16 -529 -11 -775 -101 -952 -265 -1546 -539 -1960 -82 -124
-229 -273 -337 -343 -104 -66 -117 -80 -112 -114 3 -27 3 -28 -48 -28 -68 0
-130 -32 -225 -116 -80 -72 -148 -124 -162 -124 -4 0 -8 9 -8 19 0 11 -14 31
-32 46 -26 22 -32 34 -30 61 2 28 -1 34 -20 38 -108 22 -174 13 -317 -45 -84
-33 -109 -39 -174 -39 l-76 0 5 48 c21 205 116 1590 159 2302 22 368 85 1490
85 1511 0 5 20 20 45 35 36 20 53 25 80 20 32 -6 39 -3 84 42 57 57 70 81 141
259 93 238 138 269 420 296 83 8 370 6 430 -3z m-1515 -65 c56 -9 205 -19 338
-22 l238 -6 -6 -31 c-17 -81 -77 -177 -179 -287 l-58 -63 -98 11 c-124 14
-203 48 -264 113 -24 26 -51 61 -60 78 -21 40 -46 146 -46 195 0 32 3 37 18
33 9 -3 62 -13 117 -21z m2198 -75 c49 -14 113 -72 126 -113 14 -42 22 -137
12 -137 -5 0 -30 19 -56 42 -48 42 -95 123 -95 164 0 14 -8 24 -22 28 -44 11
-68 6 -101 -24 -43 -37 -47 -37 -47 -1 0 60 7 64 79 58 36 -4 83 -11 104 -17z
m356 -125 c449 -114 826 -292 1101 -520 89 -74 105 -95 75 -95 -33 0 -115 -51
-140 -87 -14 -21 -25 -43 -25 -50 0 -6 -4 -15 -10 -18 -13 -8 -157 91 -305
211 -258 208 -308 247 -412 320 -98 68 -330 194 -359 194 -15 0 -30 18 -38 48
-9 28 -7 28 113 -3z m-5954 -253 l-40 -37 -12 35 c-7 19 -13 36 -13 38 0 1 24
2 53 2 l52 0 -40 -38z m-215 -58 c0 -4 -10 -23 -22 -43 -19 -31 -23 -33 -26
-16 -2 11 -11 27 -19 36 -11 14 -12 18 -1 22 19 8 68 8 68 1z m-256 -125 c-12
-13 -20 -16 -22 -9 -3 7 2 16 9 21 25 16 32 9 13 -12z m-234 -74 c0 -2 -15
-12 -32 -21 -18 -9 -44 -26 -57 -38 l-23 -21 7 25 c3 14 9 33 11 43 4 13 16
17 50 17 24 0 44 -2 44 -5z m-325 -84 c-95 -88 -229 -198 -260 -212 -50 -23
-105 -25 -105 -4 0 28 30 89 58 118 50 53 134 85 267 100 17 2 34 5 40 6 6 0
6 -2 0 -8z m8715 -432 c0 -27 -11 -49 -24 -49 -10 0 -46 61 -46 79 0 5 16 4
35 -2 23 -7 35 -17 35 -28z m138 -88 c9 -6 11 -19 7 -44 l-7 -35 -34 20 c-32
19 -33 20 -18 44 17 25 30 29 52 15z m355 -170 c119 -55 212 -115 251 -162 29
-34 70 -108 63 -115 -2 -2 -29 3 -61 11 -63 16 -115 49 -187 117 -52 48 -185
198 -176 198 4 0 53 -22 110 -49z m-6662 -1311 c16 -9 19 -22 19 -81 0 -38 -7
-99 -16 -135 -16 -62 -18 -65 -42 -59 -25 6 -136 70 -176 100 -15 11 -17 22
-12 54 10 64 23 90 58 111 37 22 135 28 169 10z m-246 -303 c17 -13 17 -16 0
-88 -10 -41 -71 -231 -136 -424 -165 -492 -213 -677 -225 -870 -10 -157 3
-140 -100 -140 -112 1 -140 15 -260 126 -48 44 -107 90 -131 102 l-43 21 43
46 c123 127 227 279 367 535 210 382 292 514 402 647 27 32 52 58 56 58 5 0
16 -6 27 -13z m4361 -187 c-11 -84 -37 -141 -85 -191 -54 -56 -97 -70 -63 -21
24 35 47 93 67 173 9 35 26 84 38 109 l21 44 14 -34 c9 -23 12 -51 8 -80z
m105 -361 c148 -187 232 -358 397 -809 49 -135 111 -296 136 -359 26 -62 46
-114 44 -115 -2 -1 -29 -7 -60 -13 -31 -7 -112 -34 -180 -61 -68 -27 -135 -52
-150 -54 -25 -5 -28 -2 -32 36 -29 259 -57 389 -164 766 -93 329 -88 300 -56
300 l27 0 -5 68 c-4 52 -13 83 -42 137 -20 39 -39 90 -42 115 -5 40 -3 46 18
56 12 6 28 12 34 13 7 0 40 -35 75 -80z m-2119 -945 l56 -17 -32 -17 c-18 -9
-50 -35 -70 -58 -25 -27 -47 -42 -62 -42 -17 0 -28 -8 -34 -26 -15 -38 -13
-49 15 -82 l24 -29 -34 11 c-33 10 -35 13 -35 56 0 25 -9 78 -20 118 -11 39
-20 85 -20 102 0 27 3 30 30 30 28 0 30 3 30 36 l0 35 48 -49 c36 -37 63 -55
104 -68z m-644 76 c34 -11 102 -25 151 -31 l89 -11 5 -52 c3 -28 3 -54 1 -57
-2 -3 -56 5 -121 17 -65 13 -128 24 -140 24 -17 0 -23 6 -23 23 0 12 -9 41
-20 65 -10 23 -16 42 -12 42 4 0 35 -9 70 -20z m1032 -55 c0 -2 -19 -14 -42
-26 -94 -47 -146 -109 -149 -176 -2 -27 -2 -27 -6 -3 -8 45 -43 72 -88 69 -39
-3 -40 -2 -37 26 6 72 3 70 109 84 105 15 193 27 206 30 4 0 7 -1 7 -4z
m-3466 -84 c21 -40 33 -155 16 -149 -8 2 -19 19 -25 37 -6 19 -23 44 -38 57
l-27 23 23 34 c24 38 31 38 51 -2z m2516 -142 c0 -18 -2 -19 -15 -9 -8 7 -15
16 -15 21 0 5 7 9 15 9 9 0 15 -9 15 -21z m590 -39 c-20 -13 -53 -13 -45 0 3
6 18 10 33 10 21 0 24 -2 12 -10z m-3244 -64 c16 -12 19 -26 17 -88 -1 -40 -6
-86 -13 -102 l-11 -29 -24 23 c-48 45 -58 148 -19 191 21 23 24 23 50 5z
m5890 -284 c-7 -29 -51 -80 -61 -70 -3 2 5 33 16 67 19 56 23 61 36 48 10 -10
13 -24 9 -45z m59 -227 c21 -30 36 -56 34 -58 -2 -2 -22 -14 -43 -27 -37 -22
-39 -22 -32 -4 16 42 17 72 2 107 -8 21 -22 37 -31 37 -9 0 -13 5 -10 10 11
17 40 -6 80 -65z m67 -237 c31 -29 61 -63 67 -75 11 -21 9 -23 -12 -23 -13 0
-41 -11 -61 -25 l-36 -24 0 60 c0 51 -4 64 -26 86 -25 25 -26 27 -8 40 10 7
18 13 19 13 0 0 26 -24 57 -52z m-6454 -46 c9 -6 -3 -28 -42 -80 -58 -76 -70
-106 -132 -332 -44 -164 -98 -282 -150 -333 l-39 -39 -22 49 c-16 34 -23 67
-23 115 0 121 60 239 239 468 46 58 90 117 99 133 16 27 45 35 70 19z m6610
-238 l37 -37 -25 -16 c-14 -9 -49 -38 -79 -66 l-53 -50 5 45 c4 25 9 61 12 81
4 23 3 39 -4 43 -26 17 -5 30 53 35 10 0 34 -15 54 -35z m138 -426 c71 -108
149 -267 168 -344 30 -117 17 -199 -38 -253 l-34 -33 -28 53 c-58 116 -81 213
-114 489 -11 91 -20 169 -20 174 0 14 7 5 66 -86z"/>
<path d="M4130 8030 c-100 -54 -170 -150 -213 -290 -31 -103 -35 -356 -7 -530
44 -283 50 -329 64 -495 9 -93 20 -261 26 -372 5 -112 15 -294 20 -405 22
-419 49 -692 91 -901 26 -131 33 -147 59 -140 13 4 19 11 16 22 -36 123 -41
550 -12 926 10 127 18 318 18 425 0 218 -11 299 -81 596 -84 358 -108 576 -81
755 16 110 24 128 107 231 82 102 100 138 87 176 -13 37 -30 37 -94 2z"/>
<path d="M6680 7901 c-14 -4 -30 -18 -37 -31 -12 -24 -10 -25 55 -56 194 -90
272 -221 272 -454 0 -141 -21 -270 -89 -557 -62 -259 -106 -478 -122 -606 -14
-119 -7 -425 16 -712 25 -312 14 -375 -118 -680 -98 -227 -114 -313 -79 -425
l18 -54 46 69 c60 92 70 112 111 230 34 100 59 209 77 340 5 39 14 273 19 520
17 791 26 872 142 1273 99 343 120 464 120 671 0 138 -1 144 -26 175 -14 17
-53 70 -86 119 -68 96 -104 131 -164 158 -48 21 -121 31 -155 20z"/>
</g>
</svg>
