<svg width="300" height="83" viewBox="0 0 300 83" fill="none" xmlns="http://www.w3.org/2000/svg">
<path d="M15 0.5H285C293.008 0.5 299.5 6.99187 299.5 15V35C299.5 43.0081 293.008 49.5 285 49.5L71.9715 49.5C68.6364 49.5 65.4112 50.563 62.7176 52.5253C56.9864 56.7004 45.9972 64.5775 35.8796 71.1011C30.8189 74.3641 25.9884 77.2807 22.1478 79.2261C20.2255 80.1998 18.5687 80.9212 17.2642 81.3233C16.6116 81.5244 16.0643 81.6402 15.6263 81.6728C15.18 81.7061 14.9003 81.6488 14.7394 81.561C14.1587 81.2443 13.8868 80.9281 13.7741 80.6275C13.6614 80.3267 13.6721 79.9457 13.8607 79.422C14.0504 78.8951 14.4013 78.2768 14.8955 77.539C15.3876 76.8044 16.002 75.9799 16.7036 75.0385L16.7096 75.0305C18.9999 71.9576 22.1423 67.7415 24.5039 61.8919C26.3837 57.2353 23.6626 52.2917 19.1609 50.3502C17.8603 49.7893 16.4588 49.5 15.0424 49.5H14.1624C6.61687 49.5 0.5 43.3831 0.5 35.8376V15C0.5 6.99187 6.99187 0.5 15 0.5Z" stroke="black"/>
</svg>
