<!-- icon666.com - MILLIONS vector ICONS FREE --><svg xmlns="http://www.w3.org/2000/svg" viewBox="0 0 64 64"><g id="Layer_28" data-name="Layer 28"><path d="M41,15.92a29.26,29.26,0,0,0-4.87.38c0-.06,0-.13,0-.18.13-.55.29-1.22-.17-1.68s-1.13-.3-1.68-.17a3.53,3.53,0,0,1-.61.12,3.29,3.29,0,0,1-.36-.51c-.29-.48-.66-1.09-1.33-1.09s-1,.61-1.33,1.09a4.93,4.93,0,0,1-.33.49,2.13,2.13,0,0,1-.64-.1c-.55-.13-1.22-.29-1.68.17s-.3,1.13-.17,1.68c0,.05,0,.12,0,.18A29.26,29.26,0,0,0,23,15.92c-4.61,0-9.58.94-9.58,3V46.43a.6.6,0,1,0,1.2,0c0-.55,2.85-1.83,8.38-1.83s8.37,1.28,8.37,1.83a.6.6,0,1,0,1.2,0c0-.55,2.85-1.83,8.37-1.83s8.38,1.28,8.38,1.83a.6.6,0,1,0,1.2,0V18.94C50.55,16.86,45.58,15.92,41,15.92ZM29.07,17.2A2.27,2.27,0,0,0,29,15.84a4.42,4.42,0,0,1-.1-.5,3,3,0,0,1,.5.1,2.3,2.3,0,0,0,1.37.05,2.2,2.2,0,0,0,.9-1A3.82,3.82,0,0,1,32,14a3.82,3.82,0,0,1,.31.47,2.2,2.2,0,0,0,.9,1,2.3,2.3,0,0,0,1.37-.05,3,3,0,0,1,.5-.1,4.42,4.42,0,0,1-.1.5,2.3,2.3,0,0,0,0,1.37,2.15,2.15,0,0,0,1,.9,3.08,3.08,0,0,1,.46.31,4.1,4.1,0,0,1-.46.31,2.15,2.15,0,0,0-1,.9A2.3,2.3,0,0,0,35,21a4,4,0,0,1,.1.5l-.5-.1a2.3,2.3,0,0,0-1.37,0,2.15,2.15,0,0,0-.9,1,3.08,3.08,0,0,1-.31.46,3.08,3.08,0,0,1-.31-.46,2.15,2.15,0,0,0-.9-1,1.43,1.43,0,0,0-.5-.09,3.76,3.76,0,0,0-.87.14l-.5.1A4,4,0,0,1,29,21a2.3,2.3,0,0,0,.05-1.37,2.15,2.15,0,0,0-1-.9,4.1,4.1,0,0,1-.46-.31,3.08,3.08,0,0,1,.46-.31A2.12,2.12,0,0,0,29.07,17.2Zm3.31,8.72a.39.39,0,0,0-.11-.06l-.05,0a.56.56,0,0,0-.44,0l-.05,0a.39.39,0,0,0-.11.06L30.08,27.2V22.48l.23,0a3.67,3.67,0,0,1,.36.5c.29.49.66,1.1,1.33,1.1s1-.61,1.33-1.1c.11-.16.28-.44.33-.49a.87.87,0,0,1,.26,0V27.2ZM23,43.4c-3.23,0-6.63.47-8.38,1.46V18.94c0-.55,2.85-1.82,8.38-1.82a29.61,29.61,0,0,1,4,.26,1.29,1.29,0,0,0-.65,1c0,.67.61,1,1.09,1.33a4.79,4.79,0,0,1,.5.33,2.67,2.67,0,0,1-.11.64A1.71,1.71,0,0,0,28,22.4a1.12,1.12,0,0,0,.87.3v5.78a.6.6,0,0,0,1,.46l1.53-1.28v17.2C29.65,43.87,26.26,43.4,23,43.4Zm26.32,1.46c-1.75-1-5.15-1.46-8.38-1.46s-6.62.47-8.37,1.46V27.66l1.53,1.28a.62.62,0,0,0,.38.14.58.58,0,0,0,.26-.06.6.6,0,0,0,.34-.54V22.7a1.12,1.12,0,0,0,.87-.3,1.71,1.71,0,0,0,.17-1.68,3.71,3.71,0,0,1-.12-.61,2.73,2.73,0,0,1,.51-.36c.48-.29,1.09-.66,1.09-1.33a1.29,1.29,0,0,0-.65-1,29.61,29.61,0,0,1,4-.26c5.53,0,8.38,1.27,8.38,1.82Z"></path><path d="M17,23.1h8.32a.6.6,0,0,0,0-1.2H17a.6.6,0,0,0,0,1.2Z"></path><path d="M17,27.59h8.32A.6.6,0,0,0,26,27a.6.6,0,0,0-.6-.6H17a.6.6,0,0,0-.6.6A.6.6,0,0,0,17,27.59Z"></path><path d="M28.26,30.87H17a.6.6,0,0,0,0,1.2H28.26a.6.6,0,1,0,0-1.2Z"></path><path d="M28.26,35.36H17a.6.6,0,0,0,0,1.2H28.26a.6.6,0,0,0,0-1.2Z"></path><path d="M28.26,39.85H17a.6.6,0,0,0,0,1.2H28.26a.6.6,0,0,0,0-1.2Z"></path><path d="M47,21.9H38.54a.6.6,0,1,0,0,1.2H47a.6.6,0,1,0,0-1.2Z"></path><path d="M47,26.39H38.54a.6.6,0,0,0-.6.6.6.6,0,0,0,.6.6H47a.6.6,0,0,0,.6-.6A.6.6,0,0,0,47,26.39Z"></path><path d="M47,30.87H35.74a.6.6,0,1,0,0,1.2H47a.6.6,0,1,0,0-1.2Z"></path><path d="M47,35.36H35.74a.6.6,0,0,0,0,1.2H47a.6.6,0,0,0,0-1.2Z"></path><path d="M47,39.85H35.74a.6.6,0,1,0,0,1.2H47a.6.6,0,1,0,0-1.2Z"></path><path d="M49.46,60.6H14.54A11.16,11.16,0,0,1,3.4,49.46V14.54A11.16,11.16,0,0,1,14.54,3.4H49.46A11.16,11.16,0,0,1,60.6,14.54V49.46A11.16,11.16,0,0,1,49.46,60.6ZM14.54,4.6A10,10,0,0,0,4.6,14.54V49.46a10,10,0,0,0,9.94,9.94H49.46a10,10,0,0,0,9.94-9.94V14.54A10,10,0,0,0,49.46,4.6Z"></path></g></svg>