<!-- icon666.com - MILLIONS vector ICONS FREE --><svg version="1.1" id="Layer_1" xmlns="http://www.w3.org/2000/svg" xmlns:xlink="http://www.w3.org/1999/xlink" x="0px" y="0px" viewBox="0 0 512 512" style="enable-background:new 0 0 512 512;" xml:space="preserve"><g><g><path d="M179.374,80.317c-63.478,0-115.121,51.643-115.121,115.121s51.643,115.121,115.121,115.121 s115.121-51.643,115.121-115.121S242.852,80.317,179.374,80.317z M179.374,294.495c-54.621,0-99.057-44.437-99.057-99.057 s44.437-99.057,99.057-99.057s99.057,44.437,99.057,99.057S233.995,294.495,179.374,294.495z"></path></g></g><g><g><path d="M364.344,307.548l-12.01,10.71l-46.861-46.862c13.856-22.913,21.149-49.034,21.149-75.958 c0-81.193-66.055-147.247-147.247-147.247S32.127,114.245,32.127,195.437s66.055,147.247,147.247,147.247 c34.818,0,68.142-12.218,94.675-34.561l42.259,42.259l-12.008,10.708L455.21,512L512,455.204L364.344,307.548z M274.567,285.924 l-5.674,5.305c-24.404,22.823-56.196,35.392-89.519,35.392c-72.335,0-131.184-58.849-131.184-131.184 S107.039,64.253,179.374,64.253s131.184,58.849,131.184,131.184c0,25.953-7.607,51.068-21.998,72.627l-3.658,5.48l55.422,55.422 l-12.008,10.709L274.567,285.924z M327.687,361.76l36.025-32.126l125.571,125.57l-34.074,34.077L327.687,361.76z"></path></g></g><g><g><rect x="157.956" y="192.76" width="16.063" height="16.063"></rect></g></g><g><g><rect x="125.83" y="192.76" width="16.063" height="16.063"></rect></g></g><g><g><rect x="222.21" y="192.76" width="16.063" height="16.063"></rect></g></g><g><g><rect x="190.083" y="192.76" width="16.063" height="16.063"></rect></g></g><g><g><rect x="340.008" y="117.798" width="128.507" height="16.063"></rect></g></g><g><g><rect x="340.008" y="160.633" width="128.507" height="16.063"></rect></g></g><g><g><rect x="340.008" y="203.469" width="128.507" height="16.063"></rect></g></g><g><g><rect x="340.008" y="246.305" width="128.507" height="16.063"></rect></g></g><g><g><path d="M503.273,32.57C499.44,31.24,408.587,0,340.008,0c-43.655,0-73.741,19.937-85.671,29.511 C242.407,19.937,212.32,0,168.665,0C100.085,0,9.233,31.24,5.399,32.57L0,34.443v359.109v52.935l9.84-2.275 c0.919-0.212,92.531-21.211,158.825-21.211c50.187,0,80.928,19.879,81.216,20.068l4.446,2.941l4.444-2.928 c0.302-0.199,30.759-19.884,80.516-20.073l-0.061-16.063c-44.031,0.167-74.037,14.127-84.888,20.112 c-10.914-6.024-41.209-20.121-85.673-20.121c-55.887,0-126.79,13.949-152.602,19.456v-26.392 c21.787-4.7,96.319-19.836,152.602-19.836c50.187,0,80.928,19.879,81.216,20.068l4.446,2.941l4.445-2.928 c0.156-0.104,16.033-10.421,43.364-16.191l-3.319-15.717c-22.058,4.657-37.375,11.982-44.473,15.887 c-10.907-6.021-41.206-20.123-85.68-20.123c-55.896,0-126.802,13.952-152.602,19.456V45.952 c20.62-6.707,95.994-29.889,152.602-29.889c49.332,0,79.706,29.491,79.992,29.774l5.679,5.679l5.679-5.679 c0.299-0.298,30.349-29.774,79.992-29.774c56.608,0,131.983,23.182,152.602,29.889v337.619 c-7.034-1.494-17.431-3.616-29.862-5.898l-2.9,15.8c22.969,4.217,38.827,7.869,38.985,7.904l9.84,2.275V34.443L503.273,32.57z"></path></g></g></svg>